<?xml version="1.0" encoding="utf-8"?><svg viewBox="0 0 569 588" xmlns="http://www.w3.org/2000/svg" xmlns:xlink="http://www.w3.org/1999/xlink"><style>:root>svg{display:none}:root>svg:target{display:block}</style><svg fill="none" viewBox="0 0 420 588" id="about-vr-person" xmlns="http://www.w3.org/2000/svg"><path opacity=".5" d="M92.794 575.207c43.15-22.379 114.968-62.426 168.166-96.585 53.199-34.158 78.616-60.954 47.879-78.916-35.17-20.318-101.373 3.239-160.482 42.108-64.725 42.698-93.392 66.255-123.834 89.223-19.506 14.724-9.162 27.091 9.753 38.87 19.21 12.073 34.58 17.668 58.518 5.3Z" fill="url(#ba)"/><path d="m131.216 4.728 282.425 162.396v222.36L131.216 227.089V4.728Z" fill="#826F8C" fill-opacity=".9"/><path d="m419.964 163.39-6.323 3.733v222.361l6.323-3.733V163.39Z" fill="#446381"/><path d="M407.786 171.09v132.063L136.602 147.058V15.228L407.786 171.09Z" fill="#506898"/><path d="m240.345 206.789 66.976 38.499 21.311 87.964-136.06-78.398 47.773-48.065Z" fill="#786D8A"/><path d="M159.552 69.826c0-5.833 3.747-8.633 8.196-6.066.937.7 2.108 1.4 3.045 2.333 1.873-2.8 5.152-3.5 8.899-1.4 4.449 2.567 7.962 8.166 9.601 14 1.405-.934 3.279-.934 5.386.466 3.045 1.867 5.855 5.6 7.26 9.567.937 0 1.874.233 3.044.7 3.045 1.633 5.621 5.833 6.323 9.8l-51.754-29.4Zm231.139 133.23c-.234-7.233-4.45-15.633-9.836-18.666-1.171-.7-2.342-1.167-3.513-1.167-2.341-5.833-6.088-11.199-10.538-13.766-5.152-3.033-9.601-1.4-11.709 3.5-1.639-3.033-3.981-5.6-6.557-7-3.747-2.1-6.791-1.4-8.665 1.633-1.171-1.4-2.342-2.566-3.747-3.266-3.513-2.1-6.557-.7-7.494 3.033l62.059 35.699Zm-177.277-89.597c.468-3.5 2.81-5.134 5.855-3.267 1.405.7 2.576 2.1 3.746 3.733 1.171-2.333 3.747-3.033 6.323-1.4 3.279 1.867 6.089 6.3 7.026 10.733.702-.233 1.873 0 2.81.467 2.108 1.167 3.981 4.2 4.684 7.233l-30.444-17.499Zm96.484 73.264c.468-3.266 2.576-4.666 5.386-3.033 1.171.7 2.342 2.1 3.278 3.5 1.171-2.1 3.279-2.8 5.855-1.4 3.044 1.633 5.62 5.833 6.323 9.8.703-.234 1.639 0 2.576.466 2.108 1.167 3.747 3.967 4.45 6.533l-27.868-15.866ZM147.609 98.292c.468-3.266 2.576-4.666 5.386-3.033 1.171.7 2.342 2.1 3.278 3.5 1.171-2.1 3.279-2.8 5.855-1.4 3.044 1.633 5.62 5.833 6.323 9.8.702-.233 1.639 0 2.576.467 2.108 1.166 3.747 3.966 4.449 6.533l-27.867-15.867Zm144.022 64.632c.469-3.267 2.576-4.667 5.387-3.033 1.171.7 2.341 2.099 3.278 3.499 1.171-2.1 3.279-2.8 5.855-1.4 3.044 1.634 5.62 5.834 6.323 9.8.702-.233 1.639 0 2.576.467 2.107 1.166 3.747 3.966 4.449 6.533l-27.868-15.866Z" fill="#fff"/><path d="M329.569 224.522c.937-3.733 4.215-.933 7.026.7-1.64-5.133-.469-10.266 3.512-7.466 0-2.334.703-4.667 2.576-3.967.469 0 .703.233 1.171.7-.468-2.1-.234-3.966.703-5.133 2.576-2.567 6.557 1.633 7.728 6.533 3.044-.467 7.26.7 9.133 6.3 5.152-.933 10.304 10.733 7.962 14.466 3.279 2.567 5.152 9.333 2.342 10.267 5.386 7.466 5.152 17.732-.702 18.199.702 7.233-4.684 10.033-9.368 2.8-.702.233-1.171.467-1.873.467-.703 3.733-1.405 8.399-1.405 12.133-.234 6.766 0 15.166 0 23.099 0 6.767.936 16.1 1.171 18.666l-11.241-6.533c.702-1.633 2.342-6.766 2.81-11.9.468-6.066.703-22.632-1.171-27.066-1.873-4.199-7.26-12.366-8.899-18.432-.702-2.334-1.171-4.667-1.405-6.534-4.449-3.033-8.899-10.499-5.855-15.866-2.576-3.033-4.917-7.933-4.215-11.433Zm13.583 35.699c2.81 5.133 8.196 13.767 8.196 13.767s0-6.067.469-11.2c-.235-.467-.235-.933-.469-1.167-1.873.234-3.981-1.633-5.854-4.666-.703-.934-1.405-2.1-1.874-3.267-.702.233-1.639.233-2.342-.233.235 1.866.703 4.433 1.874 6.766ZM221.845 151.957c-.937-4.9-4.216-5.833-7.026-7.233 1.639-3.267.469-9.8-3.513-11.433 0-2.333-.702-5.367-2.576-7-.468-.233-.702-.466-1.171-.466.469-1.4.235-3.734-.702-6.067-2.576-5.367-6.557-5.833-7.728-2.333-3.045-3.967-7.26-7.7-9.133-4.2-5.152-7-10.304-1.167-7.962 5.366-3.279-1.4-5.153 3.5-2.342 7.7-5.387 1.167-5.152 11.667.702 19.133-.702 6.533 4.684 15.4 9.368 13.766.702.934 1.17 1.867 1.873 2.8.703 4.433 1.405 10.033 1.405 13.766.234 7 0 15.167 0 23.1 0 6.766-.937 14.933-1.171 17.266l11.241 6.533c-.703-2.333-2.342-9.566-2.81-15.166-.469-6.767-.703-23.566 1.171-25.433 1.873-1.866 7.259-4.2 8.899-8.166.702-1.633 1.171-3.267 1.405-4.667 4.449 2.1 8.899-.466 5.854-8.866 2.576-1.633 5.152-3.733 4.216-8.4Zm-13.583 20.3c-2.81 2.1-8.196 4.199-8.196 4.199s0-6.066-.469-11.666c.234-.233.234-.467.469-.7 1.873 2.567 3.981 3.033 5.854 2.1.703-.233 1.405-.467 1.874-1.167.702.934 1.639 1.867 2.342 2.567-.235 1.867-.703 3.733-1.874 4.667Z" fill="#EFC8C5"/><path d="M335.189 301.053c-.234-1.166 0-2.333.703-3.033 1.171-1.167 2.81-.467 4.215.933.234-1.633.703-3.033 1.873-2.8.937.234 1.874 1.167 2.811 2.334-.234-1.4 0-2.567.702-3.267.937-1.4 2.81-.933 4.45.233 1.639 1.167 2.81 3.5 3.512 5.834.469.233.937.7 1.64 1.166 1.171.7 2.107 1.4 3.044 2.567 1.405 1.867 1.874 3.966 1.639 5.833 1.874 1.167 3.982 3.033 4.918 6.067.937 3.5-.468 4.666-2.342 4.899.469 1.4.703 2.8.235 3.967-.703 2.8-3.279 1.867-5.387.467-1.639 2.1-5.152.233-7.493-3.034-1.874.934-5.855-1.4-7.494-5.366-1.405 1.4-3.513.933-5.621-1.633-2.342-2.8-2.342-5.834-1.405-7.7-.937-.933-1.639-2.567-1.873-3.967-.937-2.8.234-3.966 1.873-3.5Zm-150.111-96.13c-.234-1.167 0-2.334.703-3.034 1.171-1.166 2.81-.466 4.215.934.234-1.634.702-3.033 1.873-2.8.937.233 1.874 1.166 2.811 2.333-.235-1.4-.001-2.566.702-3.266.937-1.4 2.81-.934 4.45.233 1.639 1.167 2.81 3.5 3.512 5.833.469.233.937.7 1.64 1.167 1.17.7 2.107 1.4 3.044 2.566 1.405 1.867 1.873 3.967 1.639 5.833 1.874 1.167 3.981 3.034 4.918 6.067.937 3.5-.468 4.667-2.342 4.9.469 1.4.703 2.8.234 3.966-.702 2.8-3.278 1.867-5.386.467-1.639 2.1-5.152.233-7.494-3.033-1.873.933-5.854-1.4-7.494-5.367-1.405 1.4-3.512.934-5.62-1.633-2.342-2.8-2.342-5.833-1.405-7.7-.937-.933-1.639-2.566-1.873-3.966-.937-2.8.468-4.2 1.873-3.5Zm-26.931-1.634c-.235-.7 0-1.633.468-1.867.703-.699 1.639-.233 2.576.7 0-.933.468-1.866 1.171-1.633.468 0 1.171.7 1.639 1.4-.234-.933 0-1.633.469-2.1.702-.933 1.639-.7 2.81.234.937.7 1.873 2.099 2.342 3.499.234.234.702.467 1.171.7.702.467 1.171.7 1.873 1.634a4.547 4.547 0 0 1 .937 3.733c1.171.7 2.576 1.867 3.044 3.733.703 2.333-.234 3.033-1.405 3.033.234.7.468 1.634.234 2.334-.468 1.633-2.107 1.166-3.513.233-.936 1.167-3.278 0-4.683-1.867-1.171.467-3.747-.933-4.684-3.499-.937.933-2.342.699-3.513-.934-1.405-1.633-1.405-3.5-.936-4.9-.469-.7-.937-1.633-1.171-2.333-.469-1.633.234-2.567 1.171-2.1Zm166.27 70.932c-.234-.7 0-1.634.469-1.867.702-.7 1.639-.233 2.576.7 0-.933.468-1.867 1.171-1.633.468 0 1.17.7 1.639 1.4-.234-.934 0-1.634.468-2.1.703-.934 1.639-.7 2.81.233.937.7 1.874 2.1 2.342 3.5.234.233.703.467 1.171.7.703.467 1.171.7 1.874 1.633a4.552 4.552 0 0 1 .936 3.733c1.171.7 2.576 1.867 3.045 3.734.702 2.333-.234 3.033-1.405 3.033.234.7.468 1.633.234 2.333-.469 1.634-2.108 1.167-3.513.234-.937 1.166-3.279 0-4.684-1.867-1.171.467-3.747-.933-4.683-3.5-.937.933-2.342.7-3.513-.933-1.405-1.634-1.405-3.5-.937-4.9-.468-.7-.937-1.633-1.171-2.333-.702-1.867 0-2.567 1.171-2.1ZM148.545 173.424c-.234-.934 0-1.867.469-2.334.936-.933 2.107-.233 3.278.934.234-1.167.469-2.334 1.64-2.334.702 0 1.639.934 2.107 1.867-.234-1.167 0-2.1.469-2.8.702-.933 2.107-.933 3.512.233 1.171.934 2.342 2.8 2.811 4.667.468.233.702.467 1.405.933.936.467 1.639.933 2.341 2.1.937 1.633 1.406 3.267 1.406 4.667 1.639.933 3.278 2.333 3.981 4.9.702 2.799-.469 3.733-1.874 3.966.469.933.469 2.1.234 3.033-.702 2.1-2.576 1.634-4.449.234-1.405 1.633-4.215.233-5.855-2.334-1.405.7-4.683-1.166-5.854-4.433-1.171 1.167-2.81.7-4.684-1.166-1.873-2.334-1.873-4.667-1.171-6.3-.702-.7-1.405-2.1-1.639-3.034-.234-2.333.702-3.266 1.873-2.799Zm223.411 129.729c-.234-.933 0-1.866.469-2.333.936-.933 2.107-.233 3.278.933.234-1.166.469-2.333 1.639-2.333.703 0 1.64.933 2.108 1.867-.234-1.167 0-2.1.468-2.8.703-.934 2.108-.934 3.513.233 1.171.933 2.342 2.8 2.81 4.667.469.233.703.466 1.406.933.936.467 1.639.933 2.341 2.1.937 1.633 1.405 3.266 1.405 4.666 1.64.934 3.279 2.334 3.982 4.9.702 2.8-.469 3.733-1.874 3.967.468.933.468 2.1.234 3.033-.702 2.1-2.576 1.633-4.449.233-1.405 1.634-4.215.234-5.855-2.333-1.405.7-4.683-1.167-5.854-4.433-1.171 1.167-2.811.7-4.684-1.167-1.873-2.333-1.873-4.666-1.171-6.3-.702-.7-1.405-2.1-1.639-3.033-.234-2.333.702-3.266 1.873-2.8Z" fill="#F5E2E1"/><path d="m269.618 238.522 4.918-12.366 2.108 1.166-2.342 13.767c-1.405-.7-3.045-1.634-4.684-2.567Zm-6.323 15.4 5.152-12.833c1.64.933 3.513 1.866 5.386 2.8l-2.576 14.466c-2.576-1.4-5.152-3.033-7.962-4.433Zm-7.025 17.032 6.088-14.699 8.431 4.9-3.513 16.566c-3.512-2.333-7.259-4.667-11.006-6.767Zm10.538 10.733-3.044 14.233-14.52-8.4 5.621-13.299c3.981 2.333 7.962 4.9 11.943 7.466Z" fill="#fff"/><path d="m419.964 163.391-6.323 3.733L131.216 4.728l6.323-3.733L419.964 163.39Z" fill="#826F8C"/><path d="M129.103 241.379c6.083 0 10.813 3.031 10.813 6.397 0 3.704-4.73 6.397-10.813 6.397-6.082 0-10.813-3.03-10.813-6.397 0-3.366 5.069-6.397 10.813-6.397Z" fill="#002F68"/><path d="M129.441 241.379c4.393 0 8.11 2.02 8.11 4.377 0 2.357-3.717 4.377-8.11 4.377-4.393 0-8.11-2.02-8.11-4.377 0-2.357 3.717-4.377 8.11-4.377Z" fill="#DF8083"/><path d="M129.103 252.49s-2.027 5.724-2.027 12.794c-.338 7.07.338 18.517-4.055 23.567-4.393 5.387-8.448-1.346-8.448-8.753-.338-7.407 4.055-31.985 4.055-31.985l10.475 4.377Z" fill="#002F68"/><path d="M128.09 265.284s-1.352-1.683-3.379-1.01c-1.352.337-4.055 2.02-5.069 2.02-1.014 0-3.379-2.02-3.379-2.02l1.014-6.06s-6.083 2.357-7.097 7.744c-1.351 5.386-3.717 6.396-9.123 8.417-5.407 2.02-11.151 5.723-11.151 5.723l8.447 13.467s13.517-12.12 14.869-13.467l7.096-7.07c.676-1.01 3.379-3.704 4.393-4.377.676-1.347 3.379-3.367 3.379-3.367Zm-1.352 209.078s-16.558 30.974-20.275 44.105c-2.027 7.07-6.758 33.331-6.758 33.331s3.041-4.04 7.772-5.387c3.041-.673 7.434-1.346 10.137 2.357 4.731 6.06 5.407 10.437-2.027 17.171-3.041 3.03-8.786 7.744-13.517 12.12-5.744 5.051-12.503 10.101-18.247 9.764-6.083-.337-10.138-3.367-9.8-10.437.338-4.04 3.38-10.437 3.38-12.794.675-6.397 2.027-46.125 4.73-70.703 1.352-12.457 4.731-19.527 4.731-19.527h39.874Zm-69.273-39.055s-16.557 30.975-20.274 44.105c-2.028 7.071-9.124 36.698-9.124 36.698s9.461-7.743 18.585-4.376c8.448 3.03 4.055 9.09-3.041 15.487-3.041 3.03-7.434 6.06-12.165 10.1-5.745 5.051-7.434 6.734-10.813 7.744-5.745 1.683-12.841 1.01-12.503-6.06.338-4.04.676-11.111 1.014-13.467.675-6.397 2.027-46.126 4.73-70.703 1.352-12.457 4.731-19.528 4.731-19.528h38.86Z" fill="#FFC5B3"/><path d="M87.202 399.956s24.668 34.341 32.102 48.818c2.365 4.714 8.786 15.151 8.786 20.201 0 5.724-2.028 12.457-2.028 12.457s-14.868 12.121-27.033 10.101c-14.193-2.357-18.586-10.437-18.586-10.437s-19.937-24.241-28.384-32.322c-8.448-8.08-22.64-24.914-27.372-37.034-3.717-9.091-6.42-32.322 0-39.729 6.42-7.407 62.515 27.945 62.515 27.945Z" fill="url(#bb)"/><path d="m56.452 383.459-1.69 49.492s-1.69 17.844-2.703 24.577c-5.745 5.724-12.165 8.417-18.248 7.744-13.179-2.02-22.64-10.774-22.64-10.774S-2.346 402.986.357 391.539c2.704-11.447 11.828-24.241 11.828-24.241l44.267 16.161Z" fill="url(#bc)"/><path d="M83.485 272.354s12.502 3.367 16.558 11.11c4.73 8.754 9.461 23.568 5.068 38.382-4.393 14.814-14.868 39.728-16.895 44.442-1.69 4.713 6.082 12.794 4.392 16.16-2.027 3.367-6.082 7.744-3.717 9.091 2.366 1.347 3.717 8.754 3.717 8.754s-32.102 14.477-52.715 6.396c-20.274-8.08-37.17-24.577-37.17-24.577s2.365-9.764 6.42-15.151c4.055-5.387.676-14.814 4.393-17.507 3.717-2.694 10.813-4.04 10.138-8.417-.676-4.377-3.718-46.799 6.42-60.266 10.137-13.467 28.723-15.151 28.723-15.151l24.668 6.734Z" fill="#446381"/><path d="M66.927 206.364c-11.49 1.684-20.275 7.744-20.275 14.814v.674c0 1.346.676 2.693 1.352 4.04 1.014-1.684 2.365-3.367 4.393-4.714 3.717-2.693 8.785-4.713 14.53-5.723v-9.091Z" fill="#0E58C4"/><path d="M66.927 206.701c-11.49 1.684-19.937 7.744-19.937 14.814v.674c0 1.346.676 2.693 1.351 4.04 1.014-1.684 2.366-3.367 4.393-4.714 3.38-2.693 8.448-4.713 14.193-5.387v-9.427Z" fill="#37A0F5"/><path d="m85.174 211.415 30.413 17.507c1.689 1.01 3.379 0 3.379-2.356v-12.121c0-2.357-1.352-5.05-3.379-6.06l-30.413-17.507c-1.69-1.01-3.379 0-3.379 2.356v12.121c.338 2.357 1.69 5.05 3.38 6.06Z" fill="#786D8A"/><path d="m114.235 230.942 3.379-2.02-1.014-2.356-4.055 1.683c0 .337 1.69 2.693 1.69 2.693Z" fill="#7A6D8B"/><path d="m79.768 192.561 3.379-2.02 1.352 1.347-3.042 3.03-1.69-2.357Z" fill="#806E8B"/><path d="m81.795 213.435 30.413 17.507c1.689 1.01 3.379 0 3.379-2.356v-12.121c0-2.357-1.352-5.05-3.379-6.06l-30.413-17.508c-1.69-1.01-3.379 0-3.379 2.357v12.121c.338 2.356 1.69 5.05 3.38 6.06Z" fill="url(#bd)"/><path d="m79.768 192.561-11.827 6.733 34.467 38.382 11.827-6.734-34.467-38.381Z" fill="#A676D4"/><path d="m112.208 229.933-4.731 2.693c-1.014.337-1.69 0-1.69-1.346v-6.061c0-1.01.676-2.693 1.69-3.03l4.731-2.693c1.013-.337 1.689 0 1.689 1.347v6.06c0 1.347-.676 2.693-1.689 3.03Z" fill="#41A0E2"/><path d="m113.221 219.496-.338-.337-.338.337.676.338v-.338Zm-7.096 13.131h.676l-.676-.338v.338Z" fill="#41A0E2"/><path d="m111.869 229.933-4.73 2.693c-1.014.337-1.69 0-1.69-1.346v-6.061c0-1.01.676-2.693 1.69-3.03l4.73-2.693c1.014-.337 1.69 0 1.69 1.347v6.06c0 1.01-.676 2.357-1.69 3.03Z" fill="#fff"/><path d="M111.532 224.883c0 1.346-1.014 3.03-2.028 3.703-1.013.673-2.027 0-2.027-1.347 0-1.346 1.014-3.03 2.027-3.703 1.352-1.01 2.028-.337 2.028 1.347Z" fill="#786D8A"/><path d="m70.306 220.169 30.413 17.507c1.689 1.01 3.379 0 3.379-2.357v-12.12c0-2.357-1.352-5.05-3.379-6.061l-30.413-17.507c-1.69-1.01-3.379 0-3.379 2.357v12.12c0 2.357 1.352 5.051 3.38 6.061Z" fill="#002F68"/><path d="m97.34 240.706 5.406-3.03s-2.028-3.367-2.365-3.367l-4.394 1.01 1.352 5.387Zm-34.468-38.718 5.069-2.693 2.027 2.02-2.365 3.367-4.73-2.694Z" fill="#002F68"/><path d="M66.927 214.108v-10.437c-1.014-.336-2.028-.336-2.703-.336-1.014 0-1.69 1.01-1.69 2.693v11.447c0 2.02.676 4.04 2.366 5.387.337 0 1.013.673 1.69.673 2.364 1.01 8.785 3.367 13.854 6.397 3.379 2.02 10.475 7.407 14.192 10.101 1.352 1.01 2.703 0 2.703-2.02v-1.347l-27.37-15.824c-1.69-1.683-3.042-4.377-3.042-6.734Z" fill="#002F68"/><path d="M95.313 221.179c-2.028-2.694-7.097-8.081-14.53-12.121-4.732-2.693-10.476-4.377-13.856-5.387v10.437c0 2.357 1.352 5.05 3.38 6.061l27.37 15.823v-9.763c0-2.357-1.35-3.704-2.365-5.05Z" fill="#002F68"/><path d="M75.375 209.732c0-.673 0-1.347.338-1.683-2.366-1.011-4.055.673-4.055 3.703 0 3.367 2.027 7.407 4.73 8.754 2.028 1.346 3.717.336 4.393-1.684-.338 0-.338-.336-.675-.336-2.704-1.347-4.731-5.387-4.731-8.754Z" fill="#002F68"/><path d="M76.05 208.048c-.338 0-.338-.337-.675-.337 0 .674-.338 1.01-.338 1.684 0 3.367 2.027 7.407 4.73 8.754.338 0 .338.336.676.336 0-.673.338-1.01.338-1.683 0-3.367-2.027-7.407-4.73-8.754Z" fill="#41A0E2"/><path d="M89.567 217.812c0-.673 0-1.346.338-1.683-2.365-1.01-4.055.673-4.055 3.704 0 3.366 2.028 7.407 4.731 8.753 2.028 1.347 3.717.337 4.393-1.683-.338 0-.338-.337-.676-.337-2.703-1.347-4.73-5.387-4.73-8.754Z" fill="#002F68"/><path d="M90.243 216.129c-.338 0-.338-.337-.676-.337 0 .673-.338 1.01-.338 1.684 0 3.366 2.028 7.406 4.731 8.753.338 0 .338.337.676.337 0-.673.338-1.01.338-1.684 0-3.03-2.028-7.07-4.73-8.753Z" fill="#41A0E2"/><path d="m92.27 211.078-11.15-6.733 1.351-.674 11.151 6.397-1.351 1.01Z" fill="#002F68"/><path d="M83.485 209.394c-6.42-4.713-19.261-3.03-24.668 8.417-3.041 6.397 1.352 23.568 2.027 35.689.676 9.763-2.703 15.487-2.703 15.487l8.448 3.367c8.448 3.367 17.234 0 17.234 0l-.338-14.814s9.124-1.347 10.475-2.694c3.717-3.367 5.745-13.804 4.055-27.271-2.703-19.864-12.165-16.497-14.53-18.181Zm44.267 49.156s.676.673 1.351 1.683c.676 1.01.338 2.02-.338 2.02-.337.337-.675.337-.675.337s.675 1.347 1.351 2.357c.338 1.01-1.014 1.683-1.351 1.683-.338 0 1.013 1.01 1.013 2.02s-2.027.674-2.027.674-.676-8.081.676-10.774Z" fill="#FFC5B3"/><path d="M166.612 261.917c6.082 0 10.813 3.03 10.813 6.397 0 3.703-4.731 6.397-10.813 6.397-6.083 0-10.813-3.03-10.813-6.397 0-3.704 4.73-6.397 10.813-6.397Z" fill="#002F68"/><path d="M166.949 261.917c4.393 0 8.11 2.02 8.11 4.377 0 2.356-3.717 4.377-8.11 4.377-4.392 0-8.11-2.021-8.11-4.377 0-2.694 3.718-4.377 8.11-4.377Z" fill="#DD8084"/><path d="M166.611 272.691s-2.027 5.723-2.027 12.794c-.338 7.07.338 18.517-4.055 23.567-4.393 5.387-8.448-1.346-8.448-8.753-.338-7.407 4.055-31.985 4.055-31.985l10.475 4.377Z" fill="#002F68"/><path d="M94.298 279.761c7.096.673 20.951 27.944 27.371 41.412 4.731-4.377 14.193-12.458 25.006-19.528 3.041-2.02.676-15.15 6.758-18.854.338 3.704 3.717 3.704 5.745 3.367 4.055-.337 5.407-1.347 5.407-4.04 1.013-.337 2.365-.337 3.717 1.01 1.351-.337 4.055 1.683 3.379 3.703 2.703 2.02 2.027 7.071.338 9.427-3.717 5.05-11.152 10.437-15.544 16.161-4.055 5.387-25.006 33.331-39.537 37.708-1.013-.337-5.068-.337-7.772-3.03-9.461-9.427-23.654-33.331-24.33-47.472-.675-11.447 4.393-20.537 9.462-19.864Z" fill="#FFC5B3"/><path d="M91.595 232.963c1.013-3.367 3.379-11.111 3.717-14.141.675-3.703 1.013-9.09-4.055-14.14-5.07-5.051-22.303-6.734-28.385-3.367-6.083 3.703-19.6 10.1-14.868 31.648 3.717 17.17 7.434 19.19 12.502 23.231 4.731 3.703 12.503 4.376 12.503 4.376s4.393-3.366 5.407-9.763c.338-2.02 0-8.417 0-8.417s-4.731-9.091-1.014-12.121c3.717-3.367 7.772 2.02 8.448 4.377 3.041 7.744 1.69 22.221 1.69 22.221s4.73 3.03 9.123 1.683c2.366-.673.338-10.437.338-10.437s-4.73-2.357-5.406-15.15Z" fill="#002F68"/><path d="m101.732 224.882-2.028 1.01v12.121l2.028-1.01v-12.121Z" fill="#EB8382"/><path d="m99.704 225.892-.337-.336v11.784l.337.673v-12.121Z" fill="#C37A87"/><path d="m99.367 225.556.338.337 2.027-1.01-.676-.337-1.69 1.01Z" fill="#fff"/><path d="M100.719 226.229c-1.014.673-3.041 2.693-3.717 3.367-4.731 4.04-13.179 6.733-22.303 6.733-9.461 0-17.571-2.693-22.302-6.733-1.352-1.347-2.703-2.694-3.38-4.041-.675-1.346-1.013-3.703-1.35-5.05l-.339 2.357.338 6.734v.673c0 8.417 12.165 15.151 27.033 15.151 10.814 0 20.275-3.704 24.668-8.754l2.028-10.437h-.676Z" fill="#C37A87"/><path d="M101.056 226.229c-.675.673-3.04 3.03-4.055 3.703-5.068 4.04-13.178 6.734-22.978 6.734-9.462 0-17.91-2.694-22.978-6.734-1.69-1.347-2.703-2.693-3.717-4.04-.676-1.347-1.014-2.693-1.352-4.04v8.753c0 8.417 12.503 15.488 27.71 15.488 9.46 0 17.909-2.694 22.978-6.734.675-.673 3.04-2.693 3.717-3.367v-9.763h.675Z" fill="url(#be)"/><path d="M78.078 197.275c-3.38-2.357-7.772-2.357-12.503.674-7.772 4.376-15.882 16.16-17.572 28.617 1.69 4.714 7.772 6.734 8.786 6.061 1.352-12.121 8.448-23.568 17.234-28.955 0 0 .338 0 .338-.337 2.365-1.346 4.73-2.02 6.758-2.02h2.703c1.014 0 1.69.337 1.69.337l-7.434-4.377Z" fill="#C37A87"/><path d="M78.416 196.937c-4.055-2.02-8.11-2.356-13.179.337-7.772 4.377-15.882 16.161-17.571 28.618 1.351 5.05 7.096 6.734 8.448 7.407 1.69-13.131 9.123-24.914 17.91-30.301 0 0 .337 0 .337-.337 2.365-1.347 4.73-2.02 6.758-2.02 1.69 0 3.38.337 4.731 1.01l-7.434-4.714Z" fill="url(#bf)"/><path d="M61.52 415.443c1.352 3.367 3.717 10.437 6.083 13.467 3.379 4.377-4.731 5.387-10.138 6.397-5.745.673-15.206-6.06-18.585-11.784-3.041-5.723-4.055-14.14-4.055-14.477 8.448 5.387 16.896 8.754 26.695 6.397Z" fill="url(#bg)"/><path d="M20.97 407.026c.338 2.02 1.014 5.723 2.028 9.427 1.69 5.723-1.69 10.1-6.759 6.06-5.068-3.703-10.137-10.1-11.489-15.487-1.014-3.704-1.69-10.774-2.027-13.467 4.73 5.723 10.813 10.1 18.247 13.467Z" fill="url(#bh)"/><defs><linearGradient id="ba" x1="239.602" y1="359.811" x2="97.641" y2="606.599" gradientUnits="userSpaceOnUse"><stop stop-color="#DFB8BF"/><stop offset=".962" stop-color="#EB8382"/></linearGradient><linearGradient id="bb" x1="32.739" y1="397.561" x2="104.365" y2="400.68" gradientUnits="userSpaceOnUse"><stop stop-color="#4499D9"/><stop offset="1" stop-color="#6E6CC1"/></linearGradient><linearGradient id="bc" x1="6.272" y1="388.875" x2="44.008" y2="389.94" gradientUnits="userSpaceOnUse"><stop stop-color="#4499D9"/><stop offset="1" stop-color="#6E6CC1"/></linearGradient><linearGradient id="bd" x1="97.002" y1="192.507" x2="97.002" y2="231.332" gradientUnits="userSpaceOnUse"><stop stop-color="#6379E3"/><stop offset="1" stop-color="#D574C9"/></linearGradient><linearGradient id="be" x1="73.516" y1="221.852" x2="73.516" y2="246.093" gradientUnits="userSpaceOnUse"><stop stop-color="#EB8382"/><stop offset="1" stop-color="#EB8382" stop-opacity="0"/></linearGradient><linearGradient id="bf" x1="66.758" y1="195.338" x2="66.758" y2="233.299" gradientUnits="userSpaceOnUse"><stop stop-color="#EB8382"/><stop offset="1" stop-color="#EB8382" stop-opacity="0"/></linearGradient><linearGradient id="bg" x1="38.555" y1="414.834" x2="60.93" y2="416.234" gradientUnits="userSpaceOnUse"><stop stop-color="#4499D9"/><stop offset="1" stop-color="#6E6CC1"/></linearGradient><linearGradient id="bh" x1="5.024" y1="400.274" x2="18.867" y2="400.735" gradientUnits="userSpaceOnUse"><stop stop-color="#4499D9"/><stop offset="1" stop-color="#6E6CC1"/></linearGradient></defs></svg><svg fill="none" viewBox="0 0 557 566" id="about-vr-person-bg" xmlns="http://www.w3.org/2000/svg"><path d="M320.61 565.59c75.5-1.337 192.299-29.931 225.918-103.431 11.744-25.669 10.946-63.407 9.352-138.883-.467-22.182-1.244-54.515-6.689-94.636-11.296-83.341-18.996-140.065-48.123-173.114-72.973-82.78-336.591-80.378-449.171 68.637-61.404 81.288-70.853 196.943-14.7 292.509C99.03 521.923 219.541 567.372 320.61 565.59Z" fill="url(#aa)" fill-opacity=".17"/><defs><linearGradient id="aa" x1="278.392" y1="565.64" x2="278.392" y2=".852" gradientUnits="userSpaceOnUse"><stop stop-color="#EB8382"/><stop offset="1" stop-color="#EB8382" stop-opacity="0"/></linearGradient></defs></svg><svg fill="none" viewBox="0 0 34 20" id="arrow-left" xmlns="http://www.w3.org/2000/svg"><path d="M9.723.313v18.93L.621 9.784 9.723.313Zm11.822 0v18.93l-9.09-9.459 9.09-9.471Zm11.835 0v18.93l-9.091-9.459 9.09-9.471Z" fill="#fff"/></svg><svg fill="none" viewBox="0 0 112 112" id="hero-cross-1" xmlns="http://www.w3.org/2000/svg"><g opacity=".1"><path d="m100.55 38.673-2.461-2.813 8.789-8.437-8.79-8.79 2.462-2.46 11.25 11.25-11.25 11.25Z" fill="url(#da)"/><path d="m75.588 13.711-2.46-2.46L84.377 0l11.25 11.25-2.461 2.461-8.79-8.789-8.789 8.79Z" fill="url(#db)"/><path d="M55.9 33.4 44.65 22.148l2.46-2.461 8.79 8.79 8.438-8.79 2.812 2.46L55.9 33.4Z" fill="url(#dc)"/><path d="m35.86 13.711-8.438-8.789-8.789 8.79-2.46-2.462L27.422 0 38.32 11.25l-2.46 2.461Z" fill="url(#dd)"/><path d="M11.25 38.673 0 27.423l11.25-11.25 2.461 2.46-8.789 8.79 8.79 8.437-2.462 2.813Z" fill="url(#de)"/><path d="m22.149 67.15-2.461-2.461 8.79-8.79-8.79-8.789 2.461-2.46 11.25 11.25-11.25 11.25Z" fill="url(#df)"/><path d="M11.25 95.628 0 84.378l11.25-11.25 2.461 2.46-8.789 8.79 8.79 8.789-2.462 2.46Z" fill="url(#dg)"/><path d="m27.422 111.8-11.25-11.25 2.461-2.461 8.79 8.789 8.437-8.79 2.461 2.462-10.898 11.25Z" fill="url(#dh)"/><path d="M64.338 91.76 55.9 83.324l-8.79 8.438-2.46-2.461L55.9 78.4l11.25 10.9-2.812 2.46Z" fill="url(#di)"/><path d="m84.377 111.8-11.25-11.25 2.461-2.461 8.79 8.789 8.789-8.79 2.46 2.462-11.25 11.25Z" fill="url(#dj)"/><path d="m100.55 95.628-2.461-2.461 8.789-8.79-8.79-8.789 2.462-2.46 11.25 11.25-11.25 11.25Z" fill="url(#dk)"/><path d="M89.3 67.15 78.048 55.9l11.25-11.25 2.461 2.46-8.79 8.79 8.79 8.789-2.46 2.461Z" fill="url(#dl)"/></g><defs><linearGradient id="da" x1="104.944" y1="16.172" x2="104.944" y2="38.673" gradientUnits="userSpaceOnUse"><stop stop-color="#446381"/><stop offset="1" stop-color="#446381"/></linearGradient><linearGradient id="db" x1="84.377" y1="0" x2="84.377" y2="13.711" gradientUnits="userSpaceOnUse"><stop stop-color="#446381"/><stop offset="1" stop-color="#446381"/></linearGradient><linearGradient id="dc" x1="55.9" y1="19.688" x2="55.9" y2="33.399" gradientUnits="userSpaceOnUse"><stop stop-color="#446381"/><stop offset="1" stop-color="#446381"/></linearGradient><linearGradient id="dd" x1="27.247" y1="0" x2="27.247" y2="13.711" gradientUnits="userSpaceOnUse"><stop stop-color="#446381"/><stop offset="1" stop-color="#446381"/></linearGradient><linearGradient id="de" x1="6.856" y1="16.172" x2="6.856" y2="38.673" gradientUnits="userSpaceOnUse"><stop stop-color="#446381"/><stop offset="1" stop-color="#446381"/></linearGradient><linearGradient id="df" x1="26.544" y1="44.649" x2="26.544" y2="67.15" gradientUnits="userSpaceOnUse"><stop stop-color="#446381"/><stop offset="1" stop-color="#446381"/></linearGradient><linearGradient id="dg" x1="6.856" y1="73.127" x2="6.856" y2="95.628" gradientUnits="userSpaceOnUse"><stop stop-color="#446381"/><stop offset="1" stop-color="#446381"/></linearGradient><linearGradient id="dh" x1="27.247" y1="98.089" x2="27.247" y2="111.8" gradientUnits="userSpaceOnUse"><stop stop-color="#446381"/><stop offset="1" stop-color="#446381"/></linearGradient><linearGradient id="di" x1="55.9" y1="78.401" x2="55.9" y2="91.761" gradientUnits="userSpaceOnUse"><stop stop-color="#446381"/><stop offset="1" stop-color="#446381"/></linearGradient><linearGradient id="dj" x1="84.377" y1="98.089" x2="84.377" y2="111.8" gradientUnits="userSpaceOnUse"><stop stop-color="#446381"/><stop offset="1" stop-color="#446381"/></linearGradient><linearGradient id="dk" x1="104.944" y1="73.127" x2="104.944" y2="95.628" gradientUnits="userSpaceOnUse"><stop stop-color="#446381"/><stop offset="1" stop-color="#446381"/></linearGradient><linearGradient id="dl" x1="84.905" y1="44.649" x2="84.905" y2="67.15" gradientUnits="userSpaceOnUse"><stop stop-color="#446381"/><stop offset="1" stop-color="#446381"/></linearGradient></defs></svg><svg fill="none" viewBox="0 0 118 118" id="hero-cross-2" xmlns="http://www.w3.org/2000/svg"><path d="M28.894 117.8 0 88.906 30.006 58.9 0 28.894 28.894 0 58.9 30.006 88.906 0 117.8 28.894 87.794 58.9 117.8 88.906 88.906 117.8 58.9 87.794 28.894 117.8ZM58.9 82.608l30.006 30.006 23.708-23.708L82.608 58.9l30.006-30.006L88.906 5.186 58.9 35.192 28.894 5.186 5.186 28.894 35.192 58.9 5.186 88.906l23.708 23.708L58.9 82.608Z" fill="url(#ea)" opacity=".5"/><defs><linearGradient id="ea" x1="58.9" y1="0" x2="58.9" y2="117.8" gradientUnits="userSpaceOnUse"><stop stop-color="#EB8382"/><stop offset="1" stop-color="#F4B9B9"/></linearGradient></defs></svg><svg fill="none" viewBox="0 0 123 109" id="hero-dots" xmlns="http://www.w3.org/2000/svg"><g clip-path="url(#fa)" fill="#446381"><path d="M89.821 51.765c-.87-.095-1.452-.535-1.452-1.438-.006-.891.543-1.432 1.427-1.426.82 0 1.339.516 1.383 1.33.05.904-.505 1.381-1.358 1.534Zm1.251-34.334c-.064-.75-.588-1.24-1.345-1.196-.815.044-1.32.592-1.25 1.425.063.751.587 1.152 1.338 1.222.808-.146 1.326-.61 1.257-1.45ZM81.866.146c-.82-.038-1.357.471-1.383 1.299-.019.763.474 1.279 1.219 1.317.827.045 1.282-.484 1.408-1.292-.082-.764-.492-1.285-1.244-1.324Zm6.693 9.419c.038.796.536 1.21 1.306 1.158.714-.044 1.124-.496 1.118-1.215 0-.796-.467-1.197-1.237-1.247-.777.082-1.225.515-1.187 1.304Zm9.18 39.489c-.777.013-1.244.496-1.238 1.273.006.783.486 1.254 1.263 1.247.776-.006 1.187-.496 1.25-1.273-.07-.776-.493-1.253-1.275-1.247Zm9.382-15.134c-.019-.655-.43-1.081-1.074-1.081-.719 0-1.155.458-1.111 1.183.044.643.493.987 1.2 1.044.549-.153 1.004-.477.985-1.146Zm-.979 15.274c-.726-.07-1.187.344-1.237 1.076-.045.668.36 1.107 1.004 1.17.732.077 1.13-.368 1.256-1.056-.038-.68-.373-1.133-1.023-1.19Zm-1.181-23.28c.007.599.405 1.006.985 1.044.663.045 1.105-.369 1.137-1.024.038-.669-.411-1.025-1.055-1.14-.637.096-1.073.446-1.067 1.12Zm-.056 16.051c.006.731.448 1.164 1.174 1.139.65-.026 1.061-.452 1.061-1.114 0-.738-.461-1.101-1.168-1.171-.638.127-1.067.477-1.067 1.145ZM97.84.426c-.65-.044-1.08.363-1.105 1.019-.02.592.372.999.94 1.037.65.045 1.017-.37 1.13-1.044-.081-.553-.39-.973-.965-1.012Zm-9.206.987c-.019.719.385 1.164 1.099 1.19.713.025 1.149-.382 1.18-1.107.032-.726-.397-1.108-1.18-1.229-.594.102-1.086.401-1.099 1.146Zm8.031 8.082c0 .656.41 1.088 1.055 1.107.72.013 1.161-.439 1.13-1.164-.025-.65-.474-.993-1.118-1.063-.637.115-1.067.465-1.067 1.12Zm-.05 7.993c-.032.72.366 1.171 1.08 1.21.713.038 1.155-.37 1.199-1.089.044-.725-.385-1.113-1.067-1.228-.713.038-1.174.382-1.212 1.107Zm8.397.192c.069.578.486.954 1.067.903.638-.057 1.035-.49.953-1.152-.069-.579-.486-.884-1.06-.923-.632.134-1.042.503-.96 1.171Zm1.118-9.076c-.537-.05-.922.191-.985.757-.063.605.208 1.006.846 1.038.549.025.865-.274.928-.828.006-.547-.234-.91-.789-.967Zm.719-7.019c.082-.548-.221-.91-.757-.968-.48-.05-.815.242-.884.707-.082.553.233.865.745.98.492-.007.827-.248.896-.72Zm8.05 32.45c.044-.541-.195-.93-.757-.986-.607-.064-.998.216-1.023.865-.019.554.278.872.821.93.555 0 .909-.249.959-.81Zm-.808 7.051c-.543-.038-.915.223-.966.783-.051.611.24 1 .878 1.012.555.013.852-.3.909-.93-.025-.464-.259-.833-.821-.865Zm.745-23.426c.063-.547-.24-.903-.789-.942-.486-.038-.808.268-.865.732-.063.548.259.86.776.961.499-.025.827-.286.878-.75Zm-.77 31.757c-.543-.026-.903.242-.941.802-.044.617.265.986.903.986.555 0 .846-.318.884-.884-.019-.535-.284-.872-.846-.904Zm.808-23.56c-.013-.503-.291-.808-.783-.84-.556-.038-.909.248-.935.821-.025.573.291.872.929.93.46-.065.801-.325.789-.91Zm-1.597-16.4c-.032.433.252.738.656.776.486.045.808-.26.808-.757-.006-.42-.303-.662-.77-.732-.36.077-.663.287-.694.713Zm8.675 33.265c.429.032.732-.255.77-.662.044-.49-.259-.815-.752-.815-.416.007-.656.306-.719.726.044.426.284.713.701.75Zm.119 6.86c-.429-.057-.738.223-.795.624-.07.49.227.82.713.846.423.02.663-.28.752-.706-.026-.42-.266-.713-.67-.764ZM113.99.872c-.316.006-.524.184-.556.503-.031.375.139.636.531.661.385.026.593-.178.631-.579-.025-.381-.215-.598-.606-.585Zm7.936 24.431c-.322.026-.492.23-.505.548-.012.388.19.617.581.61.392 0 .575-.228.581-.604-.051-.4-.278-.585-.657-.554Zm.688 8.732c.045-.44-.157-.725-.625-.732-.385 0-.599.21-.618.598-.019.388.176.605.606.669.322 0 .6-.14.637-.535Zm-31.461-.045c.026-.884-.511-1.444-1.395-1.45-.814-.007-1.338.521-1.37 1.336-.032.897.537 1.362 1.376 1.489.815-.12 1.37-.554 1.39-1.375Zm-2.74-8.196c-.063.82.442 1.387 1.231 1.457.878.083 1.453-.465 1.484-1.343.032-.82-.518-1.266-1.307-1.425-.795.076-1.345.502-1.408 1.31Zm9.3-1.134c-.713.02-1.142.446-1.168 1.159-.025.783.404 1.266 1.187 1.286.783.019 1.194-.446 1.257-1.229-.076-.783-.493-1.234-1.276-1.215Zm1.294 17.336c.007-.782-.46-1.266-1.237-1.273-.776-.012-1.256.465-1.263 1.248-.012.783.461 1.209 1.276 1.298.726-.083 1.218-.483 1.224-1.273Zm-1.262-9.323c-.777.013-1.244.49-1.238 1.273.007.783.486 1.254 1.263 1.247.777-.006 1.187-.496 1.25-1.273-.075-.782-.499-1.253-1.275-1.247ZM83.154 9.54c.025-.821-.492-1.368-1.288-1.407-.877-.038-1.44.516-1.433 1.4.006.815.562 1.254 1.357 1.375.79-.114 1.339-.547 1.364-1.368ZM72.42 1.387c-.025.891.506 1.451 1.39 1.458.808.013 1.338-.51 1.376-1.324C75.224.624 74.662.16 73.74.02c-.713.147-1.294.541-1.32 1.368Zm18.733 40.705c.063-.885-.467-1.47-1.344-1.502-.878-.026-1.427.534-1.421 1.425.006.822.55 1.26 1.338 1.394.815-.082 1.37-.509 1.427-1.317ZM81.74 16.133c-.815.025-1.332.54-1.358 1.355-.025.891.5 1.451 1.383 1.47.897.02 1.345-.553 1.459-1.425-.127-.866-.588-1.425-1.484-1.4Zm.095 8.299c-.897-.02-1.446.464-1.484 1.374-.038.974.486 1.534 1.465 1.534.909 0 1.357-.554 1.44-1.445-.07-.89-.512-1.444-1.421-1.463ZM73.854 8.05c-.972-.012-1.515.535-1.484 1.515.026.91.562 1.407 1.465 1.394.91-.013 1.358-.547 1.446-1.521-.101-.796-.511-1.375-1.427-1.387ZM65.514 0c-.903.02-1.421.535-1.421 1.445 0 .986.568 1.508 1.534 1.463.91-.044 1.332-.617 1.37-1.527-.107-.878-.58-1.4-1.483-1.381Zm16.301 40.488c-.89-.019-1.445.458-1.502 1.362-.063.955.404 1.572 1.382 1.623.96.05 1.497-.465 1.598-1.432-.044-.961-.499-1.54-1.478-1.553Zm-1.477-6.746c-.088.961.354 1.585 1.339 1.661.884.07 1.477-.369 1.572-1.285.1-.968-.373-1.534-1.351-1.687-.859.026-1.478.388-1.56 1.311Zm1.427 15.077c-.897.006-1.427.509-1.459 1.412-.037.968.461 1.547 1.434 1.579.972.025 1.477-.516 1.547-1.483-.057-.961-.55-1.515-1.522-1.508ZM72.32 17.526c-.013.898.46 1.458 1.357 1.515.947.064 1.56-.413 1.61-1.4.05-.967-.46-1.508-1.42-1.604-.96.039-1.528.503-1.547 1.49Zm-6.667-9.539c-.948-.064-1.56.42-1.623 1.394-.063.954.417 1.572 1.383 1.635.947.064 1.515-.426 1.641-1.4 0-.942-.43-1.565-1.401-1.63Zm9.723 17.991c.044-.993-.562-1.648-1.547-1.674-.922-.025-1.54.573-1.591 1.49-.05.999.568 1.559 1.547 1.699.915-.096 1.546-.599 1.59-1.515Zm-1.566 6.345c-.916-.013-1.54.585-1.604 1.495-.063 1 .543 1.668 1.515 1.725.985.057 1.541-.585 1.711-1.584-.107-.968-.63-1.623-1.622-1.636Zm-8.24-16.432c-.984.038-1.572.61-1.679 1.585-.1.878.796 1.8 1.673 1.73.979-.076 1.503-.687 1.623-1.578.006-.916-.783-1.769-1.617-1.737Zm8.278 32.769c-.985.031-1.572.604-1.692 1.578-.101.872.795 1.8 1.667 1.737.978-.076 1.502-.68 1.629-1.572.012-.916-.77-1.769-1.604-1.743Zm-.076-5.034c.979.019 1.572-.605 1.68-1.579.094-.878-.802-1.8-1.68-1.724-.979.082-1.503.687-1.629 1.66.126.968.65 1.623 1.629 1.643ZM63.86 25.889c-.006.986.606 1.63 1.572 1.68 1.048.057 1.724-.566 1.774-1.616.05-1.063-.618-1.623-1.641-1.789-1.023.128-1.692.662-1.705 1.725Zm1.629 6.345c-1.042.038-1.673.7-1.642 1.75.032 1.05.688 1.68 1.737 1.655 1.048-.026 1.572-.72 1.679-1.757-.17-1.018-.72-1.686-1.774-1.648Zm.044 8.031c-1.055.007-1.648.624-1.711 1.68a1.668 1.668 0 0 0 1.78 1.763c1.06-.076 1.578-.719 1.667-1.775-.133-1.019-.67-1.68-1.736-1.668ZM63.822 50.27c.012 1.062.58 1.686 1.629 1.775a1.667 1.667 0 0 0 1.793-1.744c-.045-1.075-.67-1.603-1.516-1.712-1.13-.012-1.913.726-1.906 1.68Z"/></g><g clip-path="url(#fb)" fill="#446381"><path d="M32.92 51.765c.87-.095 1.451-.535 1.451-1.438.007-.891-.543-1.432-1.427-1.426-.82 0-1.338.516-1.382 1.33-.05.904.505 1.381 1.357 1.534Zm-1.25-34.334c.062-.75.586-1.24 1.344-1.196.814.044 1.32.592 1.25 1.425-.063.751-.587 1.152-1.338 1.222-.809-.146-1.326-.61-1.257-1.45ZM40.875.146c.82-.038 1.357.471 1.382 1.299.02.763-.473 1.279-1.218 1.317-.827.045-1.282-.484-1.408-1.292.082-.764.492-1.285 1.244-1.324Zm-6.693 9.419c-.038.796-.537 1.21-1.307 1.158-.713-.044-1.124-.496-1.117-1.215 0-.796.467-1.197 1.237-1.247.777.082 1.225.515 1.187 1.304Zm-9.18 39.489c.777.013 1.244.496 1.237 1.273-.006.783-.486 1.254-1.262 1.247-.777-.006-1.187-.496-1.25-1.273.07-.776.492-1.253 1.275-1.247ZM15.62 33.92c.019-.655.43-1.081 1.073-1.081.72 0 1.155.458 1.111 1.183-.044.643-.492.987-1.2 1.044-.549-.153-1.003-.477-.984-1.146Zm.978 15.274c.726-.07 1.187.344 1.238 1.076.044.668-.36 1.107-1.004 1.17-.732.077-1.13-.368-1.257-1.056.038-.68.373-1.133 1.023-1.19Zm1.182-23.28c-.007.599-.405 1.006-.986 1.044-.663.045-1.105-.369-1.136-1.024-.038-.669.41-1.025 1.054-1.14.638.096 1.073.446 1.067 1.12Zm.056 16.051c-.006.731-.448 1.164-1.174 1.139-.65-.026-1.061-.452-1.061-1.114 0-.738.46-1.101 1.168-1.171.638.127 1.067.477 1.067 1.145ZM24.9.426c.651-.044 1.08.363 1.106 1.019.019.592-.373.999-.941 1.037-.65.045-1.017-.37-1.13-1.044.082-.553.391-.973.966-1.012Zm9.206.987c.02.719-.385 1.164-1.098 1.19-.714.025-1.15-.382-1.18-1.107-.032-.726.397-1.108 1.18-1.229.593.102 1.086.401 1.098 1.146Zm-8.031 8.082c0 .656-.41 1.088-1.054 1.107-.72.013-1.162-.439-1.13-1.164.025-.65.473-.993 1.117-1.063.638.115 1.067.465 1.067 1.12Zm.051 7.993c.031.72-.367 1.171-1.08 1.21-.713.038-1.155-.37-1.2-1.089-.044-.725.386-1.113 1.067-1.228.714.038 1.175.382 1.213 1.107Zm-8.397.192c-.07.578-.487.954-1.067.903-.638-.057-1.036-.49-.954-1.152.07-.579.486-.884 1.06-.923.632.134 1.043.503.96 1.171Zm-1.118-9.076c.537-.05.922.191.985.757.063.605-.208 1.006-.846 1.038-.55.025-.865-.274-.928-.828-.006-.547.233-.91.79-.967Zm-.72-7.019c-.082-.548.221-.91.758-.968.48-.05.814.242.884.707.082.553-.234.865-.745.98-.492-.007-.827-.248-.897-.72Zm-8.05 32.45c-.044-.541.196-.93.758-.986.606-.064.998.216 1.023.865.019.554-.278.872-.82.93-.556 0-.91-.249-.96-.81Zm.809 7.051c.542-.038.915.223.965.783.051.611-.24 1-.877 1.012-.556.013-.852-.3-.91-.93.026-.464.26-.833.821-.865ZM7.905 17.66c-.064-.547.24-.903.789-.942.486-.038.808.268.865.732.063.548-.26.86-.777.961-.499-.025-.827-.286-.877-.75Zm.77 31.757c.543-.026.903.242.94.802.045.617-.265.986-.902.986-.556 0-.846-.318-.884-.884.019-.535.284-.872.846-.904Zm-.808-23.56c.012-.503.29-.808.783-.84.555-.038.909.248.934.821.025.573-.29.872-.928.93-.461-.065-.802-.325-.79-.91Zm1.597-16.4c.031.433-.253.738-.657.776-.486.045-.808-.26-.808-.757.006-.42.303-.662.77-.732.36.077.663.287.695.713ZM.789 42.722c-.43.032-.732-.255-.77-.662-.045-.49.259-.815.751-.815.417.007.657.306.72.726-.044.426-.284.713-.701.75Zm-.119 6.86c.428-.057.738.223.795.624.069.49-.228.82-.714.846-.423.02-.663-.28-.751-.706.025-.42.265-.713.67-.764ZM8.75.872c.316.006.525.184.556.503.032.375-.139.636-.53.661-.385.026-.594-.178-.632-.579.026-.381.215-.598.607-.585ZM.814 25.303c.322.026.493.23.505.548.013.388-.19.617-.58.61-.392 0-.575-.228-.581-.604.05-.4.277-.585.656-.554Zm-.688 8.732c-.044-.44.158-.725.625-.732.385 0 .6.21.619.598.019.388-.177.605-.606.668-.322 0-.6-.14-.638-.534Zm31.461-.045c-.025-.884.512-1.444 1.395-1.45.815-.007 1.339.521 1.37 1.336.032.897-.536 1.362-1.376 1.489-.814-.12-1.37-.554-1.389-1.375Zm2.74-8.196c.063.82-.442 1.387-1.231 1.457-.878.083-1.452-.465-1.484-1.343-.031-.82.518-1.266 1.307-1.425.796.076 1.345.502 1.408 1.31Zm-9.3-1.134c.714.02 1.143.446 1.168 1.159.026.783-.404 1.266-1.187 1.286-.783.019-1.193-.446-1.256-1.229.076-.783.492-1.234 1.275-1.215Zm-1.294 17.336c-.006-.782.46-1.266 1.237-1.273.777-.012 1.257.465 1.263 1.248.013.783-.46 1.209-1.275 1.298-.726-.083-1.219-.483-1.225-1.273Zm1.263-9.323c.776.013 1.243.49 1.237 1.273-.006.783-.486 1.254-1.263 1.247-.776-.006-1.187-.496-1.25-1.273.076-.782.499-1.253 1.276-1.247ZM39.586 9.54c-.025-.821.493-1.368 1.288-1.407.878-.038 1.44.516 1.434 1.4-.007.815-.562 1.254-1.358 1.375-.79-.114-1.338-.547-1.364-1.368ZM50.32 1.387c.025.891-.505 1.451-1.39 1.458-.807.013-1.338-.51-1.376-1.324C47.516.624 48.078.16 49 .02c.714.147 1.294.541 1.32 1.368ZM31.587 42.092c-.063-.885.467-1.47 1.345-1.502.877-.026 1.427.534 1.42 1.425-.006.822-.549 1.26-1.338 1.394-.815-.082-1.37-.509-1.427-1.317ZM41 16.133c.815.025 1.333.54 1.358 1.355.026.891-.498 1.451-1.382 1.47-.897.02-1.345-.553-1.459-1.425.126-.866.587-1.425 1.484-1.4Zm-.094 8.299c.897-.02 1.446.464 1.484 1.374.038.974-.486 1.534-1.465 1.534-.91 0-1.357-.554-1.44-1.445.07-.89.512-1.444 1.421-1.463ZM48.887 8.05c.972-.012 1.515.535 1.483 1.515-.025.91-.562 1.407-1.464 1.394-.91-.013-1.358-.547-1.446-1.521.1-.796.511-1.375 1.427-1.387ZM57.227 0c.903.02 1.42.535 1.42 1.445 0 .986-.568 1.508-1.534 1.463-.909-.044-1.332-.617-1.37-1.527.107-.878.581-1.4 1.484-1.381ZM40.925 40.488c.89-.019 1.446.458 1.503 1.362.063.955-.404 1.572-1.383 1.623-.96.05-1.496-.465-1.597-1.432.044-.961.498-1.54 1.477-1.553Zm1.477-6.746c.089.961-.353 1.585-1.338 1.661-.884.07-1.478-.369-1.572-1.285-.101-.968.372-1.534 1.35-1.687.86.026 1.478.388 1.56 1.311Zm-1.426 15.077c.896.006 1.427.509 1.458 1.412.038.968-.46 1.547-1.433 1.579-.972.025-1.478-.516-1.547-1.483.057-.961.55-1.515 1.522-1.508Zm9.444-31.292c.013.897-.46 1.457-1.357 1.514-.947.064-1.56-.413-1.61-1.4-.05-.967.461-1.508 1.42-1.603.96.038 1.529.502 1.548 1.489Zm6.668-9.54c.947-.064 1.56.42 1.623 1.394.063.954-.417 1.572-1.383 1.635-.947.064-1.515-.426-1.642-1.4 0-.942.43-1.565 1.402-1.63Zm-9.723 17.991c-.044-.993.562-1.648 1.547-1.674.922-.025 1.54.573 1.59 1.49.051.999-.568 1.559-1.546 1.699-.916-.096-1.547-.599-1.591-1.515Zm1.565 6.345c.916-.013 1.541.585 1.604 1.495.063 1-.543 1.668-1.515 1.725-.985.057-1.54-.585-1.711-1.584.107-.968.631-1.623 1.623-1.636Zm8.24-16.432c.985.038 1.572.61 1.68 1.585.1.878-.796 1.8-1.674 1.73-.978-.076-1.502-.687-1.622-1.578-.007-.916.782-1.769 1.616-1.737ZM48.893 48.66c.985.031 1.572.604 1.692 1.578.101.872-.796 1.8-1.667 1.737-.978-.076-1.502-.68-1.629-1.572-.012-.916.77-1.769 1.604-1.743Zm.075-5.034c-.978.019-1.572-.605-1.679-1.579-.095-.878.802-1.8 1.68-1.724.978.082 1.502.687 1.628 1.66-.126.968-.65 1.623-1.629 1.643Zm9.912-17.737c.007.986-.606 1.63-1.572 1.68-1.048.057-1.723-.566-1.774-1.616-.05-1.063.619-1.623 1.642-1.789 1.022.128 1.692.662 1.704 1.725Zm-1.628 6.345c1.041.038 1.673.7 1.641 1.75-.031 1.05-.688 1.68-1.736 1.655-1.048-.026-1.572-.72-1.68-1.757.17-1.018.72-1.686 1.775-1.648Zm-.044 8.031c1.054.007 1.648.624 1.71 1.68a1.668 1.668 0 0 1-1.78 1.763c-1.06-.076-1.578-.719-1.667-1.775.133-1.019.67-1.68 1.737-1.668Zm1.711 10.005c-.013 1.062-.58 1.686-1.629 1.775a1.667 1.667 0 0 1-1.793-1.744c.044-1.075.67-1.603 1.515-1.712 1.13-.012 1.913.726 1.907 1.68Z"/></g><g clip-path="url(#fc)" fill="#446381"><path d="M89.821 57.227c-.87.096-1.452.535-1.452 1.439-.006.89.543 1.432 1.427 1.425.82 0 1.339-.515 1.383-1.33.05-.903-.505-1.38-1.358-1.534Zm1.251 34.334c-.064.751-.588 1.241-1.345 1.197-.815-.045-1.32-.592-1.25-1.426.063-.75.587-1.151 1.338-1.221.808.146 1.326.61 1.257 1.45Zm-9.206 17.285c-.82.038-1.357-.471-1.383-1.298-.019-.764.474-1.279 1.219-1.317.827-.045 1.282.483 1.408 1.292-.082.763-.492 1.285-1.244 1.323Zm6.693-9.419c.038-.795.536-1.209 1.306-1.158.714.045 1.124.497 1.118 1.216 0 .795-.467 1.196-1.237 1.247-.777-.083-1.225-.515-1.187-1.305Zm9.18-39.489c-.777-.012-1.244-.496-1.238-1.272.006-.783.486-1.254 1.263-1.248.776.007 1.187.497 1.25 1.273-.07.777-.493 1.254-1.275 1.247Zm9.382 15.134c-.019.656-.43 1.082-1.074 1.082-.719 0-1.155-.458-1.111-1.183.044-.643.493-.987 1.2-1.044.549.152 1.004.477.985 1.145Zm-.979-15.273c-.726.07-1.187-.344-1.237-1.076-.045-.668.36-1.107 1.004-1.17.732-.077 1.13.368 1.256 1.056-.038.68-.373 1.132-1.023 1.19Zm-1.181 23.279c.007-.598.405-1.005.985-1.043.663-.045 1.105.369 1.137 1.024.038.668-.411 1.025-1.055 1.14-.637-.096-1.073-.446-1.067-1.12Zm-.056-16.05c.006-.732.448-1.165 1.174-1.139.65.026 1.061.452 1.061 1.114 0 .738-.461 1.1-1.168 1.17-.638-.127-1.067-.477-1.067-1.145Zm-7.065 41.538c-.65.045-1.08-.362-1.105-1.018-.02-.592.372-.999.94-1.037.65-.045 1.017.369 1.13 1.043-.081.554-.39.974-.965 1.012Zm-9.206-.986c-.019-.719.385-1.165 1.099-1.19.713-.026 1.149.382 1.18 1.107.032.726-.397 1.107-1.18 1.228-.594-.101-1.086-.401-1.099-1.145Zm8.031-8.082c0-.656.41-1.089 1.055-1.108.72-.013 1.161.44 1.13 1.165-.025.649-.474.993-1.118 1.063-.637-.115-1.067-.465-1.067-1.12Zm-.05-7.994c-.032-.719.366-1.17 1.08-1.209.713-.038 1.155.37 1.199 1.088.044.726-.385 1.114-1.067 1.229-.713-.039-1.174-.382-1.212-1.108Zm8.397-.191c.069-.579.486-.954 1.067-.903.638.057 1.035.49.953 1.152-.069.579-.486.884-1.06.922-.632-.133-1.042-.502-.96-1.17Zm1.118 9.075c-.537.051-.922-.191-.985-.757-.063-.605.208-1.005.846-1.037.549-.026.865.273.928.827.006.547-.234.91-.789.967Zm.719 7.02c.082.547-.221.91-.757.967-.48.051-.815-.241-.884-.706-.082-.554.233-.866.745-.98.492.006.827.248.896.719Zm8.05-32.45c.044.54-.195.929-.757.986-.607.064-.998-.216-1.023-.865-.019-.554.278-.872.821-.93.555 0 .909.249.959.809Zm-.808-7.052c-.543.039-.915-.222-.966-.782-.051-.611.24-1 .878-1.012.555-.013.852.299.909.929-.025.464-.259.834-.821.865Zm.745 23.426c.063.548-.24.904-.789.942-.486.038-.808-.267-.865-.732-.063-.547.259-.859.776-.96.499.025.827.286.878.75Zm-.77-31.756c-.543.025-.903-.242-.941-.802-.044-.617.265-.986.903-.986.555 0 .846.318.884.884-.019.535-.284.872-.846.904Zm.808 23.56c-.013.502-.291.808-.783.84-.556.038-.909-.249-.935-.821-.025-.573.291-.872.929-.93.46.064.801.325.789.91Zm-1.597 16.4c-.032-.433.252-.739.656-.777.486-.044.808.261.808.757-.006.42-.303.662-.77.732-.36-.076-.663-.286-.694-.712Zm8.675-33.266c.429-.031.732.255.77.663.044.49-.259.814-.752.814-.416-.006-.656-.305-.719-.725.044-.427.284-.713.701-.751Zm.119-6.86c-.429.058-.738-.222-.795-.623-.07-.49.227-.821.713-.847.423-.019.663.28.752.707-.026.42-.266.712-.67.763Zm-8.081 48.711c-.316-.007-.524-.185-.556-.503-.031-.375.139-.636.531-.662.385-.025.593.178.631.579-.025.382-.215.599-.606.586Zm7.936-24.431c-.322-.026-.492-.23-.505-.548-.012-.388.19-.617.581-.611.392 0 .575.23.581.605-.051.4-.278.585-.657.553Zm.688-8.732c.045.439-.157.725-.625.732-.385 0-.599-.21-.618-.599-.019-.388.176-.604.606-.668.322 0 .6.14.637.535Zm-31.461.044c.026.885-.511 1.445-1.395 1.451-.814.007-1.338-.522-1.37-1.336-.032-.898.537-1.362 1.376-1.49.815.122 1.37.554 1.39 1.375Zm-2.74 8.198c-.063-.822.442-1.388 1.231-1.458.878-.083 1.453.464 1.484 1.343.032.82-.518 1.266-1.307 1.425-.795-.076-1.345-.503-1.408-1.31Zm9.3 1.132c-.713-.02-1.142-.445-1.168-1.158-.025-.783.404-1.267 1.187-1.286.783-.019 1.194.446 1.257 1.228-.076.783-.493 1.235-1.276 1.216Zm1.294-17.336c.007.783-.46 1.267-1.237 1.273-.776.013-1.256-.464-1.263-1.247-.012-.783.461-1.21 1.276-1.299.726.083 1.218.484 1.224 1.273Zm-1.262 9.324c-.777-.013-1.244-.49-1.238-1.273.007-.783.486-1.254 1.263-1.248.777.007 1.187.497 1.25 1.273-.075.783-.499 1.254-1.275 1.248ZM83.154 99.453c.025.821-.492 1.368-1.288 1.406-.877.039-1.44-.515-1.433-1.4.006-.814.562-1.254 1.357-1.374.79.114 1.339.547 1.364 1.368Zm-10.734 8.152c-.025-.891.506-1.451 1.39-1.457.808-.013 1.338.509 1.376 1.324.038.897-.524 1.362-1.446 1.502-.713-.147-1.294-.541-1.32-1.369ZM91.153 66.9c.063.885-.467 1.47-1.344 1.503-.878.025-1.427-.535-1.421-1.426.006-.82.55-1.26 1.338-1.394.815.083 1.37.51 1.427 1.318ZM81.74 92.86c-.815-.026-1.332-.541-1.358-1.356-.025-.89.5-1.45 1.383-1.47.897-.019 1.345.554 1.459 1.426-.127.865-.588 1.425-1.484 1.4Zm.095-8.299c-.897.02-1.446-.465-1.484-1.375-.038-.973.486-1.533 1.465-1.533.909 0 1.357.553 1.44 1.444-.07.891-.512 1.445-1.421 1.464Zm-7.981 16.381c-.972.013-1.515-.534-1.484-1.514.026-.91.562-1.407 1.465-1.394.91.012 1.358.547 1.446 1.52-.101.796-.511 1.375-1.427 1.388Zm-8.34 8.051c-.903-.019-1.421-.535-1.421-1.445 0-.986.568-1.508 1.534-1.464.91.045 1.332.618 1.37 1.528-.107.878-.58 1.4-1.483 1.381Zm16.301-40.488c-.89.019-1.445-.459-1.502-1.362-.063-.955.404-1.572 1.382-1.623.96-.051 1.497.464 1.598 1.432-.044.96-.499 1.54-1.478 1.553Zm-1.477 6.745c-.088-.96.354-1.584 1.339-1.66.884-.07 1.477.369 1.572 1.285.1.967-.373 1.534-1.351 1.686-.859-.025-1.478-.388-1.56-1.31Zm1.427-15.076c-.897-.006-1.427-.51-1.459-1.413-.037-.967.461-1.546 1.434-1.578.972-.026 1.477.515 1.547 1.483-.057.96-.55 1.514-1.522 1.508ZM72.32 91.466c-.013-.897.46-1.457 1.357-1.515.947-.063 1.56.414 1.61 1.4.05.968-.46 1.509-1.42 1.604-.96-.038-1.528-.503-1.547-1.489Zm-6.667 9.54c-.948.063-1.56-.42-1.623-1.394-.063-.954.417-1.572 1.383-1.635.947-.064 1.515.426 1.641 1.4 0 .941-.43 1.565-1.401 1.629Zm9.723-17.991c.044.992-.562 1.648-1.547 1.673-.922.026-1.54-.573-1.591-1.489-.05-.999.568-1.56 1.547-1.7.915.096 1.546.6 1.59 1.516ZM73.81 76.67c-.916.013-1.54-.586-1.604-1.496-.063-.999.543-1.667 1.515-1.725.985-.057 1.541.586 1.711 1.585-.107.967-.63 1.623-1.622 1.636Zm-8.24 16.432c-.984-.038-1.572-.611-1.679-1.585-.1-.878.796-1.801 1.673-1.731.979.076 1.503.687 1.623 1.578.006.917-.783 1.77-1.617 1.738Zm8.278-32.769c-.985-.032-1.572-.604-1.692-1.578-.101-.872.795-1.801 1.667-1.738.978.077 1.502.681 1.629 1.572.012.917-.77 1.77-1.604 1.744Zm-.076 5.034c.979-.019 1.572.605 1.68 1.578.094.879-.802 1.801-1.68 1.725-.979-.083-1.503-.687-1.629-1.661.126-.967.65-1.623 1.629-1.642ZM63.86 83.104c-.006-.987.606-1.63 1.572-1.68 1.048-.058 1.724.566 1.774 1.616.05 1.063-.618 1.623-1.641 1.788-1.023-.127-1.692-.662-1.705-1.724Zm1.629-6.345c-1.042-.038-1.673-.7-1.642-1.75.032-1.05.688-1.68 1.737-1.655 1.048.025 1.572.72 1.679 1.756-.17 1.019-.72 1.687-1.774 1.649Zm.044-8.032c-1.055-.006-1.648-.623-1.711-1.68a1.668 1.668 0 0 1 1.78-1.763c1.06.077 1.578.72 1.667 1.776-.133 1.018-.67 1.68-1.736 1.667Zm-1.711-10.004c.012-1.063.58-1.686 1.629-1.776a1.667 1.667 0 0 1 1.793 1.744c-.045 1.076-.67 1.604-1.516 1.712-1.13.013-1.913-.725-1.906-1.68Z"/></g><g clip-path="url(#fd)" fill="#446381"><path d="M32.92 57.227c.87.096 1.451.535 1.451 1.439.007.89-.543 1.432-1.427 1.425-.82 0-1.338-.515-1.382-1.33-.05-.903.505-1.38 1.357-1.534Zm-1.25 34.334c.062.751.586 1.241 1.344 1.197.814-.045 1.32-.592 1.25-1.426-.063-.75-.587-1.151-1.338-1.221-.809.146-1.326.61-1.257 1.45Zm9.205 17.285c.82.038 1.357-.471 1.382-1.298.02-.764-.473-1.279-1.218-1.317-.827-.045-1.282.483-1.408 1.292.082.763.492 1.285 1.244 1.323Zm-6.693-9.419c-.038-.795-.537-1.209-1.307-1.158-.713.045-1.124.497-1.117 1.216 0 .795.467 1.196 1.237 1.247.777-.083 1.225-.515 1.187-1.305Zm-9.18-39.489c.777-.012 1.244-.496 1.237-1.272-.006-.783-.486-1.254-1.262-1.248-.777.007-1.187.497-1.25 1.273.07.777.492 1.254 1.275 1.247ZM15.62 75.072c.019.656.43 1.082 1.073 1.082.72 0 1.155-.458 1.111-1.183-.044-.643-.492-.987-1.2-1.044-.549.152-1.003.477-.984 1.145Zm.978-15.273c.726.07 1.187-.344 1.238-1.076.044-.668-.36-1.107-1.004-1.17-.732-.077-1.13.368-1.257 1.056.038.68.373 1.132 1.023 1.19Zm1.182 23.279c-.007-.598-.405-1.005-.986-1.043-.663-.045-1.105.369-1.136 1.024-.038.668.41 1.025 1.054 1.14.638-.096 1.073-.446 1.067-1.12Zm.056-16.05c-.006-.732-.448-1.165-1.174-1.139-.65.026-1.061.452-1.061 1.114 0 .738.46 1.1 1.168 1.17.638-.127 1.067-.477 1.067-1.145Zm7.064 41.538c.651.045 1.08-.362 1.106-1.018.019-.592-.373-.999-.941-1.037-.65-.045-1.017.369-1.13 1.043.082.554.391.974.966 1.012Zm9.206-.986c.02-.719-.385-1.165-1.098-1.19-.714-.026-1.15.382-1.18 1.107-.032.726.397 1.107 1.18 1.228.593-.101 1.086-.401 1.098-1.145Zm-8.031-8.082c0-.656-.41-1.089-1.054-1.108-.72-.013-1.162.44-1.13 1.165.025.649.473.993 1.117 1.063.638-.115 1.067-.465 1.067-1.12Zm.051-7.994c.031-.719-.367-1.17-1.08-1.209-.713-.038-1.155.37-1.2 1.088-.044.726.386 1.114 1.067 1.229.714-.039 1.175-.382 1.213-1.108Zm-8.397-.191c-.07-.579-.487-.954-1.067-.903-.638.057-1.036.49-.954 1.152.07.579.486.884 1.06.922.632-.133 1.043-.502.96-1.17Zm-1.118 9.075c.537.051.922-.191.985-.757.063-.605-.208-1.005-.846-1.037-.55-.026-.865.273-.928.827-.006.547.233.91.79.967Zm-.72 7.02c-.082.547.221.91.758.967.48.051.814-.241.884-.706.082-.554-.234-.866-.745-.98-.492.006-.827.248-.897.719Zm-8.05-32.45c-.044.54.196.929.758.986.606.064.998-.216 1.023-.865.019-.554-.278-.872-.82-.93-.556 0-.91.249-.96.809Zm.809-7.052c.542.039.915-.222.965-.782.051-.611-.24-1-.877-1.012-.556-.013-.852.299-.91.929.026.464.26.834.821.865Zm-.745 23.426c-.064.548.24.904.789.942.486.039.808-.267.865-.731.063-.548-.26-.86-.777-.962-.499.026-.827.287-.877.751Zm.77-31.756c.543.025.903-.242.94-.802.045-.617-.265-.986-.902-.986-.556 0-.846.318-.884.884.019.535.284.872.846.904Zm-.808 23.56c.012.502.29.808.783.84.555.038.909-.249.934-.821.025-.573-.29-.872-.928-.93-.461.064-.802.325-.79.91Zm1.597 16.4c.031-.433-.253-.739-.657-.777-.486-.044-.808.261-.808.757.006.42.303.662.77.732.36-.076.663-.286.695-.712ZM.789 66.27c-.43-.031-.732.255-.77.663-.045.49.259.814.751.814.417-.006.657-.305.72-.725-.044-.427-.284-.713-.701-.751ZM.67 59.41c.428.058.738-.222.795-.623.069-.49-.228-.821-.714-.847-.423-.019-.663.28-.751.707.025.42.265.712.67.763Zm8.08 48.711c.316-.007.525-.185.556-.503.032-.375-.139-.636-.53-.662-.385-.025-.594.178-.632.579.026.382.215.599.607.586ZM.814 83.69c.322-.026.493-.23.505-.548.013-.388-.19-.617-.58-.611-.392 0-.575.23-.581.605.05.4.277.585.656.553Zm-.688-8.732c-.044.439.158.725.625.732.385 0 .6-.21.619-.599.019-.388-.177-.604-.606-.668-.322 0-.6.14-.638.535Zm31.461.044c-.025.885.512 1.445 1.395 1.451.815.007 1.339-.522 1.37-1.336.032-.898-.536-1.362-1.376-1.49-.814.122-1.37.554-1.389 1.375Zm2.74 8.198c.063-.822-.442-1.388-1.231-1.458-.878-.083-1.452.464-1.484 1.343-.031.82.518 1.266 1.307 1.425.796-.076 1.345-.503 1.408-1.31Zm-9.3 1.132c.714-.02 1.143-.445 1.168-1.158.026-.783-.404-1.267-1.187-1.286-.783-.019-1.193.446-1.256 1.228.076.783.492 1.235 1.275 1.216Zm-1.294-17.336c-.006.783.46 1.267 1.237 1.273.777.013 1.257-.464 1.263-1.247.013-.783-.46-1.21-1.275-1.299-.726.083-1.219.484-1.225 1.273Zm1.263 9.324c.776-.013 1.243-.49 1.237-1.273-.006-.783-.486-1.254-1.263-1.248-.776.007-1.187.497-1.25 1.273.076.783.499 1.254 1.276 1.248Zm14.59 23.133c-.025.821.493 1.368 1.288 1.406.878.039 1.44-.515 1.434-1.4-.007-.814-.562-1.254-1.358-1.374-.79.114-1.338.547-1.364 1.368Zm10.734 8.152c.025-.891-.505-1.451-1.39-1.457-.807-.013-1.338.509-1.376 1.324-.038.897.524 1.362 1.446 1.502.714-.147 1.294-.541 1.32-1.369ZM31.587 66.9c-.063.885.467 1.47 1.345 1.503.877.025 1.427-.535 1.42-1.426-.006-.82-.549-1.26-1.338-1.394-.815.083-1.37.51-1.427 1.318ZM41 92.86c.815-.026 1.333-.541 1.358-1.356.026-.89-.498-1.45-1.382-1.47-.897-.019-1.345.554-1.459 1.426.126.865.587 1.425 1.484 1.4Zm-.094-8.299c.897.02 1.446-.465 1.484-1.375.038-.973-.486-1.533-1.465-1.533-.91 0-1.357.553-1.44 1.444.07.891.512 1.445 1.421 1.464Zm7.981 16.381c.972.013 1.515-.534 1.483-1.514-.025-.91-.562-1.407-1.464-1.394-.91.012-1.358.547-1.446 1.52.1.796.511 1.375 1.427 1.388Zm8.34 8.051c.903-.019 1.42-.535 1.42-1.445 0-.986-.568-1.508-1.534-1.464-.909.045-1.332.618-1.37 1.528.107.878.581 1.4 1.484 1.381ZM40.925 68.505c.89.019 1.446-.459 1.503-1.362.063-.955-.404-1.572-1.383-1.623-.96-.051-1.496.464-1.597 1.432.044.96.498 1.54 1.477 1.553Zm1.477 6.745c.089-.96-.353-1.584-1.338-1.66-.884-.07-1.478.369-1.572 1.285-.101.967.372 1.534 1.35 1.686.86-.025 1.478-.388 1.56-1.31Zm-1.426-15.076c.896-.006 1.427-.51 1.458-1.413.038-.967-.46-1.546-1.433-1.578-.972-.026-1.478.515-1.547 1.483.057.96.55 1.514 1.522 1.508Zm9.444 31.292c.013-.897-.46-1.457-1.357-1.514-.947-.064-1.56.413-1.61 1.4-.05.967.461 1.508 1.42 1.603.96-.038 1.529-.502 1.548-1.489Zm6.668 9.54c.947.063 1.56-.42 1.623-1.394.063-.954-.417-1.572-1.383-1.635-.947-.064-1.515.426-1.642 1.4 0 .941.43 1.565 1.402 1.629Zm-9.723-17.991c-.044.992.562 1.648 1.547 1.673.922.026 1.54-.573 1.59-1.489.051-.999-.568-1.56-1.546-1.7-.916.096-1.547.6-1.591 1.516Zm1.565-6.345c.916.013 1.541-.586 1.604-1.496.063-.999-.543-1.667-1.515-1.725-.985-.057-1.54.586-1.711 1.585.107.967.631 1.623 1.623 1.636Zm8.24 16.432c.985-.038 1.572-.611 1.68-1.585.1-.878-.796-1.801-1.674-1.731-.978.076-1.502.687-1.622 1.578-.007.917.782 1.77 1.616 1.738Zm-8.277-32.769c.985-.032 1.572-.604 1.692-1.578.101-.872-.796-1.801-1.667-1.738-.978.077-1.502.681-1.629 1.572-.012.917.77 1.77 1.604 1.744Zm.075 5.034c-.978-.019-1.572.605-1.679 1.578-.095.879.802 1.801 1.68 1.725.978-.083 1.502-.687 1.628-1.661-.126-.967-.65-1.623-1.629-1.642Zm9.912 17.737c.007-.987-.606-1.63-1.572-1.68-1.048-.058-1.723.566-1.774 1.616-.05 1.063.619 1.623 1.642 1.788 1.022-.127 1.692-.662 1.704-1.724Zm-1.628-6.345c1.041-.038 1.673-.7 1.641-1.75-.031-1.05-.688-1.68-1.736-1.655-1.048.025-1.572.72-1.68 1.756.17 1.019.72 1.687 1.775 1.649Zm-.044-8.032c1.054-.006 1.648-.623 1.71-1.68a1.668 1.668 0 0 0-1.78-1.763c-1.06.077-1.578.72-1.667 1.776.133 1.018.67 1.68 1.737 1.667Zm1.711-10.004c-.013-1.063-.58-1.686-1.629-1.776a1.667 1.667 0 0 0-1.793 1.744c.044 1.076.67 1.604 1.515 1.712 1.13.013 1.913-.725 1.907-1.68Z"/></g><defs><clipPath id="fa"><path fill="#fff" transform="translate(63.822)" d="M0 0h58.919v52.045H0z"/></clipPath><clipPath id="fb"><path fill="#fff" transform="matrix(-1 0 0 1 58.919 0)" d="M0 0h58.919v52.045H0z"/></clipPath><clipPath id="fc"><path fill="#fff" transform="matrix(1 0 0 -1 63.822 108.993)" d="M0 0h58.919v52.045H0z"/></clipPath><clipPath id="fd"><path fill="#fff" transform="rotate(180 29.46 54.496)" d="M0 0h58.919v52.045H0z"/></clipPath></defs></svg><svg fill="none" viewBox="0 0 129 29" id="hero-double-arrow" xmlns="http://www.w3.org/2000/svg"><g opacity=".5" clip-path="url(#ga)" fill="#fff"><path d="M36.107 0v29L50 14.51 36.107 0ZM18.063 0v29l13.874-14.49L18.062 0ZM0 0v29l13.875-14.49L0 0Z"/></g><g opacity=".5" clip-path="url(#gb)" fill="#fff"><path d="M115.107 0v29L129 14.51 115.107 0ZM97.063 0v29l13.874-14.49L97.063 0ZM79 0v29l13.875-14.49L79 0Z"/></g><defs><clipPath id="ga"><path fill="#fff" transform="matrix(-1 0 0 1 50 0)" d="M0 0h50v29H0z"/></clipPath><clipPath id="gb"><path fill="#fff" transform="matrix(-1 0 0 1 129 0)" d="M0 0h50v29H0z"/></clipPath></defs></svg><svg fill="none" viewBox="0 0 74 53" id="hero-gamepad" xmlns="http://www.w3.org/2000/svg"><path d="M14.752 1.634C17.278 1.11 19.802.8 22.326.76c.86.004 1.552.867 1.547 1.94-.065 2.147-.29 4.293-.731 6.385-3.055-.875-6.168-1.16-9.28-1.23.06-1.556-.092-3.114-.299-4.618-.157-.699.383-1.447 1.19-1.604Z" fill="url(#ha)"/><path d="M59.254 1.866c-2.52-.55-5.041-.885-7.564-.952-.859-.005-1.561.85-1.567 1.924.043 2.148.246 4.296.665 6.392 3.064-.843 6.18-1.095 9.293-1.133-.046-1.557.123-3.113.346-4.615.165-.697-.368-1.451-1.173-1.616Z" fill="url(#hb)"/><path d="M72.605 36.077c-.576-2.955-1.473-5.912-2.157-8.6-1.527-5.591-3.485-11.077-5.55-16.456-1.378-3.55-4.748-5.93-8.559-5.95l-2.093-.01c-2.255-.012-4.46.835-6.186 2.33l-1.618 1.44c-1.942 1.762-4.524 2.715-7.154 2.7l-2.2-.01-2.202-.012a10.695 10.695 0 0 1-7.125-2.775l-1.603-1.458c-1.71-1.512-3.853-2.382-6.161-2.394l-1.986-.01c-3.812-.02-7.206 2.324-8.62 5.86-2.122 5.411-4.136 10.823-5.722 16.397-.766 2.68-1.64 5.575-2.246 8.578-.715 3.432-1.055 6.866-.374 10.036 1.257 5.966 8.918 9.066 13.824 4.958 2.696-2.241 6.693-6.837 9.448-10.205a10.628 10.628 0 0 1 8.233-3.822l4.51.023 4.509.024c3.167.017 6.166 1.482 8.193 3.908 2.72 3.342 6.668 8.033 9.34 10.302 4.864 4.159 12.556 1.139 13.876-4.813.607-3.164.303-6.602-.377-10.04Z" fill="url(#hc)"/><path d="M72.614 34.199c-.575-2.956-1.472-5.913-2.156-8.6-1.528-5.592-3.486-11.078-5.551-16.457-1.377-3.55-4.747-5.93-8.558-5.95l-2.094-.01c-2.255-.012-4.46.836-6.186 2.33l-1.618 1.44c-1.941 1.762-4.523 2.715-7.154 2.701l-2.2-.011-2.201-.012a10.695 10.695 0 0 1-7.126-2.775l-1.603-1.457c-1.71-1.512-3.852-2.382-6.16-2.394l-1.987-.01c-3.811-.02-7.205 2.324-8.62 5.86C7.28 14.21 5.264 19.675 3.678 25.25c-.765 2.68-1.64 5.574-2.245 8.577-.716 3.432-1.056 6.866-.375 10.037 1.258 5.965 8.918 9.065 13.825 4.957 2.696-2.24 6.692-6.837 9.447-10.204a10.628 10.628 0 0 1 8.234-3.823l4.509.024 4.51.023c3.166.017 6.165 1.482 8.192 3.908 2.72 3.343 6.669 8.033 9.341 10.302 4.864 4.159 12.556 1.14 13.875-4.813.607-3.164.303-6.655-.377-10.04Z" fill="url(#hd)"/><path d="M72.903 40.588c-1.311 4.395-9 6.664-13.868 3.525-2.676-1.678-6.63-5.135-9.355-7.618-2.03-1.836-5.031-2.925-8.198-2.942l-4.51-.023-4.509-.024c-3.167-.016-6.179 1.042-8.228 2.856-2.75 2.456-6.741 5.87-9.434 7.52-4.9 3.035-12.565.74-13.83-3.668a8.841 8.841 0 0 1-.314-1.72c-.117 1.825-.073 3.65.294 5.37C2.21 49.83 9.87 52.93 14.775 48.821c2.696-2.24 6.693-6.836 9.448-10.204a10.628 10.628 0 0 1 8.233-3.822l4.51.023 4.509.024c3.167.016 6.166 1.481 8.193 3.907 2.72 3.343 6.669 8.034 9.34 10.302 4.864 4.16 12.557 1.14 13.876-4.813.385-1.715.448-3.54.35-5.366a9.664 9.664 0 0 1-.331 1.716Z" fill="url(#he)"/><path d="M28.008 33.376a6.388 6.388 0 1 0 .066-12.777 6.388 6.388 0 0 0-.066 12.777Z" fill="url(#hf)"/><path d="M28.012 32.517a5.53 5.53 0 1 0 .058-11.058 5.53 5.53 0 0 0-.058 11.058Z" fill="url(#hg)"/><path d="M27.387 28.863a4.617 4.617 0 1 0 .048-9.233 4.617 4.617 0 0 0-.048 9.233Z" fill="url(#hh)"/><path d="M31.223 24.266a3.826 3.826 0 0 0-3.792-3.831 3.826 3.826 0 0 0-3.831 3.792 3.826 3.826 0 0 0 3.791 3.83c2.094-.042 3.82-1.697 3.832-3.79Z" fill="url(#hi)"/><path d="M43.414 33.456a6.388 6.388 0 1 0 .067-12.776 6.388 6.388 0 0 0-.067 12.776Z" fill="url(#hj)"/><path d="M43.419 32.597a5.53 5.53 0 1 0 .057-11.058 5.53 5.53 0 0 0-.057 11.058Z" fill="url(#hk)"/><path d="M42.847 28.944a4.617 4.617 0 1 0 .048-9.234 4.617 4.617 0 0 0-.048 9.233Z" fill="url(#hl)"/><path d="M46.629 24.347a3.826 3.826 0 0 0-3.791-3.832 3.826 3.826 0 0 0-3.832 3.792 3.826 3.826 0 0 0 3.792 3.831c2.147-.042 3.82-1.698 3.831-3.791Z" fill="url(#hm)"/><path d="M58.18 12.113c-.005 1.235-1.191 2.195-2.64 2.188-1.45-.008-2.626-1.034-2.62-2.215.007-1.235 1.193-2.195 2.642-2.187 1.45-.046 2.625.98 2.619 2.214Z" fill="url(#hn)"/><path d="M55.541 13.871c1.156.006 2.098-.782 2.103-1.76.005-.979-.928-1.777-2.084-1.783-1.157-.006-2.098.782-2.103 1.76-.005.979.928 1.777 2.084 1.783Z" fill="url(#ho)"/><path d="M58.138 20.487c-.007 1.235-1.193 2.195-2.642 2.188-1.45-.008-2.625-1.034-2.62-2.215.007-1.235 1.193-2.195 2.643-2.187 1.449.007 2.625.98 2.619 2.214Z" fill="url(#hp)"/><path d="M55.498 22.245c1.156.006 2.098-.782 2.103-1.76.005-.979-.928-1.777-2.085-1.783-1.156-.006-2.097.782-2.102 1.76-.006.979.928 1.777 2.084 1.783Z" fill="url(#hq)"/><path d="M62.615 16.27c-.006 1.235-1.192 2.195-2.642 2.187-1.45-.008-2.625-1.034-2.619-2.215.007-1.234 1.193-2.194 2.642-2.187 1.45.008 2.625.98 2.619 2.215Z" fill="url(#hr)"/><path d="M62.078 16.267c-.005.966-.922 1.767-2.103 1.76-1.127-.005-2.09-.815-2.084-1.782.005-.966.922-1.766 2.103-1.76 1.127.006 2.09.816 2.084 1.782Z" fill="url(#hs)"/><path d="M54.294 16.227c-.006 1.234-1.192 2.195-2.641 2.187-1.45-.008-2.625-1.034-2.62-2.215.007-1.234 1.193-2.194 2.643-2.187 1.449.008 2.625.98 2.618 2.215Z" fill="url(#ht)"/><path d="M53.758 16.224c-.005.966-.922 1.767-2.103 1.76-1.127-.005-2.09-.816-2.084-1.782.005-.966.921-1.767 2.102-1.76 1.128.005 2.09.816 2.085 1.782Z" fill="url(#hu)"/><path d="M17.66 20.599a6.066 6.066 0 1 0 .063-12.132A6.066 6.066 0 0 0 17.66 20.6Z" fill="url(#hv)"/><path d="M17.663 19.955A5.422 5.422 0 1 0 17.72 9.11a5.422 5.422 0 0 0-.056 10.844Z" fill="url(#hw)"/><path d="m20.865 13.368-1.503-.008a.481.481 0 0 1-.48-.485l.007-1.503a.481.481 0 0 0-.48-.486l-1.45-.007a.481.481 0 0 0-.486.48l-.007 1.503a.481.481 0 0 1-.486.48l-1.503-.007a.481.481 0 0 0-.486.48l-.007 1.45a.481.481 0 0 0 .48.486l1.503.008a.481.481 0 0 1 .481.485l-.008 1.503a.481.481 0 0 0 .48.486l1.45.007a.481.481 0 0 0 .486-.48l.008-1.503a.481.481 0 0 1 .485-.48l1.503.007a.481.481 0 0 0 .486-.48l.008-1.45c-.053-.269-.266-.485-.481-.486Z" fill="url(#hx)"/><path d="m35.353 14.571-5.53-.029a.423.423 0 0 0-.43.428l-.009 1.503a.423.423 0 0 0 .427.431l5.53.03a.423.423 0 0 0 .431-.428l.008-1.503a.423.423 0 0 0-.427-.432Z" fill="url(#hy)"/><path d="m43.566 14.614-5.53-.029a.424.424 0 0 0-.431.427l-.008 1.503a.423.423 0 0 0 .427.432l5.53.029a.423.423 0 0 0 .431-.427l.008-1.503c.001-.269-.159-.43-.427-.432Z" fill="url(#hz)"/><defs><linearGradient id="ha" x1="19.833" y1="-.402" x2="18.221" y2="6.505" gradientUnits="userSpaceOnUse"><stop stop-color="#E474C6"/><stop offset=".989" stop-color="#0E7CF7"/></linearGradient><linearGradient id="hb" x1="52.118" y1="-.373" x2="55.601" y2="6.028" gradientUnits="userSpaceOnUse"><stop stop-color="#E474C6"/><stop offset=".989" stop-color="#0E7CF7"/></linearGradient><linearGradient id="hc" x1="37.125" y1="13.96" x2="36.937" y2="50.023" gradientUnits="userSpaceOnUse"><stop stop-color="#826F8C"/><stop offset="1" stop-color="#446381"/></linearGradient><linearGradient id="hd" x1="37.365" y1="4.229" x2="36.668" y2="70.752" gradientUnits="userSpaceOnUse"><stop stop-color="#826F8C"/><stop offset=".995" stop-color="#446381"/></linearGradient><linearGradient id="he" x1="38.621" y1="1.185" x2="36.822" y2="44.243" gradientUnits="userSpaceOnUse"><stop stop-color="#8F4EB6"/><stop offset=".995" stop-color="#446381"/></linearGradient><linearGradient id="hf" x1="28.226" y1="20.309" x2="27.901" y2="32.299" gradientUnits="userSpaceOnUse"><stop stop-color="#8F4EB6"/><stop offset=".995" stop-color="#5141AE"/></linearGradient><linearGradient id="hg" x1="28.063" y1="23.585" x2="27.977" y2="40.129" gradientUnits="userSpaceOnUse"><stop stop-color="#6F469E"/><stop offset="1" stop-color="#360F6E"/></linearGradient><linearGradient id="hh" x1="22.834" y1="24.201" x2="32.03" y2="24.249" gradientUnits="userSpaceOnUse"><stop stop-color="#CB9DFF"/><stop offset=".989" stop-color="#796AFB"/></linearGradient><linearGradient id="hi" x1="27.132" y1="21.697" x2="28.39" y2="32.295" gradientUnits="userSpaceOnUse"><stop stop-color="#CB9DFF"/><stop offset=".989" stop-color="#796AFB"/></linearGradient><linearGradient id="hj" x1="43.41" y1="18.109" x2="43.508" y2="32.946" gradientUnits="userSpaceOnUse"><stop stop-color="#8F4EB6"/><stop offset=".995" stop-color="#5141AE"/></linearGradient><linearGradient id="hk" x1="43.487" y1="23.666" x2="43.401" y2="40.209" gradientUnits="userSpaceOnUse"><stop stop-color="#6F469E"/><stop offset="1" stop-color="#360F6E"/></linearGradient><linearGradient id="hl" x1="38.258" y1="24.282" x2="47.454" y2="24.329" gradientUnits="userSpaceOnUse"><stop stop-color="#CB9DFF"/><stop offset=".989" stop-color="#796AFB"/></linearGradient><linearGradient id="hm" x1="42.332" y1="19.893" x2="43.59" y2="30.491" gradientUnits="userSpaceOnUse"><stop stop-color="#CB9DFF"/><stop offset=".989" stop-color="#796AFB"/></linearGradient><linearGradient id="hn" x1="55.621" y1="7.614" x2="55.534" y2="15.973" gradientUnits="userSpaceOnUse"><stop stop-color="#8F4EB6"/><stop offset=".995" stop-color="#5141AE"/></linearGradient><linearGradient id="ho" x1="54.925" y1="8.457" x2="56.115" y2="15.115" gradientUnits="userSpaceOnUse"><stop stop-color="#D2F9FF"/><stop offset=".995" stop-color="#618DD6"/></linearGradient><linearGradient id="hp" x1="55.609" y1="16.354" x2="55.489" y2="22.699" gradientUnits="userSpaceOnUse"><stop stop-color="#8F4EB6"/><stop offset=".995" stop-color="#5141AE"/></linearGradient><linearGradient id="hq" x1="55.042" y1="17.786" x2="55.978" y2="22.955" gradientUnits="userSpaceOnUse"><stop stop-color="#D2F9FF"/><stop offset=".995" stop-color="#618DD6"/></linearGradient><linearGradient id="hr" x1="60.062" y1="10.872" x2="59.938" y2="17.961" gradientUnits="userSpaceOnUse"><stop stop-color="#8F4EB6"/><stop offset=".995" stop-color="#5141AE"/></linearGradient><linearGradient id="hs" x1="59.005" y1="13.185" x2="60.9" y2="19.235" gradientUnits="userSpaceOnUse"><stop stop-color="#D2F9FF"/><stop offset=".995" stop-color="#618DD6"/></linearGradient><linearGradient id="ht" x1="51.606" y1="12.28" x2="51.703" y2="18.846" gradientUnits="userSpaceOnUse"><stop stop-color="#8F4EB6"/><stop offset=".995" stop-color="#5141AE"/></linearGradient><linearGradient id="hu" x1="51.133" y1="13.74" x2="52.244" y2="18.91" gradientUnits="userSpaceOnUse"><stop stop-color="#D2F9FF"/><stop offset=".995" stop-color="#618DD6"/></linearGradient><linearGradient id="hv" x1="17.453" y1="3.993" x2="17.878" y2="23.252" gradientUnits="userSpaceOnUse"><stop stop-color="#8F4EB6"/><stop offset=".995" stop-color="#5141AE"/></linearGradient><linearGradient id="hw" x1="20.539" y1="3.261" x2="16.07" y2="20.92" gradientUnits="userSpaceOnUse"><stop stop-color="#E474C6"/><stop offset=".989" stop-color="#0E7CF7"/></linearGradient><linearGradient id="hx" x1="15.894" y1="8.66" x2="18.648" y2="17.691" gradientUnits="userSpaceOnUse"><stop stop-color="#D2F9FF"/><stop offset=".995" stop-color="#618DD6"/></linearGradient><linearGradient id="hy" x1="32.599" y1="13.984" x2="32.48" y2="20.111" gradientUnits="userSpaceOnUse"><stop stop-color="#E474C6"/><stop offset=".989" stop-color="#7142A2"/></linearGradient><linearGradient id="hz" x1="40.842" y1="14.145" x2="40.723" y2="20.272" gradientUnits="userSpaceOnUse"><stop stop-color="#E474C6"/><stop offset=".989" stop-color="#7142A2"/></linearGradient></defs></svg><svg fill="none" viewBox="0 0 569 585" id="hero-person" xmlns="http://www.w3.org/2000/svg"><path d="M429.322 86.825c-3.07-18.936-9.553-35.143-24.566-48.279-2.729-2.388-8.871 2.559-6.312 5.118 16.548 15.866 21.325 32.584 21.837 57.833.17 9.383-.171 20.301-1.195 32.243-.853 9.212 8.53 8.7 9.554 3.07 1.706-11.43 2.559-38.896.682-49.985Z" fill="#EB8382"/><path d="M411.239 52.706c-1.365-2.218-2.9-4.265-4.606-6.312-2.388-2.56-5.459-4.777-5.118-8.36-2.559.853-4.777 3.754-2.9 5.46 16.548 15.865 21.325 32.584 21.836 57.832.171 9.383-.17 20.301-1.194 32.243-.17 2.9.512 4.777 1.706 5.971 4.265-9.383 3.924-21.666 4.095-31.219.17-13.307-1.195-26.784-5.63-39.408-2.218-5.63-4.948-11.09-8.189-16.207Z" fill="#C37A87"/><path d="M386.161 44.688c-19.448-23.714-54.25-36.85-99.8-19.62-20.642 7.848-35.484 19.96-44.355 36.338-11.942 22.007-12.454 61.586-5.63 88.029a93.654 93.654 0 0 0 2.559 9.894c5.971 21.837 17.231 41.626 35.826 55.786 17.401 12.965 39.578 18.254 61.244 14.33 21.666-4.094 40.261-18.083 51.692-35.826 27.466-42.99 31.901-108.159-1.536-148.931Z" fill="#521E3F"/><path d="M538.983 456.975c-1.535-8.871-3.582-17.572-6.141-26.272-3.242-10.748-10.577-18.595-14.501-29.002-2.389-6.141-1.024-14.842-3.242-20.983-2.388-6.142-8.871-8.871-11.259-15.013-2.388-6.141-.853-15.524-3.412-21.495-4.606-10.236-9.724-20.472-15.524-30.025-9.724-16.036-22.861-32.755-39.238-42.82-1.535-1.024-3.071-1.877-4.606-2.73-10.577-6.994-24.737-11.601-39.408-17.742-12.624-5.289-62.268-16.377-107.647-16.377-41.967.17-80.352 11.088-84.105 12.112-27.978 7.677-36.508 8.359-61.927 30.878-10.065 8.871-19.96 17.913-30.367 26.272-5.288 4.265-14.33 4.265-19.789 8.018-7.165 5.118-10.918 13.989-18.766 18.254-22.519 12.113-47.938 12.966-62.438 35.485C10.3 375.259 4.5 395.901 4.5 407.502c0 9.383 4.777 17.912 11.771 23.883 13.819 11.772 34.973 12.795 52.203 12.113 25.078-1.194 49.815-8.871 73.187-17.572 22.348-8.359 30.878-.682 29.854 16.719-.853 15.183-1.706 30.366-2.217 45.72-.683 16.548-5.786 43.087-6.298 59.635-.512 18.254 76.018 29.6 95.125 32.5 17.214 2.614 1.168.102 30.5 2.5 49.156 4.019 108.054-2.251 120.875-15.5 2.218-2.218 8.188-15.331 12.282-45.527 1.877-13.819 7.165-18.595 18.254-8.359 13.307 12.453 30.708 20.642 48.791 21.836 19.79 1.365 37.532-9.042 46.232-26.613 7.677-16.036 6.824-34.973 3.924-51.862Z" fill="#C5C7D2" fill-opacity=".2"/><path d="M497.22 361.829c-3.07 6.483-5.629 12.795-9.724 18.766-4.606 6.653-9.894 12.794-15.524 18.765-.171.171 0 .342.171.342 6.312-4.607 11.6-10.236 16.206-16.548 4.265-5.971 8.701-13.648 9.213-21.155 0-.17-.342-.341-.342-.17Z" fill="#F5F5F5"/><path d="M275.102 291.031c-3.241-6.483-7.165-11.43-14.501-12.625-7.335-1.194-15.012 1.536-21.666 4.265-12.453 5.289-25.078 13.136-34.119 24.055-6.824 8.188 53.909 17.912 63.974 17.912 19.277.171 11.771-22.348 6.312-33.607Z" fill="#FFA26E"/><path d="M278.002 308.944c-1.194-3.754-2.218-9.042-7.336-9.554-1.194-.171-4.435 0-6.653.682-3.071 1.024-2.218 3.071-1.365 4.948 1.706 3.753 3.753 6.994 8.53 7.506 3.412.512 7.848-.512 6.824-3.582Z" fill="#fff"/><path d="M252.924 314.914c-3.923-6.823-4.606-15.012-5.118-22.689 0-.341-.341-.341-.511 0-.342 1.535-.512 3.412-.683 5.118-2.047 5.288-9.212 3.753-12.965 7.165-3.412 3.241-4.948 7.677-4.265 12.283.17.682.17 1.365.341 2.047 11.43 2.559 24.054 4.606 32.072 5.459-3.412-2.388-6.482-5.288-8.871-9.383Z" fill="#F4905D"/><path d="M334.129 238.487c-12.283-1.365-24.907-1.877-37.191-1.365-23.883.853-34.46 21.666-15.183 39.237 24.396 22.519 67.045 25.249 85.982-3.412 6.653-10.065 8.188-25.589-12.795-31.219-7.677-2.047-16.036-2.73-20.813-3.241Z" fill="#F5F5F5"/><path d="M535.946 470.67c-4.947-11.089-13.136-20.642-22.519-28.148-15.865-12.795-36.337-18.937-55.103-26.272-10.577-4.095-21.495-8.36-31.049-14.331-4.947-3.07-10.577-7.677-16.548-4.776-4.947 2.388-8.188 8.529-10.577 12.965-2.9 5.459-5.118 11.259-7.165 17.06-5.118 14.842-8.189 22.007 2.9 31.049 7.165 5.8 19.79 15.524 25.078 21.154 9.213 10.236 17.231 21.495 26.784 31.39 13.819 14.501 33.096 24.736 53.227 26.101 19.618 1.194 39.578-10.748 42.649-31.219 1.706-11.771-2.9-24.396-7.677-34.973Z" fill="#FFA26E"/><path d="M538.676 518.779c-6.483 4.265-14.672 6.482-22.008 7.165-12.283 1.194-25.248-.683-36.508-5.801-9.382-4.435-17.23-11.771-23.883-19.618-16.207-19.448-27.637-43.673-32.755-68.41-2.388-11.259-4.094-25.248-10.406-35.655-.853.171-1.706.341-2.559.853-4.948 2.388-8.189 8.53-10.577 12.966-2.901 5.459-5.118 11.259-7.166 17.059-5.118 14.842-8.188 22.007 2.901 31.049 7.165 5.8 19.789 15.524 25.077 21.154 9.213 10.236 17.231 21.496 26.784 31.39 13.819 14.501 33.096 24.737 53.227 26.102 15.012.853 30.196-5.971 37.873-18.254Z" fill="#F4905D"/><path d="M188.438 324.809c-24.736 6.312-57.491 11.771-83.081 14.16-23.03 2.047-47.597 2.047-67.215 15.865-8.7 6.142-16.037 14.842-22.69 23.202C8.97 386.054 3 395.437 1.292 405.843c-1.194 7.677 1.195 16.719 7.677 21.495 6.995 5.118 16.037 6.995 24.396 8.189 7.847 1.024 15.865 1.365 23.884 1.535 11.26.342 21.666-1.876 32.243-5.8 11.771-4.265 92.293-36.678 100.311-44.355 6.142-5.971 9.724-14.16 11.601-22.349 5.288-21.666-.683-42.82-12.966-39.749Z" fill="#FFA26E"/><path d="M189.974 386.736c2.047-1.876 3.753-4.265 5.288-6.483-.512-1.023-1.023-2.217-1.706-3.241-9.383-17.23-42.479-27.466-74.551-4.435-6.824 4.947-12.624 11.259-19.107 16.548-8.53 6.994-18.595 12.112-28.66 16.548-15.525 6.994-37.532 13.989-53.398 4.435-8.188-4.947-10.406-12.965-10.065-21.495-3.07 5.288-5.63 10.918-6.482 16.889-1.195 7.677 1.194 16.719 7.676 21.495 6.995 5.118 16.037 6.995 24.396 8.189 7.847 1.024 15.865 1.365 23.884 1.535 11.26.342 21.666-1.876 32.243-5.8 11.941-4.094 92.464-36.508 100.482-44.185Z" fill="#F4905D"/><path d="M400.662 339.992c-1.365-5.63-3.071-10.747-8.53-13.477-7.165-3.583-22.007-4.777-24.395 5.118-1.877 8.018 3.241 20.301 9.724 25.078 10.747 8.018 29.684 11.089 27.295-1.536-.853-5.118-2.9-10.065-4.094-15.183Z" fill="#FFA26E"/><path d="M406.633 359.099c-3.583-2.9-25.931-14.671-29.855-15.354-7.335-1.364-10.577 1.024-17.912 1.024-2.73 0-40.262-12.795-49.133-17.401-3.241-1.706-5.118-5.63-6.312-6.653-6.653-5.971-24.395-9.724-33.266-10.577-2.73-.171-9.383 2.047-16.548 5.288-20.131 9.212-29.684 17.913-40.944 45.379-3.582 8.53-6.653 17.572-7.335 26.784-.512 8.7 3.923 13.989 13.647 13.136 8.701-.682 32.755-20.813 45.55-31.39 5.118-4.265 6.483-2.73 10.065-1.024.683.342 1.536.683 2.559 1.195 2.73 1.364 2.73 2.729 1.877 6.312-.853 3.071-1.536 5.971-1.365 9.041.341 4.265 5.118 6.483 8.53 8.019 6.141 2.729 12.624 4.947 18.766 8.018 5.629 2.729 9.041-1.024 13.477-4.265l3.582-2.559c2.048-1.536 5.46-1.536 6.654-1.024 2.729 1.194 5.288 2.218 7.847 3.412 5.459 2.388 5.118 9.212 2.559 18.254-10.747 38.555 11.942 25.931 27.978 15.866 12.113-7.677 26.443-18.084 37.361-32.073 3.753-5.288 6.824-35.655 2.218-39.408Z" fill="#3C68CD"/><path d="M306.321 332.315c-.511-.17-5.971 10.236-6.994 15.525-.341 1.706 39.92 17.23 40.261 16.718 2.559-4.094 4.947-10.406 7.336-16.036.17-.512-26.614-10.406-40.603-16.207Z" fill="#2453B2"/><path d="M403.392 399.36c3.753-10.747 3.411-22.348-5.801-30.366-7.677-6.824-19.277-8.189-29.172-7.506-12.112.853-22.007 6.653-31.39 13.818-5.289 4.094-10.236 8.701-16.207 12.113-7.506 4.435-14.501 4.606-22.348 1.535-3.412-1.365-6.824-3.071-9.724-5.459-3.242-2.559-2.559-7.165-1.706-10.748 1.365-6.483 3.753-12.454 4.094-19.107.683-10.065-5.63-18.424-13.818-23.542-21.837-13.478-46.062-3.754-55.445 11.43-3.241 5.118-6.141 11.43-9.382 19.107-3.583 8.53-6.654 17.571-7.336 26.784-.512 8.7 3.924 13.988 13.648 13.136 8.7-.683 32.754-20.813 45.549-31.39 5.118-4.265 6.483-2.73 10.066-1.024.682.341 1.535.682 2.559 1.194 2.729 1.365 2.729 2.73 1.876 6.312-.853 3.071-1.535 5.971-1.365 9.042.342 4.265 5.118 6.483 8.53 8.018 6.142 2.73 12.624 4.947 18.766 8.018 5.63 2.73 9.042-1.023 13.477-4.265l3.583-2.559c2.047-1.535 5.459-1.535 6.653-1.023 2.73 1.194 5.289 2.217 7.848 3.412 5.459 2.388 5.117 9.212 2.559 18.254-10.748 38.555 11.941 25.93 27.978 15.865 11.771-7.506 25.589-17.742 36.508-31.049Z" fill="#2453B2"/><path d="M364.495 251.793c-.682-3.924-1.876-7.506-1.706-11.43 0-3.241.683-21.836.341-33.437-.17-4.265-.341-9.212-11.771-10.577-9.041-1.024-50.326 0-55.274.17-6.312.342-8.871 2.901-8.871 8.701-.17 9.895.171 19.96-2.217 29.513-1.706 6.995-4.777 13.989-3.924 21.325.853 7.848 7.847 12.454 14.33 15.866 9.554 4.947 20.472 6.824 31.22 6.994 9.382.171 19.448-1.535 27.978-5.8 8.359-4.606 11.6-12.283 9.894-21.325Z" fill="#E87F52"/><path d="M313.316 261.347c-9.383-14.672-2.218-34.29 5.8-47.938 4.265-7.336 9.895-13.136 16.207-17.913-15.524 0-35.996.512-39.408.682-6.312.342-8.871 2.901-8.871 8.701-.171 9.895.17 19.96-2.218 29.513-1.706 6.995-4.777 13.989-3.924 21.325.853 7.848 7.848 12.454 14.331 15.866 9.553 4.947 20.471 6.824 31.219 6.994 9.383.171 19.448-1.535 27.978-5.8 1.024-.512 1.877-1.024 2.73-1.706-16.207 5.288-34.291 5.288-43.844-9.724Z" fill="#DB6B45"/><path d="M384.626 151.823c.682-7.506 2.559-33.608 4.094-39.067 2.559-8.018 12.283-8.189 19.448-7.677 4.095.341 8.871 1.194 13.307 2.73 7.677 2.729 11.942 4.776 11.771 11.43-1.024 22.689-4.265 40.09-7.677 50.667-2.9 8.701-6.483 10.236-11.771 10.748-3.753.341-13.989-.682-20.131-1.535-4.435-.683-9.041-2.048-10.065-10.066-.682-5.8.512-12.283 1.024-17.23Z" fill="#93426E"/><path d="M393.667 178.948c2.048.341 4.607.683 7.166 1.024 7.676.853 13.136-6.483 16.206-14.842 4.265-11.942 5.118-25.419 4.777-37.702-.171-6.142-.341-13.307-1.535-20.131-4.095-1.365-8.36-2.047-12.113-2.388-7.165-.683-16.889-.342-19.448 7.677-1.706 5.459-3.412 31.56-4.094 39.066-.512 4.948-1.536 11.431-.853 17.231.853 8.018 5.629 9.383 9.894 10.065Z" fill="#7C315D"/><path d="M370.637 35.987c-15.866-5.8-42.479-7.165-65.169-2.73-33.096 6.483-55.103 32.585-58.344 73.016-1.706 20.472.171 43.162 4.947 63.974 14.16 61.075 70.457 75.064 99.118 66.363 16.036-4.947 27.636-15.013 36.166-29.343 18.084-30.025 29.173-82.91 18.425-125.9-5.118-20.132-15.695-38.215-35.143-45.38Z" fill="#FFA26E"/><path d="M405.609 81.366c-5.118-20.13-15.524-38.214-35.143-45.379-15.865-5.8-42.479-7.165-65.168-2.73-33.096 6.483-55.103 32.585-58.345 73.016-1.706 20.472.171 43.162 4.948 63.974 10.577 45.209 44.185 64.657 72.504 68.069-1.194-.341-2.559-.682-3.753-1.024-11.43-3.412-22.178-8.871-30.879-17.059-8.188-7.507-14.671-17.572-15.353-28.831-.512-10.407 6.141-19.449 14.5-24.908 15.013-9.553 35.144-10.406 52.374-10.065 10.577.171 21.325 1.024 31.902 1.535 10.065.512 21.495.342 31.39 2.901 6.141-25.078 7.506-54.08 1.023-79.499Z" fill="#F4905D"/><path d="M388.038 28.822c-22.69-20.13-52.374-24.566-81.375-18.595-26.443 5.459-51.862 20.13-64.998 44.526-6.824 12.794-10.918 27.807-11.601 42.308-.341 9.383 1.365 23.372 8.36 31.049 2.9 3.241 3.753 1.023 3.411-2.048-2.217-17.059 1.024-34.972 11.772-48.79 12.283-15.866 33.949-15.525 52.032-14.16 18.936 1.535 37.361 5.459 56.468 4.265 8.359-.512 19.96-1.877 26.954-7.848 5.801 5.289 10.407 11.26 13.989 18.766 3.583 7.506 4.607 15.525 5.46 23.713.341 4.606 1.876 5.289 3.07.512 6.142-26.613-3.07-55.444-23.542-73.698Z" fill="#521E3F"/><path d="M333.788 20.462c-2.218-2.9-4.948-4.264-8.018-4.606-2.901-.511-16.549 0-20.302.683-1.876.34-3.582.682-5.118 1.364-1.706.683-1.023 1.365 0 2.048 12.113 8.018 12.795 30.537 12.795 44.014 0 1.876 1.536 2.388 3.924 2.388 8.018-.17 15.866-.511 23.884-.682 3.07-.17 3.412-.512 3.582-2.73.683-15.354-2.047-30.878-10.747-42.479Z" fill="#1B4C9B"/><path d="M319.799 50.317c-1.877-6.312-1.706-13.306 1.023-19.277 2.73-6.142 8.359-8.36 14.501-8.53l-1.535-2.048c-2.218-2.9-4.948-4.264-8.018-4.606-2.901-.511-16.549 0-20.302.683-1.876.34-3.582.682-5.118 1.364-1.706.683-1.023 1.365 0 2.048 12.113 8.018 12.795 30.537 12.795 44.014 0 1.876 1.536 2.388 3.924 2.388 4.265-.17 8.701-.17 12.965-.34-4.776-4.436-8.529-9.725-10.235-15.696Z" fill="#103E82"/><path d="M263.331 155.064c-.683-7.506-2.559-33.608-4.095-39.067-2.559-8.018-12.283-8.188-19.448-7.677-4.094.342-8.871 1.195-13.306 2.73-7.677 2.73-11.942 4.777-11.772 11.43 1.024 22.69 4.265 40.091 7.677 50.668 2.9 8.7 6.483 10.235 11.772 10.747 3.753.341 13.989-.682 20.13-1.535 4.436-.683 9.042-2.047 10.065-10.065.512-5.63-.682-12.113-1.023-17.231Z" fill="#93426E"/><path d="M259.066 115.997c-2.218-6.994-10.065-8.018-16.719-7.847 7.507 8.871 8.701 23.201 9.383 34.29 1.706 33.096-4.777 38.214-16.718 41.626 4.265.17 13.477-.853 19.107-1.706 4.435-.683 9.041-2.047 10.065-10.065.682-5.801-.512-12.284-.853-17.231-.683-7.336-2.559-33.608-4.265-39.067Z" fill="#7C315D"/><path d="M230.576 123.333c-4.435-8.359-16.548-10.747-15.865 2.047 1.194 21.325 4.265 37.873 7.676 47.938 4.436 13.136 12.113 2.9 13.478-3.07 2.9-11.942-.171-37.361-5.289-46.915Z" fill="#D3D0FF"/><path d="M230.576 123.333c-3.583-6.824-12.112-9.553-14.842-3.753 4.777-3.412 10.577.512 13.136 7.165 2.218 5.8 3.071 12.454 4.265 18.595 1.535 8.189 2.218 16.719-.682 24.737-.683 2.218-1.877 3.924-3.412 5.63-2.559 2.729-5.118-1.195-6.312-2.901-.342-.511-.683-1.194-1.024-1.876.171.853.512 1.535.682 2.218 4.436 13.136 12.113 2.9 13.478-3.071 2.9-11.771-.171-37.191-5.289-46.744Z" fill="#B1B1F2"/><path d="M394.009 51.853c-10.407-1.365-20.984-1.877-31.39-2.048-27.125-.511-81.546 2.048-103.041 9.895-5.46 2.047-16.207 7.677-19.278 18.936-3.583 13.307-2.73 35.997 0 51.35 3.583 20.643 16.548 25.078 26.784 26.784 30.707 5.459 102.017 5.289 144.667-.17 12.283-1.536 23.201-11.942 24.395-23.884 2.559-24.566 1.194-38.896.683-49.303-1.024-24.225-16.378-28.148-42.82-31.56Z" fill="#3C68CD"/><path d="M428.469 75.054c-2.047-6.312-6.141-11.26-13.647-14.5-20.131-8.53-85.982-5.972-121.295-2.219-14.501 1.536-24.225 4.777-29.685 10.748-7.676 8.53-6.141 50.326-2.558 60.392 5.117 14.33 18.765 14.842 29.342 15.524 26.784 1.535 102.359 2.047 123.172-4.777 11.942-3.923 16.036-8.7 17.06-29.854.512-11.942-.171-28.32-2.389-35.314Z" fill="#1B4C9B"/><path d="M407.486 35.475c-8.018-10.406-18.936-17.4-30.537-23.372C363.472 5.11 349.824 1.185 334.811.333c-27.807-1.366-58.344 5.117-80.522 22.518-5.288 4.094-14.501 11.43-15.524 19.278-.512 3.582 4.094 9.382 7.506 9.724 1.877.17 10.577-1.365 12.965-2.73 2.559-1.535 4.948-3.412 7.166-5.118 12.794-9.895 26.954-17.4 42.649-21.666 17.742-4.777 34.461-2.559 51.009 4.948 6.482 2.9 12.624 6.653 18.595 10.406 4.435 2.73 8.53 5.8 13.477 7.506.682.17 4.094 1.024 7.506.683 3.071-.341 6.142-1.536 7.166-2.73 2.047-2.388 1.876-6.141.682-7.677Z" fill="#EB8382"/><path d="M369.101 26.945c-15.524-8.87-32.072-13.306-49.985-10.918-16.036 2.218-31.901 8.7-45.549 17.742-6.312 4.095-13.819 10.066-21.837 8.7-3.241-.511-5.971-3.07-9.383-3.07-1.194 0-2.388.17-3.241.512l-.512 2.047c-.512 3.583 4.094 9.383 7.506 9.724 1.877.17 10.578-1.365 12.966-2.73 2.559-1.535 4.947-3.411 7.165-5.117 12.795-9.895 26.954-17.401 42.649-21.666 17.743-4.777 34.461-2.56 51.009 4.947 6.483 2.9 12.624 6.653 18.595 10.406 4.436 2.73 8.53 5.8 13.478 7.507.682.17 4.094 1.023 7.506.682 2.559-.17 4.947-1.194 6.312-2.047-12.624 3.412-25.59-10.407-36.679-16.719Z" fill="#C37A87"/><path d="M238.424 43.664c-6.995 6.824-17.913 23.713-23.884 42.82-4.606 14.842-5.63 30.878-3.753 46.914.341 3.242 1.194 7.166 3.071 10.066 1.364 2.217 4.776 2.388 8.018 1.876 3.241-.512 6.312-1.706 6.482-5.629.342-4.095-.341-8.872-.682-12.283-.682-7.848-4.606-14.331-4.606-22.519.17-28.149 12.795-43.503 23.201-55.445 2.047-1.876-4.094-9.553-7.847-5.8Z" fill="#EB8382"/><path d="M296.427 336.41c-6.483-6.824-14.331-12.454-22.349-17.231-8.188-4.776-17.401-9.041-27.125-11.771-12.624-3.412-30.025-7.677-44.867-.17-12.454 6.141-22.348 18.254-29.513 29.854-7.165 11.26-12.625 24.566-12.113 38.214.171 4.094 1.024 8.018 2.559 11.601 0 0 0 .17.171.17.853 1.877 1.876 3.583 2.9 5.118 0 0 0 .171.171.171.17.341.341.512.682.853 3.412 4.777 7.677 9.042 12.454 12.112 7.676 4.948 35.655 5.118 49.473 5.459 6.141.171 11.259-4.435 13.136-7.506 3.241 0 6.312-.853 9.212-2.559 4.095-2.559 6.824-6.994 7.165-11.43.512 0 .853 0 1.365-.17 6.142-1.024 9.212-6.995 10.748-12.625.853-3.071 1.365-8.188-.683-9.894-.682-.512-9.724.511-15.695-3.583-3.753-2.559-6.823-5.971-9.724-9.212-2.559-2.73-6.482-7.165-8.359-11.43-1.876-4.777-.341-6.824 3.924-5.459 10.406 3.07 20.472 7.847 29.513 14.159 7.336 5.118 15.183 10.748 24.566 10.918 5.289.171 10.919-3.07 11.26-8.871.17-6.824-4.606-11.941-8.871-16.718Zm131.189 47.938c-.511-4.777-3.923-9.042-6.482-12.966-3.242-4.606-5.971-9.212-9.895-13.306-7.336-7.507-18.766-7.507-28.49-7.848-9.894-.341-19.96-.512-29.854 1.024-7.848 1.194-13.478 4.265-13.819 12.795-.17 5.97 5.289 8.871 10.236 10.235 11.942 3.242 25.419.512 37.02 3.754 5.118 1.364 5.459 3.241 4.265 7.506l-1.024 3.071c-1.876 4.435-6.141 5.971-9.212 7.335-3.753 1.536-8.018 3.412-11.089 4.265-4.436 1.365-8.7 1.877-12.965-.341-3.071-1.535-5.63-4.265-8.872-5.288-7.165-2.559-14.671-2.73-21.836 0-2.9 1.023-5.459 3.07-5.118 5.97-2.218 1.877-2.73 4.607-1.535 8.36 2.388 8.53 5.971 18.766 11.6 25.76.171.171.341.512.683.682.682 3.754 3.753 7.166 7.506 10.066 4.777 3.582 10.065 6.653 15.183 9.894 5.118 3.242 10.918 7.336 16.889 8.36 7.166 1.194 17.06 1.023 23.713-2.047 3.583-1.706 6.824-7.166 8.189-10.578.341-.853.683-1.876.853-2.729a33.484 33.484 0 0 0 7.848-5.8c3.582-3.583 4.435-8.53 4.094-13.478 3.753-3.412 7.165-7.335 9.383-11.43 3.241-5.971 2.218-13.989-.853-20.13 2.388-4.265 4.094-8.701 3.582-13.136Z" fill="#FFA26E"/><path d="M359.036 179.46c-10.918 3.412-24.225 4.776-41.796 1.535-10.066-1.877-15.184 4.947-12.966 13.477 2.047 7.848 6.653 13.307 12.454 17.06 20.13 12.624 41.455 3.412 48.45-5.118 3.753-4.606 6.141-9.895 6.994-14.842 1.365-9.553-5.63-14.501-13.136-12.112Z" fill="#7C2D0E"/><path d="M320.822 209.997c5.289 2.9 11.089 4.265 16.89 4.265 8.018 0 15.694-2.9 20.642-6.483 4.265-3.071 3.241-5.8-1.706-7.506-11.089-3.753-24.225-3.242-34.802 1.706-7.165 3.412-5.8 5.629-1.024 8.018Z" fill="#FF61AC"/><path d="M338.564 166.836c.853-.512 1.365-1.024 1.706-1.536 1.195-1.876-3.241-2.047-4.094-.512-.682 1.195.682 3.242 2.388 2.048Zm6.654-.683c-.683-.341-1.024-.853-1.365-1.194-1.024-1.536 2.729-1.536 3.412-.512.512 1.024-.683 2.559-2.047 1.706Z" fill="#7C2D0E"/><path d="M300.009 347.157c-1.535-1.705-4.094-3.582-6.653-4.094-4.606-1.023-9.724 2.047-7.847 8.53 1.194 4.094 4.947 8.359 9.553 8.018 2.559-.17 4.436-2.047 5.971-3.924 2.047-2.9 1.024-6.141-1.024-8.53Zm43.673 12.113c-2.388 3.412-1.876 8.188 1.195 10.406 3.582 2.73 11.43 1.024 13.989-2.218 1.535-1.876 1.876-4.265 1.194-6.312-.853-2.388-.683-3.241-5.63-4.265-3.412-.682-8.53-.853-10.748 2.389Z" fill="#fff"/><path d="M379.337 423.244c-7.506 0-15.012 0-22.689.17-2.047 0-4.777.512-6.654-.511-2.559-1.194-21.495-15.354-23.03-16.719-4.606-4.265-6.654-7.506 1.535-12.454-1.023.171-1.876.512-2.9.853-2.9 1.024-5.459 3.071-5.118 5.971-2.218 1.877-2.73 4.607-1.535 8.36 2.388 8.53 5.971 18.765 11.6 25.76.171.171.341.512.683.682.682 3.753 3.753 7.165 7.506 10.066 4.777 3.582 10.065 6.653 15.183 9.894 4.436 2.9 9.554 6.312 14.672 7.848-8.018-4.606-23.884-16.207-26.272-18.937-4.607-5.288 3.753-5.288 11.088-4.265 6.313.853 12.795 1.195 19.107 1.877 1.024.171 3.071-.171.171-.853-9.212-2.388-18.766-3.412-28.149-4.777-2.388-.341-7.506-1.876-11.089-5.118-.852-.853-5.97-6.653-9.382-15.012-2.559-6.483-1.195-5.971 3.582-3.242 4.606 2.73 18.084 10.577 19.789 11.43 2.389 1.195 4.607 1.877 7.848 1.877 8.189 0 16.377-.853 24.566-1.877 2.388-.511 2.218-1.023-.512-1.023Zm-109.865-56.638c-.682-.512-9.724.511-15.695-3.583-3.753-2.559-6.824-5.971-9.724-9.212-2.388-2.559-5.971-6.654-7.847-10.577.682 2.559 2.047 4.947 3.241 7.165 2.73 4.777 6.312 9.553 10.236 13.477 4.265 4.265 9.383 5.459 14.33 8.359 4.777 2.73-1.194 9.554-3.412 11.772-3.753 3.582-17.571.853-26.784-3.924-9.041-4.606-17.742-10.407-25.931-15.695-.341-.171-.682.341-.341.512 9.554 8.7 20.643 15.865 32.414 21.154 3.071 1.364 6.141 2.559 9.212 3.412l1.535 1.023c3.924 3.071-.341 7.507-3.07 9.042-5.118 2.9-14.33.682-20.984-1.535-7.165-2.218-14.159-5.46-20.813-8.872-.512-.341-.853.342-.512.683 6.142 4.606 14.331 9.042 23.031 11.942 4.606 1.535 7.506 4.947 1.536 6.653-1.195.341-2.389.682-3.583.853-16.036.853-33.437-3.753-46.914-12.795-12.113-8.189-16.207-21.154-17.401-34.631-1.024 4.435-1.536 8.871-1.365 13.306.17 4.095 1.023 8.019 2.559 11.601 0 0 0 .171.17.171.853 1.876 1.877 3.582 2.901 5.118 0 0 0 .17.17.17.171.341.341.512.683.853 3.412 4.777 7.676 9.042 12.453 12.113 5.459 3.582 21.496 4.606 35.314 5.118h.341c1.194 0 2.389 0 3.412.17h10.577c.683 0 1.365 0 2.047-.17h.342c.682-.171 1.194-.171 1.706-.512.17 0 .341-.171.511-.171.512-.17.853-.341 1.365-.512.341-.17.512-.17.853-.341.171-.17.341-.17.512-.341 2.729-1.535 4.777-3.753 5.8-5.289 3.242 0 6.312-.853 9.212-2.558 4.095-2.559 6.824-6.995 7.166-11.431.511 0 .853 0 1.364-.17 6.142-1.024 9.213-6.995 10.748-12.624.171-2.901.682-8.018-1.365-9.724Z" fill="#F4905D"/><path d="M454.059 288.984c-2.729 23.201-12.283 46.061-26.613 64.656-.171.341.171.683.341.341 9.212-7.506 14.672-17.742 19.278-28.319 4.947-11.6 7.847-24.054 7.335-36.678-.17-.171-.341-.171-.341 0ZM170.867 270.9c-3.412 13.648-1.877 28.49.512 42.138 0 .341.341.17.511 0 1.024-13.989-.682-28.149-.682-42.138 0-.17-.341-.17-.341 0Zm77.792 165.309c18.084 17.231 46.573 35.997 72.163 24.055.341-.171.171-.683-.17-.512-26.955 7.847-50.668-9.042-71.822-23.884-.171 0-.341.171-.171.341Zm69.434 29.173c4.776 1.364 9.041.341 12.624-3.242.17-.17 0-.511-.341-.511-3.583 1.876-8.189 3.241-12.113 3.411-.341 0-.341.342-.17.342Z" fill="#F5F5F5"/><path d="M414.651 60.553c-20.131-8.53-85.981-5.97-121.295-2.218-14.501 1.536-24.225 4.777-29.684 10.748-1.024 1.194-2.047 3.07-2.73 5.46 4.777-2.901 10.066-5.29 15.695-6.825 11.942-3.241 24.908-4.094 37.191-4.947 24.566-1.535 49.644-1.706 74.21-.683 12.624.512 29.684 1.024 34.29 15.354 2.729 8.36 2.559 17.913 2.388 26.614-.17 9.894-1.194 19.959-4.265 29.342-.511 1.706-1.194 3.412-2.047 4.777 8.53-3.753 11.771-9.895 12.454-28.149.512-11.941-.171-28.49-2.389-35.313-2.047-5.971-6.141-10.919-13.818-14.16Z" fill="#103E82"/><path d="M267.254 156.77c30.708 5.459 102.018 5.289 144.667-.17 7.848-1.024 15.013-5.63 19.619-11.772-6.824 5.63-16.889 7.165-20.642 8.018-8.871 1.706-18.425 2.048-26.955 2.559a686.43 686.43 0 0 1-87.858 1.024c-12.624-.682-27.125-1.535-38.555-7.677-10.406-5.63-13.477-17.401-15.183-28.319-1.706-10.577-1.706-21.837-1.023-32.584.341-5.971 1.364-12.625 3.923-18.425-2.217 2.559-3.923 5.63-4.947 9.212-3.583 13.307-2.73 35.996 0 51.35 3.583 20.643 16.719 25.078 26.954 26.784Z" fill="#1B4C9B"/><path d="M243.371 43.493c.682 8.7-7.165 17.06-11.771 23.714-5.801 8.188-9.213 17.4-11.089 27.295-1.706 9.042-.683 17.572 1.535 26.443 1.024 4.606 2.047 9.383 1.365 14.159-.683 5.118-4.265 8.36-8.701 9.213 1.706 1.364 4.436 1.364 7.165.853 3.242-.512 6.313-1.706 6.483-5.63.341-4.094-.341-8.871-.682-12.283-.683-7.848-4.606-14.33-4.606-22.519.17-28.149 12.794-43.502 23.201-55.444 1.365-.853-.341-4.095-2.9-5.8Z" fill="#C37A87"/><path d="M566.312 127.598c3.412 4.435 1.195 4.094-2.558 4.265-35.314 1.535-70.799 1.535-106.283 1.706-.341 0-10.236 1.023-.512-2.73 26.272-10.406 53.056-20.301 80.181-27.637 5.63-1.535 5.289-1.194 8.53 1.706 3.242 2.901 6.142 6.142 9.042 9.213 3.924 4.265 8.018 8.7 11.6 13.477Zm-381.456 29.854c-27.808-6.141-55.956-11.088-83.934-16.547-8.36-1.706-4.777 2.558-3.412 5.8 2.9 6.994 5.8 13.818 9.212 20.472 2.559 4.947 2.9 4.606 8.359 3.923 23.543-2.729 46.915-6.312 70.116-10.406 9.042-1.536 3.412-2.559-.341-3.242Zm313.388-76.257c-4.947-1.706-10.236-2.9-15.524-4.094-3.071-.682-5.63 0-7.336 2.218-7.677 9.894-14.842 20.471-22.007 30.878-4.436 6.312-1.877 4.435 1.876 2.218 14.501-8.701 29.684-16.548 43.844-25.931 4.265-2.9 3.412-3.753-.853-5.289Zm-331.983 19.619a316.92 316.92 0 0 1-11.43 4.436c-5.801 2.217-4.607 2.9-.683 5.118 10.407 5.629 21.154 10.747 31.902 16.036 4.947 2.388 5.118 1.876 2.218-2.389a292.28 292.28 0 0 0-14.842-20.983c-2.389-3.412-3.583-3.753-7.165-2.218Zm310.488 71.31c-6.824-5.63-13.819-10.918-20.984-16.036-2.559-1.877-3.753-1.365-2.388 1.706 4.947 10.918 9.724 22.007 15.012 32.754 2.73 5.63 3.242 5.118 5.459-.17 1.536-3.583 3.071-6.995 4.607-10.407 2.559-5.971 1.706-5.118-1.706-7.847Zm-283.363.512c-9.554 7.335-18.937 15.012-27.978 23.03-3.924 3.412-3.242 4.436.853 4.095 3.07-.171 5.971-.341 9.041-.853 4.265-.683 5.801-1.536 9.383-6.654 4.095-5.97 8.018-11.771 11.771-18.083 4.095-7.336-1.194-3.071-3.07-1.535Z" fill="#EB8382"/><path d="M476.237 184.577c-.341.171-.853.171-1.194.342-4.777 1.023-7.848-5.289-10.066-8.53a491.651 491.651 0 0 1-10.065-15.695c-.512-1.024-1.194-1.877-1.706-2.9 4.947 10.918 9.724 22.007 14.842 32.754 2.73 5.63 3.241 5.118 5.459-.17 1.194-1.877 2.047-3.753 2.73-5.801Zm78.475-70.627c-1.024-1.194-2.047-2.218-3.071-3.412 1.024 2.218 1.876 4.606 2.9 6.824 1.535 3.241 4.436 9.553-.853 10.577-5.971 1.194-12.454 1.194-18.424 1.706-21.666 1.365-43.503 2.218-65.169 3.241-5.63.171-11.089.512-16.718.853 1.194.341 3.923 0 4.265 0 35.313-.341 70.798-.17 106.282-1.706 3.753-.17 5.971.171 2.559-4.265-3.753-4.947-7.848-9.383-11.771-13.818ZM485.62 90.237c-3.924 2.9-7.848 5.97-11.772 8.87-4.435 3.242-8.7 6.654-12.965 9.896 12.795-7.507 25.931-14.33 38.214-22.69 4.265-2.9 3.412-3.753-.853-5.118-3.412-1.194-6.824-2.047-10.236-2.9 1.535 1.365 2.559 2.9 2.73 4.947.341 3.242-2.901 5.289-5.118 6.995Zm-292.234 82.399-.512.511c-2.218 5.971-11.089 16.378-12.454 17.743a52.251 52.251 0 0 1-10.747 8.7c2.047-.171 3.923-.341 5.8-.682 4.265-.683 5.8-1.536 9.383-6.654 4.094-5.971 8.018-11.771 11.771-18.083 3.924-7.336-1.365-3.071-3.241-1.535Zm-15.354-51.862c-4.948-3.071-10.065-6.312-14.672-9.895-2.047-1.535-3.923-3.582-4.265-6.141v-1.195c-1.535.512-2.9 1.195-4.435 1.706-5.8 2.218-4.606 2.901-.682 5.118 10.406 5.63 21.154 10.748 31.901 16.037 1.877.853 2.9 1.364 3.583 1.535-3.583-2.388-7.506-4.777-11.43-7.165Zm10.577 39.237c-15.866 1.706-31.902 2.559-47.938 3.583-4.947.341-9.895.512-14.842.341-5.118-.17-10.748-.512-15.354-2.729-4.777-2.218-7.677-6.312-10.918-10.066 2.218 5.46 4.606 10.919 7.336 16.207 2.559 4.948 2.9 4.606 8.359 3.924 23.542-2.73 46.914-6.312 70.116-10.407 1.364-.341 2.388-.682 3.241-.853Z" fill="#C37A87"/></svg><svg fill="none" viewBox="0 0 519 469" id="hero-person-bg" xmlns="http://www.w3.org/2000/svg"><path opacity=".3" d="M285.585 468.829c128.635 0 232.915-104.28 232.915-232.915S414.22 2.999 285.585 2.999c-128.636 0-232.915 104.28-232.915 232.915s104.279 232.915 232.915 232.915Z" fill="#4E8FD3"/><path opacity=".3" d="M232.915 465.829c128.635 0 232.915-104.28 232.915-232.915S361.55-.001 232.915-.001C104.279-.001 0 104.279 0 232.914s104.279 232.915 232.915 232.915Z" fill="#4E8FD3"/><path d="M260.492 467.829c128.635 0 232.915-104.28 232.915-232.915S389.127 1.999 260.492 1.999 27.577 106.279 27.577 234.914s104.28 232.915 232.915 232.915Z" fill="url(#ia)"/><defs><linearGradient id="ia" x1="260.492" y1="1.999" x2="260.492" y2="467.829" gradientUnits="userSpaceOnUse"><stop stop-color="#826F8C"/><stop offset="1" stop-color="#446381"/></linearGradient></defs></svg><svg fill="none" viewBox="0 0 86 49" id="hero-vr-glasses" xmlns="http://www.w3.org/2000/svg"><path d="M33.184 9.739 17.67 8.603C44.86 1.846 64.375-.587 70.916.117 77.456.819 84.7 4.874 85.24 12.44c.54 7.568.378 12.434.378 12.434-1.405 5.676-15.946 12.217-15.946 12.217s-4.109-6.92-4.217-11.136c-.108-4.217.703-7.19.703-7.19 3.027-1.243 9.298-2.973 10.92-6.378 4.432-9.298-17.677-6.65-21.245-6.271-7.568.81-15.19 1.946-22.65 3.622Z" fill="url(#ka)"/><path d="M1.67 19.145c.972-2.865 2.648-5.568 5.35-6.703 0 0 .055 0 .055-.054l13.082-5.784a7.495 7.495 0 0 1 2.703-.81C29.4 5.197 36.535 6.82 43.293 7.9c.216.054.432.054.649.108l.648.163c6.812 1.513 13.893 2.648 20.542 5.784 4 1.892 6.487 6.162 7.838 10.163 2.217 6.757 1.136 14.325-3.675 17.352h-.055c-.648.378-1.297.703-2.054.919L54.97 48.012c-1.675.865-3.675 1.189-6.108.865-7.676-1.028-17.947-3.136-17.947-3.136s-10.217-1.838-17.947-3.73c-10.379-2.649-14-14.757-11.298-22.866Z" fill="url(#kb)"/><path d="M1.669 19.144c1.189-3.513 3.514-6.865 7.514-7.243 6.54-.595 13.676 1.027 20.433 2.108.216.054.433.054.649.108l.649.162c6.81 1.514 13.892 2.65 20.541 5.784 4 1.892 6.487 6.163 7.839 10.163 3.027 9.19-.108 20.001-10.487 18.596-7.677-1.027-17.947-3.136-17.947-3.136s-10.217-1.837-17.947-3.73C2.588 39.362-1.034 27.253 1.669 19.144Z" fill="url(#kc)"/><path d="M4.101 20.442c1.081-3.135 3.19-6.108 6.811-6.433 5.946-.486 12.433.92 18.596 1.892.216.054.378.054.595.108.216.055.378.109.594.109 6.163 1.351 12.65 2.378 18.65 5.135 3.676 1.676 5.892 5.46 7.135 9.028 2.757 8.162-.108 17.73-9.514 16.541-6.973-.919-16.27-2.81-16.27-2.81s-9.299-1.623-16.326-3.352C4.912 38.334 1.668 27.632 4.1 20.442Z" fill="url(#kd)"/><path d="m31.346 11.307 5.622-1.892c.216-.054.486-.108.756 0l10.325 2.27c.379.054.54.54.217.649l-5.622 1.892c-.217.054-.487.108-.757 0l-10.325-2.27c-.324-.055-.54-.541-.216-.65Z" fill="url(#ke)"/><path d="M29.508 15.9c.217.055.379.055.595.109.216.054.378.108.595.108l12.217 30.11a262.208 262.208 0 0 1-12.001-2.162L18.75 14.225c3.622.433 7.244 1.135 10.757 1.676Z" fill="url(#kf)"/><path d="M42.104 18.658 53.13 45.687c-1.621.973-3.622 1.46-6.162 1.135-.163 0-.379-.054-.595-.054L34.21 16.928c2.649.487 5.298 1.027 7.893 1.73Z" fill="url(#kg)"/><defs><linearGradient id="ka" x1="58.858" y1="-13.286" x2="48.281" y2="30.61" gradientUnits="userSpaceOnUse"><stop stop-color="#EEBA9C"/><stop offset=".989" stop-color="#EB8382"/></linearGradient><linearGradient id="kb" x1="15.908" y1="8.232" x2="69.615" y2="55.876" gradientUnits="userSpaceOnUse"><stop stop-color="#826F8C"/><stop offset=".995" stop-color="#446381"/></linearGradient><linearGradient id="kc" x1="19.53" y1="4.592" x2="47.032" y2="69.467" gradientUnits="userSpaceOnUse"><stop stop-color="#E474C6"/><stop offset=".989" stop-color="#0E7CF7"/></linearGradient><linearGradient id="kd" x1="27.46" y1="13.379" x2="35.569" y2="61.33" gradientUnits="userSpaceOnUse"><stop stop-color="#D2F9FF"/><stop offset=".995" stop-color="#618DD6"/></linearGradient><linearGradient id="ke" x1="36.751" y1="5.531" x2="43.626" y2="19.634" gradientUnits="userSpaceOnUse"><stop stop-color="#6F469E"/><stop offset="1" stop-color="#360F6E"/></linearGradient><linearGradient id="kf" x1="42.457" y1="48.505" x2="-35.406" y2="-75.036" gradientUnits="userSpaceOnUse"><stop stop-color="#D2F9FF"/><stop offset=".436" stop-color="#A0CAED"/><stop offset=".995" stop-color="#618DD6"/></linearGradient><linearGradient id="kg" x1="57.956" y1="49.643" x2="-18.906" y2="-45.377" gradientUnits="userSpaceOnUse"><stop stop-color="#D2F9FF"/><stop offset=".995" stop-color="#618DD6"/></linearGradient></defs></svg><svg fill="none" viewBox="0 0 8 8" id="rate-star" xmlns="http://www.w3.org/2000/svg"><g clip-path="url(#la)"><path d="M2.46 7.014c-.163.084-.35-.064-.316-.251l.352-2.006-1.494-1.424c-.14-.133-.067-.376.12-.403l2.077-.295L4.125.8a.218.218 0 0 1 .393 0l.927 1.835 2.077.295c.187.027.26.27.12.403L6.148 4.757 6.5 6.763c.033.187-.153.335-.316.25L4.32 6.058l-1.861.957Z" fill="#FFB359"/></g><defs><clipPath id="la"><path fill="#fff" transform="translate(.928 .464)" d="M0 0h6.786v6.786H0z"/></clipPath></defs></svg></svg>