<svg width="420" height="588" viewBox="0 0 420 588" fill="none" xmlns="http://www.w3.org/2000/svg">
<path opacity="0.5" d="M92.7944 575.207C135.944 552.828 207.762 512.781 260.96 478.622C314.159 444.464 339.576 417.668 308.839 399.706C273.669 379.388 207.466 402.945 148.357 441.814C83.6324 484.512 54.9645 508.069 24.5232 531.037C5.01711 545.761 15.3612 558.128 34.2762 569.907C53.4867 581.98 68.8552 587.575 92.7944 575.207Z" fill="url(#paint0_linear_207_2)"/>
<path d="M131.216 4.72803L413.641 167.124V389.484L131.216 227.089V4.72803Z" fill="#826F8C" fill-opacity="0.9"/>
<path d="M419.964 163.39L413.641 167.123V389.484L419.964 385.751V163.39Z" fill="#446381"/>
<path d="M407.786 171.09V303.153L136.602 147.058V15.2278L407.786 171.09Z" fill="#506898"/>
<path d="M240.345 206.789L307.321 245.288L328.632 333.252L192.572 254.854L240.345 206.789Z" fill="#786D8A"/>
<path d="M159.552 69.8263C159.552 63.9931 163.299 61.1932 167.748 63.7598C168.685 64.4597 169.856 65.1597 170.793 66.093C172.666 63.2931 175.945 62.5931 179.692 64.6931C184.141 67.2597 187.654 72.8595 189.293 78.6927C190.698 77.7594 192.572 77.7594 194.679 79.1594C197.724 81.026 200.534 84.7592 201.939 88.7258C202.876 88.7258 203.813 88.9591 204.983 89.4257C208.028 91.059 210.604 95.2589 211.306 99.2255L159.552 69.8263Z" fill="white"/>
<path d="M390.691 203.056C390.457 195.823 386.241 187.423 380.855 184.39C379.684 183.69 378.513 183.223 377.342 183.223C375.001 177.39 371.254 172.024 366.804 169.457C361.652 166.424 357.203 168.057 355.095 172.957C353.456 169.924 351.114 167.357 348.538 165.957C344.791 163.857 341.747 164.557 339.873 167.59C338.702 166.19 337.531 165.024 336.126 164.324C332.613 162.224 329.569 163.624 328.632 167.357L390.691 203.056Z" fill="white"/>
<path d="M213.414 113.459C213.882 109.959 216.224 108.325 219.269 110.192C220.674 110.892 221.845 112.292 223.015 113.925C224.186 111.592 226.762 110.892 229.338 112.525C232.617 114.392 235.427 118.825 236.364 123.258C237.066 123.025 238.237 123.258 239.174 123.725C241.282 124.892 243.155 127.925 243.858 130.958L213.414 113.459Z" fill="white"/>
<path d="M309.898 186.723C310.366 183.457 312.474 182.057 315.284 183.69C316.455 184.39 317.626 185.79 318.562 187.19C319.733 185.09 321.841 184.39 324.417 185.79C327.461 187.423 330.037 191.623 330.74 195.59C331.443 195.356 332.379 195.59 333.316 196.056C335.424 197.223 337.063 200.023 337.766 202.589L309.898 186.723Z" fill="white"/>
<path d="M147.609 98.2924C148.077 95.0258 150.185 93.6259 152.995 95.2592C154.166 95.9592 155.337 97.3591 156.273 98.7591C157.444 96.6591 159.552 95.9592 162.128 97.3591C165.172 98.9924 167.748 103.192 168.451 107.159C169.153 106.926 170.09 107.159 171.027 107.626C173.135 108.792 174.774 111.592 175.476 114.159L147.609 98.2924Z" fill="white"/>
<path d="M291.631 162.924C292.1 159.657 294.207 158.257 297.018 159.891C298.189 160.591 299.359 161.99 300.296 163.39C301.467 161.29 303.575 160.59 306.151 161.99C309.195 163.624 311.771 167.824 312.474 171.79C313.176 171.557 314.113 171.79 315.05 172.257C317.157 173.423 318.797 176.223 319.499 178.79L291.631 162.924Z" fill="white"/>
<path d="M329.569 224.522C330.506 220.789 333.784 223.589 336.595 225.222C334.955 220.089 336.126 214.956 340.107 217.756C340.107 215.422 340.81 213.089 342.683 213.789C343.152 213.789 343.386 214.022 343.854 214.489C343.386 212.389 343.62 210.523 344.557 209.356C347.133 206.789 351.114 210.989 352.285 215.889C355.329 215.422 359.545 216.589 361.418 222.189C366.57 221.256 371.722 232.922 369.38 236.655C372.659 239.222 374.532 245.988 371.722 246.922C377.108 254.388 376.874 264.654 371.02 265.121C371.722 272.354 366.336 275.154 361.652 267.921C360.95 268.154 360.481 268.388 359.779 268.388C359.076 272.121 358.374 276.787 358.374 280.521C358.14 287.287 358.374 295.687 358.374 303.62C358.374 310.387 359.31 319.72 359.545 322.286L348.304 315.753C349.006 314.12 350.646 308.987 351.114 303.853C351.582 297.787 351.817 281.221 349.943 276.787C348.07 272.588 342.683 264.421 341.044 258.355C340.342 256.021 339.873 253.688 339.639 251.821C335.19 248.788 330.74 241.322 333.784 235.955C331.208 232.922 328.867 228.022 329.569 224.522ZM343.152 260.221C345.962 265.354 351.348 273.988 351.348 273.988C351.348 273.988 351.348 267.921 351.817 262.788C351.582 262.321 351.582 261.855 351.348 261.621C349.475 261.855 347.367 259.988 345.494 256.955C344.791 256.021 344.089 254.855 343.62 253.688C342.918 253.921 341.981 253.921 341.278 253.455C341.513 255.321 341.981 257.888 343.152 260.221Z" fill="#EFC8C5"/>
<path d="M221.845 151.957C220.908 147.057 217.629 146.124 214.819 144.724C216.458 141.457 215.288 134.924 211.306 133.291C211.306 130.958 210.604 127.924 208.73 126.291C208.262 126.058 208.028 125.825 207.559 125.825C208.028 124.425 207.794 122.091 206.857 119.758C204.281 114.391 200.3 113.925 199.129 117.425C196.084 113.458 191.869 109.725 189.996 113.225C184.844 106.225 179.692 112.058 182.034 118.591C178.755 117.191 176.881 122.091 179.692 126.291C174.305 127.458 174.54 137.958 180.394 145.424C179.692 151.957 185.078 160.824 189.762 159.19C190.464 160.124 190.932 161.057 191.635 161.99C192.338 166.423 193.04 172.023 193.04 175.756C193.274 182.756 193.04 190.923 193.04 198.856C193.04 205.622 192.103 213.789 191.869 216.122L203.11 222.655C202.407 220.322 200.768 213.089 200.3 207.489C199.831 200.722 199.597 183.923 201.471 182.056C203.344 180.19 208.73 177.856 210.37 173.89C211.072 172.257 211.541 170.623 211.775 169.223C216.224 171.323 220.674 168.757 217.629 160.357C220.205 158.724 222.781 156.624 221.845 151.957ZM208.262 172.257C205.452 174.357 200.066 176.456 200.066 176.456C200.066 176.456 200.066 170.39 199.597 164.79C199.831 164.557 199.831 164.323 200.066 164.09C201.939 166.657 204.047 167.123 205.92 166.19C206.623 165.957 207.325 165.723 207.794 165.023C208.496 165.957 209.433 166.89 210.136 167.59C209.901 169.457 209.433 171.323 208.262 172.257Z" fill="#EFC8C5"/>
<path d="M335.189 301.053C334.955 299.887 335.189 298.72 335.892 298.02C337.063 296.853 338.702 297.553 340.107 298.953C340.341 297.32 340.81 295.92 341.98 296.153C342.917 296.387 343.854 297.32 344.791 298.487C344.557 297.087 344.791 295.92 345.493 295.22C346.43 293.82 348.303 294.287 349.943 295.453C351.582 296.62 352.753 298.953 353.455 301.287C353.924 301.52 354.392 301.987 355.095 302.453C356.266 303.153 357.202 303.853 358.139 305.02C359.544 306.887 360.013 308.986 359.778 310.853C361.652 312.02 363.76 313.886 364.696 316.92C365.633 320.42 364.228 321.586 362.354 321.819C362.823 323.219 363.057 324.619 362.589 325.786C361.886 328.586 359.31 327.653 357.202 326.253C355.563 328.353 352.05 326.486 349.709 323.219C347.835 324.153 343.854 321.819 342.215 317.853C340.81 319.253 338.702 318.786 336.594 316.22C334.252 313.42 334.252 310.386 335.189 308.52C334.252 307.587 333.55 305.953 333.316 304.553C332.379 301.753 333.55 300.587 335.189 301.053Z" fill="#F5E2E1"/>
<path d="M185.078 204.923C184.844 203.756 185.078 202.589 185.781 201.889C186.952 200.723 188.591 201.423 189.996 202.823C190.23 201.189 190.698 199.79 191.869 200.023C192.806 200.256 193.743 201.189 194.68 202.356C194.445 200.956 194.679 199.79 195.382 199.09C196.319 197.69 198.192 198.156 199.832 199.323C201.471 200.49 202.642 202.823 203.344 205.156C203.813 205.389 204.281 205.856 204.984 206.323C206.154 207.023 207.091 207.723 208.028 208.889C209.433 210.756 209.901 212.856 209.667 214.722C211.541 215.889 213.648 217.756 214.585 220.789C215.522 224.289 214.117 225.456 212.243 225.689C212.712 227.089 212.946 228.489 212.477 229.655C211.775 232.455 209.199 231.522 207.091 230.122C205.452 232.222 201.939 230.355 199.597 227.089C197.724 228.022 193.743 225.689 192.103 221.722C190.698 223.122 188.591 222.656 186.483 220.089C184.141 217.289 184.141 214.256 185.078 212.389C184.141 211.456 183.439 209.823 183.205 208.423C182.268 205.623 183.673 204.223 185.078 204.923Z" fill="#F5E2E1"/>
<path d="M158.147 203.289C157.912 202.589 158.147 201.656 158.615 201.422C159.318 200.723 160.254 201.189 161.191 202.122C161.191 201.189 161.659 200.256 162.362 200.489C162.83 200.489 163.533 201.189 164.001 201.889C163.767 200.956 164.001 200.256 164.47 199.789C165.172 198.856 166.109 199.089 167.28 200.023C168.217 200.723 169.153 202.122 169.622 203.522C169.856 203.756 170.324 203.989 170.793 204.222C171.495 204.689 171.964 204.922 172.666 205.856C173.603 207.022 173.837 208.422 173.603 209.589C174.774 210.289 176.179 211.456 176.647 213.322C177.35 215.655 176.413 216.355 175.242 216.355C175.476 217.055 175.71 217.989 175.476 218.689C175.008 220.322 173.369 219.855 171.963 218.922C171.027 220.089 168.685 218.922 167.28 217.055C166.109 217.522 163.533 216.122 162.596 213.556C161.659 214.489 160.254 214.255 159.083 212.622C157.678 210.989 157.678 209.122 158.147 207.722C157.678 207.022 157.21 206.089 156.976 205.389C156.507 203.756 157.21 202.822 158.147 203.289Z" fill="#F5E2E1"/>
<path d="M324.417 274.221C324.183 273.521 324.417 272.587 324.886 272.354C325.588 271.654 326.525 272.121 327.462 273.054C327.462 272.121 327.93 271.187 328.633 271.421C329.101 271.421 329.803 272.121 330.272 272.821C330.038 271.887 330.272 271.187 330.74 270.721C331.443 269.787 332.379 270.021 333.55 270.954C334.487 271.654 335.424 273.054 335.892 274.454C336.126 274.687 336.595 274.921 337.063 275.154C337.766 275.621 338.234 275.854 338.937 276.787C339.873 277.954 340.107 279.354 339.873 280.52C341.044 281.22 342.449 282.387 342.918 284.254C343.62 286.587 342.684 287.287 341.513 287.287C341.747 287.987 341.981 288.92 341.747 289.62C341.278 291.254 339.639 290.787 338.234 289.854C337.297 291.02 334.955 289.854 333.55 287.987C332.379 288.454 329.803 287.054 328.867 284.487C327.93 285.42 326.525 285.187 325.354 283.554C323.949 281.92 323.949 280.054 324.417 278.654C323.949 277.954 323.48 277.021 323.246 276.321C322.544 274.454 323.246 273.754 324.417 274.221Z" fill="#F5E2E1"/>
<path d="M148.545 173.424C148.311 172.49 148.545 171.557 149.014 171.09C149.95 170.157 151.121 170.857 152.292 172.024C152.526 170.857 152.761 169.69 153.932 169.69C154.634 169.69 155.571 170.624 156.039 171.557C155.805 170.39 156.039 169.457 156.508 168.757C157.21 167.824 158.615 167.824 160.02 168.99C161.191 169.924 162.362 171.79 162.831 173.657C163.299 173.89 163.533 174.124 164.236 174.59C165.172 175.057 165.875 175.523 166.577 176.69C167.514 178.323 167.983 179.957 167.983 181.357C169.622 182.29 171.261 183.69 171.964 186.257C172.666 189.056 171.495 189.99 170.09 190.223C170.559 191.156 170.559 192.323 170.324 193.256C169.622 195.356 167.748 194.89 165.875 193.49C164.47 195.123 161.66 193.723 160.02 191.156C158.615 191.856 155.337 189.99 154.166 186.723C152.995 187.89 151.356 187.423 149.482 185.557C147.609 183.223 147.609 180.89 148.311 179.257C147.609 178.557 146.906 177.157 146.672 176.223C146.438 173.89 147.374 172.957 148.545 173.424Z" fill="#F5E2E1"/>
<path d="M371.956 303.153C371.722 302.22 371.956 301.287 372.425 300.82C373.361 299.887 374.532 300.587 375.703 301.753C375.937 300.587 376.172 299.42 377.342 299.42C378.045 299.42 378.982 300.353 379.45 301.287C379.216 300.12 379.45 299.187 379.918 298.487C380.621 297.553 382.026 297.553 383.431 298.72C384.602 299.653 385.773 301.52 386.241 303.387C386.71 303.62 386.944 303.853 387.647 304.32C388.583 304.787 389.286 305.253 389.988 306.42C390.925 308.053 391.393 309.686 391.393 311.086C393.033 312.02 394.672 313.42 395.375 315.986C396.077 318.786 394.906 319.719 393.501 319.953C393.969 320.886 393.969 322.053 393.735 322.986C393.033 325.086 391.159 324.619 389.286 323.219C387.881 324.853 385.071 323.453 383.431 320.886C382.026 321.586 378.748 319.719 377.577 316.453C376.406 317.62 374.766 317.153 372.893 315.286C371.02 312.953 371.02 310.62 371.722 308.986C371.02 308.286 370.317 306.886 370.083 305.953C369.849 303.62 370.785 302.687 371.956 303.153Z" fill="#F5E2E1"/>
<path d="M269.618 238.522L274.536 226.156L276.644 227.322L274.302 241.089C272.897 240.389 271.257 239.455 269.618 238.522Z" fill="white"/>
<path d="M263.295 253.922L268.447 241.089C270.087 242.022 271.96 242.955 273.833 243.889L271.257 258.355C268.681 256.955 266.105 255.322 263.295 253.922Z" fill="white"/>
<path d="M256.27 270.954L262.358 256.255C265.169 257.888 267.979 259.521 270.789 261.155L267.276 277.721C263.764 275.388 260.017 273.054 256.27 270.954Z" fill="white"/>
<path d="M266.808 281.687L263.764 295.92L249.244 287.52L254.865 274.221C258.846 276.554 262.827 279.121 266.808 281.687Z" fill="white"/>
<path d="M419.964 163.391L413.641 167.124L131.216 4.7281L137.539 0.994873L419.964 163.391Z" fill="#826F8C"/>
<path d="M129.103 241.379C135.186 241.379 139.916 244.41 139.916 247.776C139.916 251.48 135.186 254.173 129.103 254.173C123.021 254.173 118.29 251.143 118.29 247.776C118.29 244.41 123.359 241.379 129.103 241.379Z" fill="#002F68"/>
<path d="M129.441 241.379C133.834 241.379 137.551 243.399 137.551 245.756C137.551 248.113 133.834 250.133 129.441 250.133C125.048 250.133 121.331 248.113 121.331 245.756C121.331 243.399 125.048 241.379 129.441 241.379Z" fill="#DF8083"/>
<path d="M129.103 252.49C129.103 252.49 127.076 258.214 127.076 265.284C126.738 272.354 127.414 283.801 123.021 288.851C118.628 294.238 114.573 287.505 114.573 280.098C114.235 272.691 118.628 248.113 118.628 248.113L129.103 252.49Z" fill="#002F68"/>
<path d="M128.09 265.284C128.09 265.284 126.738 263.601 124.711 264.274C123.359 264.611 120.656 266.294 119.642 266.294C118.628 266.294 116.263 264.274 116.263 264.274L117.277 258.214C117.277 258.214 111.194 260.571 110.18 265.958C108.829 271.344 106.463 272.354 101.057 274.375C95.65 276.395 89.9055 280.098 89.9055 280.098L98.3534 293.565C98.3534 293.565 111.87 281.445 113.222 280.098C114.573 278.751 119.304 274.038 120.318 273.028C120.994 272.018 123.697 269.324 124.711 268.651C125.387 267.304 128.09 265.284 128.09 265.284Z" fill="#FFC5B3"/>
<path d="M126.738 474.362C126.738 474.362 110.18 505.336 106.463 518.467C104.436 525.537 99.7048 551.798 99.7048 551.798C99.7048 551.798 102.746 547.758 107.477 546.411C110.518 545.738 114.911 545.065 117.614 548.768C122.345 554.828 123.021 559.205 115.587 565.939C112.546 568.969 106.801 573.683 102.07 578.059C96.3257 583.11 89.5673 588.16 83.8227 587.823C77.7402 587.486 73.6853 584.456 74.0232 577.386C74.3611 573.346 77.4023 566.949 77.4023 564.592C78.0782 558.195 79.4298 518.467 82.1331 493.889C83.4848 481.432 86.864 474.362 86.864 474.362H126.738Z" fill="#FFC5B3"/>
<path d="M57.4655 435.307C57.4655 435.307 40.9076 466.282 37.1906 479.412C35.1631 486.483 28.0668 516.11 28.0668 516.11C28.0668 516.11 37.5284 508.367 46.6522 511.734C55.1001 514.764 50.7072 520.824 43.6109 527.221C40.5697 530.251 36.1768 533.281 31.446 537.321C25.7014 542.372 24.0119 544.055 20.6327 545.065C14.8881 546.748 7.79187 546.075 8.12979 539.005C8.4677 534.965 8.80563 527.894 9.14355 525.538C9.81938 519.141 11.1711 479.412 13.8744 454.835C15.2261 442.378 18.6052 435.307 18.6052 435.307H57.4655Z" fill="#FFC5B3"/>
<path d="M87.2017 399.956C87.2017 399.956 111.87 434.297 119.304 448.774C121.669 453.488 128.09 463.925 128.09 468.975C128.09 474.699 126.062 481.432 126.062 481.432C126.062 481.432 111.194 493.553 99.0288 491.533C84.8363 489.176 80.4434 481.096 80.4434 481.096C80.4434 481.096 60.5064 456.855 52.0585 448.774C43.6106 440.694 29.4182 423.86 24.6873 411.74C20.9703 402.649 18.2669 379.418 24.6873 372.011C31.1077 364.604 87.2017 399.956 87.2017 399.956Z" fill="url(#paint1_linear_207_2)"/>
<path d="M56.4515 383.459L54.7619 432.951C54.7619 432.951 53.0723 450.795 52.0585 457.528C46.314 463.252 39.8936 465.945 33.8111 465.272C20.6324 463.252 11.1707 454.498 11.1707 454.498C11.1707 454.498 -2.34586 402.986 0.357466 391.539C3.06079 380.092 12.1845 367.298 12.1845 367.298L56.4515 383.459Z" fill="url(#paint2_linear_207_2)"/>
<path d="M83.4847 272.354C83.4847 272.354 95.9875 275.721 100.043 283.464C104.773 292.218 109.504 307.032 105.111 321.846C100.718 336.66 90.243 361.574 88.2155 366.288C86.5259 371.001 94.2979 379.082 92.6083 382.448C90.5808 385.815 86.5258 390.192 88.8912 391.539C91.2566 392.886 92.6083 400.293 92.6083 400.293C92.6083 400.293 60.5063 414.77 39.8935 406.689C19.6185 398.609 2.72278 382.112 2.72278 382.112C2.72278 382.112 5.08817 372.348 9.14316 366.961C13.1981 361.574 9.819 352.147 13.5361 349.454C17.2531 346.76 24.3494 345.414 23.6735 341.037C22.9977 336.66 19.9564 294.238 30.0939 280.771C40.2314 267.304 58.8168 265.62 58.8168 265.62L83.4847 272.354Z" fill="#446381"/>
<path d="M66.9269 206.364C55.4378 208.048 46.652 214.108 46.652 221.178C46.652 221.515 46.652 221.515 46.652 221.852C46.652 223.198 47.3279 224.545 48.0037 225.892C49.0175 224.208 50.3691 222.525 52.3966 221.178C56.1137 218.485 61.1824 216.465 66.9269 215.455V206.364Z" fill="#0E58C4"/>
<path d="M66.9268 206.701C55.4376 208.385 46.9897 214.445 46.9897 221.515C46.9897 221.852 46.9897 221.852 46.9897 222.189C46.9897 223.535 47.6656 224.882 48.3414 226.229C49.3551 224.545 50.7069 222.862 52.7344 221.515C56.1135 218.822 61.1822 216.802 66.9268 216.128V206.701Z" fill="#37A0F5"/>
<path d="M85.1744 211.415L115.587 228.922C117.276 229.932 118.966 228.922 118.966 226.566V214.445C118.966 212.088 117.614 209.395 115.587 208.385L85.1744 190.878C83.4849 189.868 81.7953 190.878 81.7953 193.234V205.355C82.1332 207.712 83.4849 210.405 85.1744 211.415Z" fill="#786D8A"/>
<path d="M114.235 230.942L117.614 228.922L116.6 226.566L112.545 228.249C112.545 228.586 114.235 230.942 114.235 230.942Z" fill="#7A6D8B"/>
<path d="M79.7677 192.561L83.1469 190.541L84.4985 191.888L81.4573 194.918L79.7677 192.561Z" fill="#806E8B"/>
<path d="M81.7954 213.435L112.208 230.942C113.897 231.952 115.587 230.942 115.587 228.586V216.465C115.587 214.108 114.235 211.415 112.208 210.405L81.7954 192.897C80.1058 191.887 78.4163 192.897 78.4163 195.254V207.375C78.7542 209.731 80.1058 212.425 81.7954 213.435Z" fill="url(#paint3_linear_207_2)"/>
<path d="M79.7678 192.561L67.9408 199.294L102.408 237.676L114.235 230.942L79.7678 192.561Z" fill="#A676D4"/>
<path d="M112.208 229.933L107.477 232.626C106.463 232.963 105.787 232.626 105.787 231.28V225.219C105.787 224.209 106.463 222.526 107.477 222.189L112.208 219.496C113.221 219.159 113.897 219.496 113.897 220.843V226.903C113.897 228.25 113.221 229.596 112.208 229.933Z" fill="#41A0E2"/>
<path d="M113.221 219.496L112.883 219.159L112.545 219.496L113.221 219.834V219.496Z" fill="#41A0E2"/>
<path d="M106.125 232.627H106.801L106.125 232.289V232.627Z" fill="#41A0E2"/>
<path d="M111.869 229.933L107.139 232.626C106.125 232.963 105.449 232.626 105.449 231.28V225.219C105.449 224.209 106.125 222.526 107.139 222.189L111.869 219.496C112.883 219.159 113.559 219.496 113.559 220.843V226.903C113.559 227.913 112.883 229.26 111.869 229.933Z" fill="white"/>
<path d="M111.532 224.883C111.532 226.229 110.518 227.913 109.504 228.586C108.491 229.259 107.477 228.586 107.477 227.239C107.477 225.893 108.491 224.209 109.504 223.536C110.856 222.526 111.532 223.199 111.532 224.883Z" fill="#786D8A"/>
<path d="M70.3063 220.169L100.719 237.676C102.408 238.686 104.098 237.676 104.098 235.319V223.199C104.098 220.842 102.746 218.149 100.719 217.138L70.3063 199.631C68.6167 198.621 66.9271 199.631 66.9271 201.988V214.108C66.9271 216.465 68.2788 219.159 70.3063 220.169Z" fill="#002F68"/>
<path d="M97.3392 240.706L102.746 237.676C102.746 237.676 100.718 234.309 100.381 234.309L95.9875 235.319L97.3392 240.706Z" fill="#002F68"/>
<path d="M62.8722 201.988L67.9409 199.295L69.9684 201.315L67.603 204.682L62.8722 201.988Z" fill="#002F68"/>
<path d="M66.9269 214.108V203.671C65.9132 203.335 64.8995 203.335 64.2236 203.335C63.2099 203.335 62.5341 204.345 62.5341 206.028V217.475C62.5341 219.495 63.2099 221.515 64.8995 222.862C65.2374 222.862 65.9133 223.535 66.5891 223.535C68.9545 224.545 75.3748 226.902 80.4436 229.932C83.8227 231.952 90.919 237.339 94.6361 240.033C95.9877 241.043 97.3393 240.033 97.3393 238.013V236.666L69.9682 220.842C68.2787 219.159 66.9269 216.465 66.9269 214.108Z" fill="#002F68"/>
<path d="M95.3125 221.179C93.285 218.485 88.2162 213.098 80.7821 209.058C76.0512 206.365 70.3066 204.681 66.9275 203.671V214.108C66.9275 216.465 68.2792 219.158 70.3066 220.169L97.6778 235.992V226.229C97.6778 223.872 96.3262 222.525 95.3125 221.179Z" fill="#002F68"/>
<path d="M75.3746 209.732C75.3746 209.059 75.3746 208.385 75.7125 208.049C73.3471 207.038 71.6576 208.722 71.6576 211.752C71.6576 215.119 73.6851 219.159 76.3884 220.506C78.4159 221.852 80.1054 220.842 80.7813 218.822C80.4433 218.822 80.4434 218.486 80.1055 218.486C77.4022 217.139 75.3746 213.099 75.3746 209.732Z" fill="#002F68"/>
<path d="M76.0503 208.048C75.7124 208.048 75.7124 207.711 75.3745 207.711C75.3745 208.385 75.0366 208.721 75.0366 209.395C75.0366 212.762 77.0641 216.802 79.7674 218.149C80.1053 218.149 80.1053 218.485 80.4432 218.485C80.4432 217.812 80.7811 217.475 80.7811 216.802C80.7811 213.435 78.7537 209.395 76.0503 208.048Z" fill="#41A0E2"/>
<path d="M89.5673 217.812C89.5673 217.139 89.5673 216.466 89.9052 216.129C87.5398 215.119 85.8502 216.802 85.8502 219.833C85.8502 223.199 87.8777 227.24 90.581 228.586C92.6085 229.933 94.2982 228.923 94.974 226.903C94.6361 226.903 94.636 226.566 94.2981 226.566C91.5948 225.219 89.5673 221.179 89.5673 217.812Z" fill="#002F68"/>
<path d="M90.2432 216.129C89.9053 216.129 89.9052 215.792 89.5673 215.792C89.5673 216.465 89.2294 216.802 89.2294 217.476C89.2294 220.842 91.2568 224.882 93.9602 226.229C94.2981 226.229 94.2981 226.566 94.636 226.566C94.636 225.893 94.974 225.556 94.974 224.882C94.974 221.852 92.9465 217.812 90.2432 216.129Z" fill="#41A0E2"/>
<path d="M92.2707 211.078L81.1195 204.345L82.4711 203.671L93.6224 210.068L92.2707 211.078Z" fill="#002F68"/>
<path d="M83.4849 209.394C77.0645 204.681 64.2236 206.364 58.817 217.811C55.7757 224.208 60.1686 241.379 60.8445 253.5C61.5203 263.263 58.1412 268.987 58.1412 268.987C58.1412 268.987 58.1412 268.987 66.5891 272.354C75.037 275.721 83.8227 272.354 83.8227 272.354L83.4849 257.54C83.4849 257.54 92.6085 256.193 93.9602 254.846C97.6772 251.479 99.7048 241.042 98.0152 227.575C95.3119 207.711 85.8503 211.078 83.4849 209.394Z" fill="#FFC5B3"/>
<path d="M127.752 258.55C127.752 258.55 128.428 259.223 129.103 260.233C129.779 261.243 129.441 262.253 128.765 262.253C128.428 262.59 128.09 262.59 128.09 262.59C128.09 262.59 128.765 263.937 129.441 264.947C129.779 265.957 128.427 266.63 128.09 266.63C127.752 266.63 129.103 267.64 129.103 268.65C129.103 269.66 127.076 269.324 127.076 269.324C127.076 269.324 126.4 261.243 127.752 258.55Z" fill="#FFC5B3"/>
<path d="M166.612 261.917C172.694 261.917 177.425 264.947 177.425 268.314C177.425 272.017 172.694 274.711 166.612 274.711C160.529 274.711 155.799 271.681 155.799 268.314C155.799 264.61 160.529 261.917 166.612 261.917Z" fill="#002F68"/>
<path d="M166.949 261.917C171.342 261.917 175.059 263.937 175.059 266.294C175.059 268.65 171.342 270.671 166.949 270.671C162.557 270.671 158.839 268.65 158.839 266.294C158.839 263.6 162.557 261.917 166.949 261.917Z" fill="#DD8084"/>
<path d="M166.611 272.691C166.611 272.691 164.584 278.414 164.584 285.485C164.246 292.555 164.922 304.002 160.529 309.052C156.136 314.439 152.081 307.706 152.081 300.299C151.743 292.892 156.136 268.314 156.136 268.314L166.611 272.691Z" fill="#002F68"/>
<path d="M94.2981 279.761C101.394 280.434 115.249 307.705 121.669 321.173C126.4 316.796 135.862 308.715 146.675 301.645C149.716 299.625 147.351 286.495 153.433 282.791C153.771 286.495 157.15 286.495 159.178 286.158C163.233 285.821 164.585 284.811 164.585 282.118C165.598 281.781 166.95 281.781 168.302 283.128C169.653 282.791 172.357 284.811 171.681 286.831C174.384 288.851 173.708 293.902 172.019 296.258C168.302 301.308 160.867 306.695 156.475 312.419C152.42 317.806 131.469 345.75 116.938 350.127C115.925 349.79 111.87 349.79 109.166 347.097C99.7047 337.67 85.5123 313.766 84.8365 299.625C84.1607 288.178 89.2294 279.088 94.2981 279.761Z" fill="#FFC5B3"/>
<path d="M91.5946 232.963C92.6083 229.596 94.9737 221.852 95.3116 218.822C95.9875 215.119 96.3254 209.732 91.2566 204.682C86.1879 199.631 68.9542 197.948 62.8717 201.315C56.7892 205.018 43.2726 211.415 48.0035 232.963C51.7205 250.133 55.4375 252.153 60.5063 256.194C65.2371 259.897 73.0092 260.57 73.0092 260.57C73.0092 260.57 77.4021 257.204 78.4159 250.807C78.7538 248.787 78.4159 242.39 78.4159 242.39C78.4159 242.39 73.685 233.299 77.4021 230.269C81.1191 226.902 85.1741 232.289 85.8499 234.646C88.8912 242.39 87.5395 256.867 87.5395 256.867C87.5395 256.867 92.2704 259.897 96.6633 258.55C99.0287 257.877 97.0012 248.113 97.0012 248.113C97.0012 248.113 92.2704 245.756 91.5946 232.963Z" fill="#002F68"/>
<path d="M101.732 224.882L99.7043 225.892V238.013L101.732 237.003V224.882Z" fill="#EB8382"/>
<path d="M99.7045 225.892L99.3666 225.556V237.34L99.7045 238.013V225.892Z" fill="#C37A87"/>
<path d="M99.3667 225.556L99.7046 225.893L101.732 224.883L101.056 224.546L99.3667 225.556Z" fill="white"/>
<path d="M100.719 226.229C99.705 226.902 97.6776 228.922 97.0018 229.596C92.271 233.636 83.823 236.329 74.6993 236.329C65.2377 236.329 57.1277 233.636 52.3969 229.596C51.0452 228.249 49.6935 226.902 49.0177 225.555C48.3419 224.209 48.004 221.852 47.6661 220.505L47.3281 222.862L47.6661 229.596C47.6661 229.932 47.6661 229.932 47.6661 230.269C47.6661 238.686 59.831 245.42 74.6993 245.42C85.5126 245.42 94.9742 241.716 99.3671 236.666L101.395 226.229H100.719Z" fill="#C37A87"/>
<path d="M101.056 226.229C100.381 226.902 98.0152 229.259 97.0015 229.932C91.9328 233.972 83.8227 236.666 74.0232 236.666C64.5615 236.666 56.1137 233.972 51.0449 229.932C49.3554 228.585 48.3416 227.239 47.3278 225.892C46.652 224.545 46.3141 223.199 45.9762 221.852V229.932C45.9762 230.269 45.9762 230.269 45.9762 230.605C45.9762 239.022 58.479 246.093 73.6852 246.093C83.1469 246.093 91.5948 243.399 96.6636 239.359C97.3394 238.686 99.7048 236.666 100.381 235.992V226.229H101.056Z" fill="url(#paint4_linear_207_2)"/>
<path d="M78.0779 197.275C74.6987 194.918 70.3058 194.918 65.575 197.949C57.8029 202.325 49.693 214.109 48.0034 226.566C49.693 231.28 55.7754 233.3 56.7891 232.627C58.1408 220.506 65.2371 209.059 74.0229 203.672C74.0229 203.672 74.3608 203.672 74.3608 203.335C76.7262 201.989 79.0916 201.315 81.1191 201.315C82.1329 201.315 83.1466 201.315 83.8224 201.315C84.8362 201.315 85.512 201.652 85.512 201.652L78.0779 197.275Z" fill="#C37A87"/>
<path d="M78.4161 196.937C74.3611 194.917 70.3061 194.581 65.2373 197.274C57.4653 201.651 49.3553 213.435 47.6658 225.892C49.0174 230.942 54.762 232.626 56.1137 233.299C57.8032 220.168 65.2373 208.385 74.0232 202.998C74.0232 202.998 74.3611 202.998 74.3611 202.661C76.7265 201.314 79.0919 200.641 81.1194 200.641C82.809 200.641 84.4985 200.978 85.8502 201.651L78.4161 196.937Z" fill="url(#paint5_linear_207_2)"/>
<path d="M61.5201 415.443C62.8718 418.81 65.2372 425.88 67.6026 428.91C70.9817 433.287 62.8717 434.297 57.4651 435.307C51.7205 435.98 42.2589 429.247 38.8797 423.523C35.8385 417.8 34.8247 409.383 34.8247 409.046C43.2726 414.433 51.7206 417.8 61.5201 415.443Z" fill="url(#paint6_linear_207_2)"/>
<path d="M20.9703 407.026C21.3082 409.046 21.9839 412.749 22.9977 416.453C24.6872 422.176 21.3081 426.553 16.2394 422.513C11.1706 418.81 6.1019 412.413 4.75024 407.026C3.73649 403.322 3.06069 396.252 2.72278 393.559C7.4536 399.282 13.5361 403.659 20.9703 407.026Z" fill="url(#paint7_linear_207_2)"/>
<defs>
<linearGradient id="paint0_linear_207_2" x1="239.602" y1="359.811" x2="97.6407" y2="606.599" gradientUnits="userSpaceOnUse">
<stop stop-color="#DFB8BF"/>
<stop offset="0.9617" stop-color="#EB8382"/>
</linearGradient>
<linearGradient id="paint1_linear_207_2" x1="32.7392" y1="397.561" x2="104.365" y2="400.68" gradientUnits="userSpaceOnUse">
<stop stop-color="#4499D9"/>
<stop offset="1" stop-color="#6E6CC1"/>
</linearGradient>
<linearGradient id="paint2_linear_207_2" x1="6.27239" y1="388.875" x2="44.0079" y2="389.94" gradientUnits="userSpaceOnUse">
<stop stop-color="#4499D9"/>
<stop offset="1" stop-color="#6E6CC1"/>
</linearGradient>
<linearGradient id="paint3_linear_207_2" x1="97.0016" y1="192.507" x2="97.0016" y2="231.332" gradientUnits="userSpaceOnUse">
<stop stop-color="#6379E3"/>
<stop offset="1" stop-color="#D574C9"/>
</linearGradient>
<linearGradient id="paint4_linear_207_2" x1="73.5163" y1="221.852" x2="73.5163" y2="246.093" gradientUnits="userSpaceOnUse">
<stop stop-color="#EB8382"/>
<stop offset="1" stop-color="#EB8382" stop-opacity="0"/>
</linearGradient>
<linearGradient id="paint5_linear_207_2" x1="66.758" y1="195.338" x2="66.758" y2="233.299" gradientUnits="userSpaceOnUse">
<stop stop-color="#EB8382"/>
<stop offset="1" stop-color="#EB8382" stop-opacity="0"/>
</linearGradient>
<linearGradient id="paint6_linear_207_2" x1="38.5554" y1="414.834" x2="60.9298" y2="416.234" gradientUnits="userSpaceOnUse">
<stop stop-color="#4499D9"/>
<stop offset="1" stop-color="#6E6CC1"/>
</linearGradient>
<linearGradient id="paint7_linear_207_2" x1="5.02438" y1="400.274" x2="18.8668" y2="400.735" gradientUnits="userSpaceOnUse">
<stop stop-color="#4499D9"/>
<stop offset="1" stop-color="#6E6CC1"/>
</linearGradient>
</defs>
</svg>
