<svg width="523" height="419" viewBox="0 0 523 419" fill="none" xmlns="http://www.w3.org/2000/svg">
<path d="M1.55222 307.739L36.1233 139.434C42.9869 106.029 74.9331 85.477 106.588 94.6545L120.898 98.796C126.031 100.293 131.359 101.051 136.706 101.051L168.652 101.129L300.073 101.421L334.683 101.499C340.594 101.518 346.505 100.74 352.221 99.1849L368.34 94.81C404.894 84.9131 443.062 107.429 451.443 144.45L494.55 335.174C501.763 367.062 483.622 397.55 452.493 406.3C417.863 416.041 380.453 394.381 370.926 359.654L356.129 305.717C353.057 294.537 342.966 286.429 331.513 285.884L139.584 277.057C129.201 276.571 120.159 283.376 117.418 293.681L104.332 342.874C95.9907 374.198 63.9668 389.345 35.2677 376.026C10.1852 364.359 -4.08649 335.291 1.55222 307.739Z" fill="url(#paint0_linear_218_2)"/>
<path opacity="0.3" d="M169.761 189.851L276.662 192.826C286.171 193.098 293.929 184.31 293.929 173.188V101.44L153.642 101.09V170.038C153.642 180.732 160.836 189.599 169.761 189.851Z" fill="url(#paint1_linear_218_2)"/>
<path opacity="0.3" d="M82.1078 333.541C82.4384 320.98 76.4691 314.525 77.733 295.334C78.3357 286.37 80.0273 260.86 96.8462 247.833C112.946 235.35 135.209 240.327 164.005 246.744C201.104 255.007 199.665 263.893 225.7 267.49C263.655 272.721 277.187 255.28 304.856 264.224C318.642 268.676 329.18 277.504 337.094 286.779C335.285 286.293 333.419 285.981 331.513 285.884L139.584 277.057C129.201 276.571 120.159 283.376 117.418 293.681L104.332 342.874C97.5656 368.287 75.2053 383.064 51.6783 380.614C75.7497 361.54 81.7773 345.499 82.1078 333.541Z" fill="url(#paint2_linear_218_2)"/>
<path d="M312.983 172.741C312.983 203.929 338.494 230.022 370.401 231.072C402.794 232.122 429.413 207.02 429.413 174.977C429.413 142.933 402.794 116.801 370.401 116.626C338.494 116.432 312.983 141.572 312.983 172.741Z" fill="url(#paint3_linear_218_2)"/>
<path d="M247.866 246.958C247.866 272.157 268.146 293.565 293.423 294.79C319.011 296.034 339.991 276.162 339.991 250.399C339.991 224.636 319.011 203.19 293.423 202.529C268.127 201.848 247.866 221.739 247.866 246.958Z" fill="url(#paint4_linear_218_2)"/>
<path d="M256.635 247.288C256.635 267.626 273.026 284.893 293.423 285.826C314.014 286.779 330.852 270.776 330.852 250.049C330.852 229.342 314.014 212.076 293.423 211.492C273.026 210.909 256.635 226.931 256.635 247.288Z" fill="url(#paint5_linear_218_2)"/>
<path d="M263.927 247.697C263.927 261.871 275.321 273.907 289.554 274.587C303.942 275.287 315.744 264.107 315.744 249.622C315.744 235.136 303.942 223.081 289.554 222.692C275.321 222.322 263.927 233.522 263.927 247.697Z" fill="url(#paint6_linear_218_2)"/>
<path d="M268.865 247.872C268.865 259.304 278.082 269.007 289.554 269.551C301.142 270.096 310.611 261.093 310.611 249.447C310.611 237.8 301.142 228.097 289.554 227.767C278.082 227.417 268.865 236.439 268.865 247.872Z" fill="url(#paint7_linear_218_2)"/>
<path d="M112.168 241.319C112.168 265.604 130.99 286.195 154.458 287.343C178.199 288.49 197.643 269.318 197.643 244.527C197.643 219.717 178.199 199.107 154.458 198.484C130.99 197.843 112.168 217.034 112.168 241.319Z" fill="url(#paint8_linear_218_2)"/>
<path d="M120.315 241.63C120.315 261.23 135.52 277.835 154.439 278.71C173.532 279.585 189.165 264.146 189.165 244.216C189.165 224.286 173.552 207.662 154.439 207.117C135.52 206.573 120.315 222.031 120.315 241.63Z" fill="url(#paint9_linear_218_2)"/>
<path d="M123.27 241.941C123.27 256.116 134.664 268.151 148.897 268.832C163.286 269.532 175.088 258.352 175.088 243.866C175.088 229.381 163.286 217.325 148.897 216.937C134.664 216.587 123.27 227.786 123.27 241.941Z" fill="url(#paint10_linear_218_2)"/>
<path d="M128.209 242.136C128.209 253.569 137.425 263.271 148.897 263.816C160.486 264.36 169.955 255.358 169.955 243.711C169.955 232.064 160.486 222.361 148.897 222.031C137.425 221.681 128.209 230.703 128.209 242.136Z" fill="url(#paint11_linear_218_2)"/>
<path d="M312.964 138.636C316.892 138.675 320.08 135.545 320.08 131.617V119.154C320.08 115.245 316.892 112.037 312.964 112.037C309.056 112.018 305.867 115.168 305.867 119.076V131.5C305.886 135.409 309.056 138.597 312.964 138.636Z" fill="url(#paint12_linear_218_2)"/>
<path d="M140.459 136.556C144.036 136.595 146.933 133.6 146.933 129.848V117.948C146.933 114.215 144.036 111.162 140.459 111.143C136.881 111.123 134.003 114.137 134.003 117.87V129.731C134.003 133.464 136.9 136.517 140.459 136.556Z" fill="url(#paint13_linear_218_2)"/>
<path d="M364.295 132.375L376.525 132.492C380.123 132.531 383.059 135.428 383.059 138.967V152.889C383.059 154.153 382.67 155.377 381.97 156.427L376.448 164.516C375.242 166.285 373.201 167.316 371.023 167.277L369.817 167.258C367.64 167.219 365.618 166.11 364.412 164.302L358.929 156.077C358.229 155.027 357.859 153.783 357.859 152.539V138.714C357.821 135.175 360.718 132.356 364.295 132.375Z" fill="url(#paint14_linear_218_2)"/>
<path d="M364.295 215.07L376.525 215.42C380.123 215.517 383.059 212.737 383.059 209.198V195.276C383.059 194.012 382.67 192.768 381.97 191.699L376.448 183.396C375.242 181.588 373.201 180.46 371.023 180.421L369.817 180.402C367.64 180.363 365.618 181.393 364.412 183.143L358.929 191.154C358.229 192.185 357.859 193.39 357.859 194.654V208.479C357.821 212.017 360.718 214.973 364.295 215.07Z" fill="url(#paint15_linear_218_2)"/>
<path d="M412.944 168.58V180.713C412.944 184.271 409.969 187.11 406.314 187.032L392.003 186.721C390.72 186.701 389.456 186.293 388.367 185.574L380.025 179.974C378.198 178.749 377.109 176.727 377.109 174.588V173.402C377.109 171.263 378.198 169.28 380.025 168.113L388.367 162.825C389.436 162.144 390.7 161.794 392.003 161.813L406.314 162.047C409.969 162.086 412.944 165.022 412.944 168.58Z" fill="url(#paint16_linear_218_2)"/>
<path d="M328.713 167.083V178.982C328.713 182.482 331.571 185.379 335.091 185.457L349.013 185.768C350.276 185.788 351.521 185.457 352.571 184.777L360.815 179.546C362.623 178.399 363.712 176.435 363.712 174.296V173.11C363.712 170.971 362.623 168.949 360.815 167.744L352.571 162.202C351.521 161.483 350.276 161.094 349.013 161.075L335.091 160.841C331.571 160.802 328.713 163.602 328.713 167.083Z" fill="url(#paint17_linear_218_2)"/>
<path d="M361.573 132.978L373.804 133.095C377.401 133.134 380.337 136.031 380.337 139.57V153.492C380.337 154.755 379.948 155.98 379.248 157.03L373.726 165.119C372.52 166.888 370.479 167.919 368.301 167.88L367.095 167.86C364.918 167.822 362.896 166.713 361.69 164.905L356.207 156.68C355.507 155.63 355.138 154.386 355.138 153.142V139.317C355.099 135.778 357.996 132.959 361.573 132.978Z" fill="url(#paint18_linear_218_2)"/>
<path d="M361.573 215.673L373.804 216.023C377.401 216.12 380.337 213.339 380.337 209.801V195.879C380.337 194.615 379.948 193.371 379.248 192.301L373.726 183.999C372.52 182.19 370.479 181.063 368.301 181.024L367.095 181.004C364.918 180.965 362.896 181.996 361.69 183.746L356.207 191.757C355.507 192.787 355.138 193.993 355.138 195.257V209.081C355.099 212.639 357.996 215.575 361.573 215.673Z" fill="url(#paint19_linear_218_2)"/>
<path d="M410.202 169.183V181.315C410.202 184.874 407.227 187.712 403.572 187.635L389.261 187.324C387.978 187.304 386.714 186.896 385.625 186.176L377.284 180.577C375.456 179.352 374.367 177.329 374.367 175.191V174.005C374.367 171.866 375.456 169.883 377.284 168.716L385.625 163.427C386.695 162.747 387.959 162.397 389.261 162.416L403.572 162.649C407.247 162.688 410.202 165.624 410.202 169.183Z" fill="url(#paint20_linear_218_2)"/>
<path d="M325.972 167.705V179.605C325.972 183.104 328.83 186.002 332.349 186.079L346.271 186.39C347.535 186.41 348.779 186.079 349.829 185.399L358.073 180.168C359.882 179.021 360.971 177.057 360.971 174.919V173.732C360.971 171.594 359.882 169.572 358.073 168.366L349.829 162.825C348.779 162.105 347.535 161.716 346.271 161.697L332.349 161.463C328.83 161.405 325.972 164.205 325.972 167.705Z" fill="url(#paint21_linear_218_2)"/>
<path d="M135.189 169.027C135.189 198.757 112.246 222.128 84.3048 221.214C56.753 220.32 34.7037 196.093 34.7037 167.102C34.7037 138.111 56.753 114.721 84.3048 114.876C112.246 115.051 135.189 139.298 135.189 169.027Z" fill="url(#paint22_linear_218_2)"/>
<path d="M71.5498 134.534C71.5498 141.981 77.2468 148.105 84.3049 148.222C91.3825 148.319 97.1378 142.311 97.1378 134.806C97.1378 127.301 91.3825 121.176 84.3049 121.117C77.2663 121.079 71.5498 127.067 71.5498 134.534Z" fill="url(#paint23_linear_218_2)"/>
<path d="M71.5498 201.109C71.5498 208.556 77.2468 214.778 84.3049 215.011C91.3825 215.225 97.1378 209.334 97.1378 201.829C97.1378 194.323 91.3825 188.101 84.3049 187.926C77.2663 187.751 71.5498 193.643 71.5498 201.109Z" fill="url(#paint24_linear_218_2)"/>
<path d="M116.115 155.008C108.94 154.891 103.146 160.899 103.146 168.405C103.146 175.93 108.94 182.152 116.115 182.307C123.309 182.463 129.162 176.474 129.162 168.91C129.162 161.347 123.309 155.125 116.115 155.008Z" fill="url(#paint25_linear_218_2)"/>
<path d="M53.0004 154.036C46.059 153.919 40.4398 159.83 40.4398 167.238C40.4398 174.646 46.059 180.752 53.0004 180.907C59.9613 181.063 65.6389 175.152 65.6389 167.705C65.6389 160.258 59.9808 154.133 53.0004 154.036Z" fill="url(#paint26_linear_218_2)"/>
<path d="M68.8278 135.136C68.8278 142.583 74.5248 148.708 81.5829 148.825C88.6604 148.922 94.4158 142.914 94.4158 135.409C94.4158 127.903 88.6604 121.779 81.5829 121.72C74.5248 121.681 68.8278 127.689 68.8278 135.136Z" fill="url(#paint27_linear_218_2)"/>
<path d="M68.8278 201.712C68.8278 209.159 74.5248 215.381 81.5829 215.614C88.6604 215.828 94.4158 209.937 94.4158 202.431C94.4158 194.926 88.6604 188.704 81.5829 188.529C74.5248 188.354 68.8278 194.246 68.8278 201.712Z" fill="url(#paint28_linear_218_2)"/>
<path d="M113.393 155.63C106.218 155.514 100.424 161.522 100.424 169.027C100.424 176.552 106.218 182.774 113.393 182.929C120.587 183.085 126.44 177.096 126.44 169.533C126.44 161.969 120.587 155.727 113.393 155.63Z" fill="url(#paint29_linear_218_2)"/>
<path d="M50.2783 154.639C43.3368 154.522 37.7176 160.433 37.7176 167.841C37.7176 175.229 43.3368 181.354 50.2783 181.51C57.2392 181.665 62.9167 175.754 62.9167 168.308C62.9167 160.861 57.2392 154.736 50.2783 154.639Z" fill="url(#paint30_linear_218_2)"/>
<path opacity="0.3" d="M435.868 384.873C434.779 371.048 416.172 369.006 412.4 351.565C407.228 327.669 438.707 315.555 435.868 289.87C433.088 264.749 400.539 254.366 405.303 239.102C407.655 231.519 416.133 232.667 427.682 222.186C443.918 207.448 447.612 186.643 448.429 180.693C453.465 143.633 423.774 115.848 418.408 110.812C409.308 102.296 399.567 96.5406 390.506 92.6518C419.147 94.6351 444.774 114.915 451.443 144.431L494.55 335.155C501.763 367.043 483.622 397.53 452.493 406.28C442.615 409.061 432.524 409.275 422.899 407.369C433.807 397.958 436.315 390.511 435.868 384.873Z" fill="url(#paint31_linear_218_2)"/>
<path opacity="0.3" d="M192.393 165.391C207.89 156.836 217.067 167.024 228.306 159.286C241.411 150.244 233.264 133.387 246.447 123.354C257.53 114.915 268.146 123.198 284.168 116.898C287.279 115.673 290.584 113.904 293.929 111.318V173.188C293.929 184.29 286.171 193.098 276.662 192.826L169.761 189.851C167.505 189.793 165.366 189.171 163.441 188.121C165.95 187.226 168.497 186.06 171.024 184.563C182.321 177.874 181.952 171.146 192.393 165.391Z" fill="#5488D0"/>
<path d="M467.309 275.637C477.342 270.738 496.902 288.47 506.41 305.464C510.202 312.231 514.655 320.183 513.566 329.633C511.621 346.393 493.053 361.073 467.465 365.993C466.745 363.426 466.026 360.84 465.306 358.274C468.106 355.357 472.287 351.157 477.634 346.335C485.839 338.927 487.531 338.441 487.919 336.108C489.203 328.447 469.526 322.05 462.526 308.595C456.498 297.006 459.609 279.39 467.309 275.637Z" fill="url(#paint32_linear_218_2)"/>
<path d="M480.473 410.286C480.473 410.286 478.82 414.349 479.637 415.944C480.453 417.538 484.4 416.527 489.981 417.383C495.542 418.238 499.391 419.541 499.703 418.374C500.014 417.227 488.464 411.122 487.55 410.286C486.636 409.45 480.473 410.286 480.473 410.286Z" fill="url(#paint33_linear_218_2)"/>
<path d="M481.95 404.219L485.839 410.286C485.839 410.286 484.05 412.055 480.998 411.394L476.72 405.639L481.95 404.219Z" fill="url(#paint34_linear_218_2)"/>
<path opacity="0.3" d="M462.526 308.575C456.498 297.006 459.609 279.39 467.309 275.618C469.331 274.626 471.742 274.568 474.367 275.229C472.987 279.234 473.259 282.132 473.94 284.173C476.992 293.312 490.195 292.281 494.317 302.684C496.922 309.256 492.781 312.522 496.475 317.811C500.305 323.275 506.566 322.361 508.511 327.688C509.949 331.655 507.111 333.91 508.199 337.255C508.511 338.188 509.113 339.121 510.105 340.016C503.319 352.207 487.55 362.104 467.445 365.973C466.726 363.407 466.006 360.821 465.287 358.254C468.087 355.338 472.267 351.138 477.614 346.316C485.82 338.908 487.511 338.421 487.9 336.088C489.203 328.447 469.526 322.05 462.526 308.575Z" fill="url(#paint35_linear_218_2)"/>
<path d="M474.153 279.254C473.725 296.792 473.959 315.75 475.242 335.933C476.856 361.715 479.909 385.378 483.622 406.65C481.97 407.175 480.317 407.7 478.664 408.225C461.69 391.697 456.615 377.153 455.234 366.693C454.243 359.304 455.74 358.662 454.418 349.407C451.89 331.791 445.299 325.744 440.671 309.256C438.94 303.073 436.996 293.701 437.132 281.509C449.46 280.77 461.806 280.012 474.153 279.254Z" fill="url(#paint36_linear_218_2)"/>
<path d="M486.306 247.852C485.994 247.93 484.653 248.377 484.128 253.958C482.845 267.432 489.864 272.876 488.133 280.187C486.481 287.206 478.022 290.609 469.312 294.109C463.498 296.442 445.512 303.695 435.052 295.548C430.657 292.126 430.171 287.984 427.021 272.779C419.049 234.144 415.958 230.839 419.302 222.478C425.058 208.109 440.496 202.179 443.063 201.187C470.439 190.629 502.774 210.034 515.549 232.297C517.241 235.233 527.274 252.752 520.216 261.054C515.938 266.09 506.138 266.888 499.663 263.466C491.03 258.877 489.183 247.191 486.306 247.852Z" fill="url(#paint37_linear_218_2)"/>
<path d="M516.23 258.06C516.307 258.06 516.405 258.041 516.482 258.002C516.794 257.866 516.93 257.496 516.794 257.185C516.56 256.68 510.902 244.547 497.855 239.764C497.544 239.647 497.175 239.803 497.058 240.133C496.941 240.444 497.097 240.814 497.428 240.93C509.988 245.538 515.627 257.594 515.666 257.71C515.763 257.944 515.996 258.06 516.23 258.06Z" fill="url(#paint38_linear_218_2)"/>
<path opacity="0.3" d="M437.21 217.539C438.94 222.245 433.749 226.328 435.985 231.422C439.174 238.733 451.832 234.98 456.362 242.233C461.729 250.808 449.44 264.885 454.515 269.707C456.829 271.904 459.492 269.085 466.239 270.64C475.845 272.837 478.742 280.44 483.214 279.273C484.614 278.904 486.325 277.64 487.764 273.712C488.386 275.89 488.678 277.971 488.153 280.207C486.5 287.226 478.042 290.628 469.331 294.128C463.517 296.462 445.532 303.714 435.071 295.567C430.677 292.145 430.191 288.004 427.041 272.798C419.069 234.164 415.977 230.858 419.322 222.497C421.149 217.948 423.949 214.234 427.021 211.259C433.593 212.698 436.315 215.07 437.21 217.539Z" fill="url(#paint39_linear_218_2)"/>
<path d="M453.757 247.055C453.018 247.735 445.532 254.327 436.51 252.071C428.655 250.108 423.852 242.486 422.997 236.069C420.994 220.806 440.885 207.992 438.435 204.901C436.977 203.054 429.141 206.631 423.93 209.839C418.525 213.184 403.883 222.186 400.772 239.88C400.5 241.377 397.059 262.474 409.114 271.185C420.255 279.234 442.052 274.86 456.829 255.805C455.818 252.888 454.787 249.971 453.757 247.055Z" fill="url(#paint40_linear_218_2)"/>
<path d="M502.055 233.094L493.13 261.58C492.839 262.513 491.983 263.154 491.011 263.193L443.024 264.885C441.526 264.943 440.36 263.563 440.69 262.085L446.893 233.503C447.126 232.472 448.021 231.714 449.071 231.694L499.78 230.119C501.374 230.061 502.541 231.597 502.055 233.094Z" fill="#D8DEE8"/>
<path d="M501.627 234.047L492.975 261.696C492.683 262.61 491.866 263.232 490.914 263.271L444.326 264.924C442.868 264.982 441.74 263.641 442.051 262.202L448.079 234.436C448.293 233.425 449.168 232.705 450.198 232.667L499.411 231.13C500.966 231.092 502.094 232.569 501.627 234.047Z" fill="url(#paint41_linear_218_2)"/>
<path d="M442.071 262.182L447.826 235.68C448.798 237.994 450.062 239.161 451.268 239.744C454.729 241.455 457.431 238.364 464.995 238.655C467.892 238.772 473.803 239.005 477.497 242.816C480.958 246.413 479.481 250.108 481.658 255.163C482.747 257.71 484.789 260.607 488.717 263.31L444.346 264.885C442.888 264.963 441.76 263.621 442.071 262.182Z" fill="url(#paint42_linear_218_2)"/>
<path d="M471.295 198.426C470.79 200.215 471.859 202.081 473.667 202.509C475.864 203.034 478.528 203.773 479.675 204.434C481.795 205.64 473.22 204.24 465.345 204.065C460.426 203.948 456.751 203.404 454.69 202.995C454.126 202.879 454.087 202.12 454.632 201.945C456.596 201.304 459.804 200.37 462.506 200.02C465.851 199.593 469.448 192.204 469.448 192.204L472.326 194.81L471.295 198.426Z" fill="url(#paint43_linear_218_2)"/>
<path d="M499.819 242.174L499.275 241.28C498.789 239.433 497.019 238.227 495.114 238.461L492.255 238.811C491.361 238.927 490.758 239.763 490.933 240.658C491.206 241.941 491.886 243.458 493.636 243.341C496.63 243.147 498.536 247.502 498.536 247.502L499.683 245.888C500.461 244.799 500.519 243.341 499.819 242.174Z" fill="url(#paint44_linear_218_2)"/>
<path d="M477.692 194.654C480.161 194.285 482.942 192.204 482.884 190.493C482.806 188.121 477.4 186.838 474.678 186.176C471.937 185.515 470.79 185.749 469.992 186.351C469.195 186.954 468.67 188.043 468.495 188.996C468.398 189.501 468.398 190.221 468.476 191.621C468.554 192.865 468.534 192.807 468.554 193.176C468.631 194.071 468.865 195.626 469.74 197.765C470.09 197.376 470.576 196.909 471.178 196.443C471.412 196.268 472.326 195.568 473.356 195.16C475.184 194.44 476.195 194.868 477.692 194.654Z" fill="url(#paint45_linear_218_2)"/>
<path d="M468.456 195.354C468.456 195.354 468.612 198.795 471.859 200.312C474.776 201.673 478.625 195.587 477.575 193.273C477.226 192.496 476.117 191.66 475.009 191.407C474.348 191.251 474.017 191.387 472.948 191.115C471.956 190.862 471.762 190.629 471.373 190.707C470.887 190.804 470.284 191.349 469.817 193.487C469.584 192.651 469.04 192.087 468.476 192.049C468.379 192.049 468.126 192.068 467.892 192.204C467.095 192.729 467.251 194.012 468.456 195.354Z" fill="url(#paint46_linear_218_2)"/>
<path d="M123.62 86.4298C117.496 76.6106 104.293 58.9946 81.4857 50.6532C71.7832 47.1144 56.3837 41.4757 44.6397 49.681C33.4595 57.4974 33.2067 72.5274 33.2067 74.0441C33.1873 86.7214 40.9453 98.6599 53.2338 105.057C55.3726 102.665 57.492 100.254 59.6309 97.8627C54.0699 87.1686 53.7588 77.8939 56.8699 76.0273C59.8642 74.219 67.4084 78.4772 74.0776 87.0131C90.5854 86.7992 107.113 86.6047 123.62 86.4298Z" fill="url(#paint47_linear_218_2)"/>
<path opacity="0.3" d="M45.3202 85.8659C43.2008 81.1605 39.1954 81.0633 37.1538 75.8718C34.7817 69.8248 36.8816 61.4834 41.237 59.539C44.4841 58.0808 46.2924 61.9112 51.6589 60.939C58.5615 59.6946 60.253 54.5614 65.7362 54.1726C69.2944 53.9198 70.3833 55.9614 79.1135 61.639C89.3993 68.3471 96.4574 72.8192 101.357 70.5053C102.563 69.9415 104.332 68.6193 105.635 65.0805C114.268 72.6053 120.101 80.7911 123.62 86.4103C107.093 86.6048 90.5854 86.7992 74.0582 86.9937C67.3889 78.4773 59.8447 74.1996 56.8504 76.0079C53.7588 77.8745 54.0505 87.1492 59.6114 97.8433C57.4726 100.235 55.3532 102.646 53.2144 105.038C49.9673 103.346 47.0702 101.265 44.523 98.9127C46.8563 93.2157 46.7396 89.0158 45.3202 85.8659Z" fill="url(#paint48_linear_218_2)"/>
<path d="M33.2068 148.3C33.2068 148.3 31.5735 154.522 29.5319 158.158C27.4903 161.794 25.0015 161.347 24.9238 158.158C24.846 154.969 30.7569 146.336 30.7569 146.336L33.2068 148.3Z" fill="url(#paint49_linear_218_2)"/>
<path d="M139.953 94.4211C118.759 76.2995 95.4464 77.8939 95.4464 77.8939C79.0164 79.0217 67.6418 86.9547 62.2169 90.8435C36.8622 109.023 30.4652 137.606 28.8319 146.492C29.0652 146.919 29.7652 148.008 31.1652 148.669C32.7984 149.467 34.2956 149.175 34.7429 149.058C37.7955 143.264 48.8201 124.112 72.6971 113.904C92.7631 105.329 110.749 107.837 117.651 109.16C121.676 110.696 127.781 112.212 134.684 110.734C137.173 110.209 145.047 108.498 146 104.026C146.545 101.518 144.795 98.5432 139.953 94.4211Z" fill="url(#paint50_linear_218_2)"/>
<path d="M195.154 45.2284C193.132 41.2229 184.227 24.7346 164.355 17.6182C147.381 11.5517 132.817 16.0432 126.731 17.9098C119.984 19.9903 107.424 23.8596 99.7628 35.6426C99.1795 36.537 89.4381 51.8392 95.524 58.4307C99.5489 62.8055 109.679 62.4167 119.187 56.0586C118.604 58.2946 117.457 61.5223 114.987 64.6333C111.662 68.8137 108.979 68.9692 108.512 71.3997C107.89 74.7052 112.343 77.0578 120.159 84.5437C126.906 91.0185 125.934 91.524 132.039 97.2016C140.167 104.785 144.075 108.732 147.07 108.848C158.872 109.276 169.002 68.7942 170.733 61.7167C178.88 56.2335 187.027 50.731 195.154 45.2284Z" fill="url(#paint51_linear_218_2)"/>
<path d="M115.454 44.4312C114.248 49.9532 111.799 53.5698 110.224 55.4947C108.085 58.1196 105.79 60.939 102.349 61.0168C99.5879 61.0751 96.4185 59.3446 95.6602 57.0697C94.2992 53.0448 100.152 46.57 110.243 40.7174C111.974 41.9424 113.723 43.1868 115.454 44.4312Z" fill="url(#paint52_linear_218_2)"/>
<path opacity="0.3" d="M100.521 54.6003C102.504 53.5115 101.902 51.0421 104.04 47.8339C108.804 40.7369 121.423 38.6953 124.029 42.1952C125.681 44.3923 123.387 48.8255 121.345 52.7532C120.626 54.1337 119.868 55.3586 119.09 56.4669C119.129 56.3308 119.168 56.1947 119.207 56.0586C109.699 62.4167 99.5684 62.7862 95.5435 58.4307C94.2213 56.9919 93.638 55.1448 93.5602 53.1032C96.3212 54.7948 98.8101 55.5531 100.521 54.6003Z" fill="url(#paint53_linear_218_2)"/>
<path d="M136.667 33.4261L109.29 32.7455C108.26 32.7261 107.501 33.6983 107.774 34.6899L111.487 48.1061C111.662 48.7283 112.187 49.1755 112.829 49.2144L137.873 51.431C138.825 51.5088 139.623 50.7116 139.525 49.7588L138.145 34.8066C138.087 34.0483 137.445 33.4455 136.667 33.4261Z" fill="white"/>
<path d="M111.001 46.3561C111.001 46.3561 109.174 45.9089 108.513 44.1784C108.163 43.2451 108.007 41.7868 107.949 40.6201C107.89 39.5896 108.629 38.6758 109.66 38.5008L113.315 37.8786C114.132 37.7425 114.832 38.5202 114.56 39.3174C114.365 39.8813 113.996 40.5035 113.296 41.0868C111.449 42.6423 110.574 43.6339 110.574 43.6339L111.001 46.3561Z" fill="url(#paint54_linear_218_2)"/>
<path opacity="0.3" d="M146.72 86.4298C146.622 80.48 136.064 78.5162 133.77 68.1137C132.778 63.6028 133.303 57.3224 136.589 55.4364C140.789 53.0448 145.903 59.8696 151.795 57.6919C156.986 55.7669 155.936 49.3699 160.253 47.5616C165.25 45.4423 171.647 52.3059 177.46 57.2058C175.224 58.7224 172.988 60.2195 170.772 61.7362C169.041 68.8137 158.93 109.296 147.109 108.868C144.289 108.771 140.614 105.212 133.323 98.3683C144.056 93.5073 146.759 89.4824 146.72 86.4298Z" fill="url(#paint55_linear_218_2)"/>
<path d="M188.815 38.2676C193.676 37.8981 205.07 60.7446 196.01 77.6413C194.785 79.9162 192.121 84.9132 186.56 87.4215C173.455 93.3324 154.128 80.9272 146 66.0139C142.286 59.2085 141.334 52.656 141.081 48.5533C142.131 47.2312 143.181 45.9284 144.231 44.6062C147.283 47.8534 153.253 53.181 162.236 55.7087C166.922 57.0114 172.813 58.6641 177.966 56.0198C186.813 51.4699 185.218 38.5398 188.815 38.2676Z" fill="url(#paint56_linear_218_2)"/>
<path d="M144.756 8.75177C144.756 8.75177 149.053 15.3627 150.608 15.8682C152.164 16.3738 160.953 17.8515 160.972 18.2987C160.991 18.7459 156.111 19.8153 150.2 20.2236C144.289 20.6319 139.409 18.182 138.476 17.5209C137.523 16.8599 140.75 15.4988 142.228 15.6543C143.706 15.8099 142.403 11.2017 142.403 11.2017L144.756 8.75177Z" fill="url(#paint57_linear_218_2)"/>
<path d="M115.396 45.9866C117.282 44.9561 118.876 46.181 121.035 45.0533C122.901 44.0811 122.551 42.7006 124.223 40.9312C127.451 37.4897 131.631 39.5313 134.548 36.6147C135.17 35.9925 135.87 35.0203 136.259 33.4259L136.648 33.4453C137.426 33.4648 138.067 34.0676 138.126 34.8453L139.506 49.7976C139.603 50.7503 138.806 51.5475 137.853 51.4698L113.043 49.2726C113.685 47.3282 114.599 46.4338 115.396 45.9866Z" fill="url(#paint58_linear_218_2)"/>
<path d="M143.55 45.4812C143.298 44.6451 142.811 43.459 141.898 42.2729C139.856 39.648 136.337 37.9759 135.442 38.7925C135.034 39.1619 135.014 40.2313 136.609 43.2646C137.464 43.4784 138.592 43.8868 139.525 44.8201C140.867 46.1617 140.964 47.6978 141.703 47.7561C142.111 47.795 142.714 47.4061 143.55 45.4812Z" fill="url(#paint59_linear_218_2)"/>
<path d="M136.551 10.6379C134.587 9.72403 133.265 6.51581 134.237 4.10478C134.956 2.31595 136.687 1.57707 137.931 1.05209C138.514 0.799322 142.617 -0.892283 145.261 1.22709C146.097 1.88818 146.759 3.0937 146.953 4.22144C147.05 4.80475 147.07 5.60193 146.972 7.19633C146.875 8.61572 146.914 8.55741 146.875 8.96573C146.778 9.97681 146.506 11.7267 145.534 14.1767C145.125 13.7294 144.581 13.2045 143.9 12.6795C143.648 12.4851 142.598 11.6879 141.431 11.2212C139.039 10.249 138.087 11.3573 136.551 10.6379Z" fill="url(#paint60_linear_218_2)"/>
<path d="M147.05 11.4546C147.05 11.4546 146.875 15.3628 143.181 17.0738C139.875 18.6099 135.501 11.7268 136.706 9.08242C137.114 8.20745 138.359 7.2547 139.623 6.96304C140.381 6.78805 140.75 6.94361 141.975 6.63251C143.103 6.34085 143.317 6.08808 143.764 6.16585C144.309 6.28252 145.009 6.9047 145.534 9.33518C145.806 8.38243 146.409 7.76024 147.05 7.72136C147.147 7.72136 147.459 7.7408 147.692 7.89635C148.586 8.47967 148.411 9.91849 147.05 11.4546Z" fill="url(#paint61_linear_218_2)"/>
<path d="M145.125 7.17682C145.125 7.17682 145.456 10.3851 145.125 11.4156C144.795 12.4461 143.434 13.8655 141.334 14.0794C139.214 14.2932 137.834 14.0794 137.834 14.0794C137.834 14.0794 139.409 17.7543 140.07 17.9098C140.731 18.0459 144.756 17.8515 145.495 17.1709C146.234 16.4904 147.128 13.5349 146.914 12.2128C146.7 10.91 145.495 7.93513 145.495 7.93513L145.125 7.17682Z" fill="url(#paint62_linear_218_2)"/>
<defs>
<linearGradient id="paint0_linear_218_2" x1="353.268" y1="87.2363" x2="158.379" y2="449.173" gradientUnits="userSpaceOnUse">
<stop stop-color="#446381"/>
<stop offset="0.9964" stop-color="#826F8C"/>
</linearGradient>
<linearGradient id="paint1_linear_218_2" x1="293.928" y1="146.968" x2="153.646" y2="146.968" gradientUnits="userSpaceOnUse">
<stop stop-color="#40447E"/>
<stop offset="0.9964" stop-color="#3C3B6B"/>
</linearGradient>
<linearGradient id="paint2_linear_218_2" x1="133.631" y1="271.056" x2="37.5467" y2="172.242" gradientUnits="userSpaceOnUse">
<stop stop-color="#446381"/>
<stop offset="0.9964" stop-color="#826F8C"/>
</linearGradient>
<linearGradient id="paint3_linear_218_2" x1="338.476" y1="227.139" x2="418.546" y2="96.8428" gradientUnits="userSpaceOnUse">
<stop stop-color="#444B8C"/>
<stop offset="0.9964" stop-color="#26264F"/>
</linearGradient>
<linearGradient id="paint4_linear_218_2" x1="339.997" y1="248.672" x2="247.86" y2="248.672" gradientUnits="userSpaceOnUse">
<stop stop-color="#444B8C"/>
<stop offset="0.9964" stop-color="#26264F"/>
</linearGradient>
<linearGradient id="paint5_linear_218_2" x1="302.04" y1="171.694" x2="296.945" y2="219.009" gradientUnits="userSpaceOnUse">
<stop stop-color="#444B8C"/>
<stop offset="0.9964" stop-color="#26264F"/>
</linearGradient>
<linearGradient id="paint6_linear_218_2" x1="287.68" y1="228.845" x2="296.324" y2="308.603" gradientUnits="userSpaceOnUse">
<stop stop-color="#444B8C"/>
<stop offset="0.9964" stop-color="#26264F"/>
</linearGradient>
<linearGradient id="paint7_linear_218_2" x1="289.388" y1="219.194" x2="290.173" y2="287.557" gradientUnits="userSpaceOnUse">
<stop stop-color="#444B8C"/>
<stop offset="0.9964" stop-color="#26264F"/>
</linearGradient>
<linearGradient id="paint8_linear_218_2" x1="197.642" y1="242.918" x2="112.168" y2="242.918" gradientUnits="userSpaceOnUse">
<stop stop-color="#444B8C"/>
<stop offset="0.9964" stop-color="#26264F"/>
</linearGradient>
<linearGradient id="paint9_linear_218_2" x1="164.016" y1="156.83" x2="158.921" y2="204.145" gradientUnits="userSpaceOnUse">
<stop stop-color="#444B8C"/>
<stop offset="0.9964" stop-color="#26264F"/>
</linearGradient>
<linearGradient id="paint10_linear_218_2" x1="147.024" y1="223.105" x2="155.668" y2="302.862" gradientUnits="userSpaceOnUse">
<stop stop-color="#444B8C"/>
<stop offset="0.9964" stop-color="#26264F"/>
</linearGradient>
<linearGradient id="paint11_linear_218_2" x1="148.732" y1="213.453" x2="149.518" y2="281.816" gradientUnits="userSpaceOnUse">
<stop stop-color="#444B8C"/>
<stop offset="0.9964" stop-color="#26264F"/>
</linearGradient>
<linearGradient id="paint12_linear_218_2" x1="322.838" y1="96.7071" x2="305.368" y2="147.479" gradientUnits="userSpaceOnUse">
<stop stop-color="#AA80F9"/>
<stop offset="0.9964" stop-color="#6165D7"/>
</linearGradient>
<linearGradient id="paint13_linear_218_2" x1="168.135" y1="43.4766" x2="150.666" y2="94.2485" gradientUnits="userSpaceOnUse">
<stop stop-color="#AA80F9"/>
<stop offset="0.9964" stop-color="#6165D7"/>
</linearGradient>
<linearGradient id="paint14_linear_218_2" x1="311.967" y1="203.37" x2="325.979" y2="189.903" gradientUnits="userSpaceOnUse">
<stop stop-color="#AA80F9"/>
<stop offset="0.9964" stop-color="#6165D7"/>
</linearGradient>
<linearGradient id="paint15_linear_218_2" x1="338.639" y1="231.123" x2="352.651" y2="217.656" gradientUnits="userSpaceOnUse">
<stop stop-color="#AA80F9"/>
<stop offset="0.9964" stop-color="#6165D7"/>
</linearGradient>
<linearGradient id="paint16_linear_218_2" x1="338.696" y1="231.182" x2="352.708" y2="217.716" gradientUnits="userSpaceOnUse">
<stop stop-color="#AA80F9"/>
<stop offset="0.9964" stop-color="#6165D7"/>
</linearGradient>
<linearGradient id="paint17_linear_218_2" x1="312.088" y1="203.495" x2="326.1" y2="190.029" gradientUnits="userSpaceOnUse">
<stop stop-color="#AA80F9"/>
<stop offset="0.9964" stop-color="#6165D7"/>
</linearGradient>
<linearGradient id="paint18_linear_218_2" x1="377.537" y1="140.657" x2="360.7" y2="141.253" gradientUnits="userSpaceOnUse">
<stop stop-color="#4499D9"/>
<stop offset="1" stop-color="#6E6CC1"/>
</linearGradient>
<linearGradient id="paint19_linear_218_2" x1="377.537" y1="188.708" x2="360.699" y2="189.302" gradientUnits="userSpaceOnUse">
<stop stop-color="#4499D9"/>
<stop offset="1" stop-color="#6E6CC1"/>
</linearGradient>
<linearGradient id="paint20_linear_218_2" x1="406.221" y1="167.964" x2="382.363" y2="169.626" gradientUnits="userSpaceOnUse">
<stop stop-color="#4499D9"/>
<stop offset="1" stop-color="#6E6CC1"/>
</linearGradient>
<linearGradient id="paint21_linear_218_2" x1="357.082" y1="166.947" x2="333.778" y2="168.551" gradientUnits="userSpaceOnUse">
<stop stop-color="#4499D9"/>
<stop offset="1" stop-color="#6E6CC1"/>
</linearGradient>
<linearGradient id="paint22_linear_218_2" x1="54.288" y1="218.157" x2="139.454" y2="79.1253" gradientUnits="userSpaceOnUse">
<stop stop-color="#444B8C"/>
<stop offset="0.9964" stop-color="#26264F"/>
</linearGradient>
<linearGradient id="paint23_linear_218_2" x1="15.1831" y1="203.841" x2="34.2908" y2="184.733" gradientUnits="userSpaceOnUse">
<stop stop-color="#AA80F9"/>
<stop offset="0.9964" stop-color="#6165D7"/>
</linearGradient>
<linearGradient id="paint24_linear_218_2" x1="48.5773" y1="237.235" x2="67.6851" y2="218.127" gradientUnits="userSpaceOnUse">
<stop stop-color="#AA80F9"/>
<stop offset="0.9964" stop-color="#6165D7"/>
</linearGradient>
<linearGradient id="paint25_linear_218_2" x1="48.0881" y1="236.746" x2="67.1958" y2="217.638" gradientUnits="userSpaceOnUse">
<stop stop-color="#AA80F9"/>
<stop offset="0.9964" stop-color="#6165D7"/>
</linearGradient>
<linearGradient id="paint26_linear_218_2" x1="15.9287" y1="204.587" x2="35.0364" y2="185.479" gradientUnits="userSpaceOnUse">
<stop stop-color="#AA80F9"/>
<stop offset="0.9964" stop-color="#6165D7"/>
</linearGradient>
<linearGradient id="paint27_linear_218_2" x1="91.5727" y1="127.683" x2="74.4911" y2="128.474" gradientUnits="userSpaceOnUse">
<stop stop-color="#4499D9"/>
<stop offset="1" stop-color="#6E6CC1"/>
</linearGradient>
<linearGradient id="paint28_linear_218_2" x1="91.5727" y1="194.486" x2="74.4911" y2="195.277" gradientUnits="userSpaceOnUse">
<stop stop-color="#4499D9"/>
<stop offset="1" stop-color="#6E6CC1"/>
</linearGradient>
<linearGradient id="paint29_linear_218_2" x1="123.549" y1="161.636" x2="106.183" y2="162.447" gradientUnits="userSpaceOnUse">
<stop stop-color="#4499D9"/>
<stop offset="1" stop-color="#6E6CC1"/>
</linearGradient>
<linearGradient id="paint30_linear_218_2" x1="60.1168" y1="160.55" x2="43.2944" y2="161.323" gradientUnits="userSpaceOnUse">
<stop stop-color="#4499D9"/>
<stop offset="1" stop-color="#6E6CC1"/>
</linearGradient>
<linearGradient id="paint31_linear_218_2" x1="482.019" y1="156.564" x2="287.129" y2="518.501" gradientUnits="userSpaceOnUse">
<stop stop-color="#444B8C"/>
<stop offset="0.9964" stop-color="#26264F"/>
</linearGradient>
<linearGradient id="paint32_linear_218_2" x1="513.732" y1="320.397" x2="459.356" y2="320.397" gradientUnits="userSpaceOnUse">
<stop stop-color="#4499D9"/>
<stop offset="0.9964" stop-color="#6E6CC1"/>
</linearGradient>
<linearGradient id="paint33_linear_218_2" x1="499.72" y1="414.374" x2="479.424" y2="414.374" gradientUnits="userSpaceOnUse">
<stop stop-color="#311944"/>
<stop offset="1" stop-color="#6B3976"/>
</linearGradient>
<linearGradient id="paint34_linear_218_2" x1="476.627" y1="378.808" x2="483.726" y2="423.252" gradientUnits="userSpaceOnUse">
<stop stop-color="#311944"/>
<stop offset="1" stop-color="#A03976"/>
</linearGradient>
<linearGradient id="paint35_linear_218_2" x1="513.732" y1="320.401" x2="459.356" y2="320.401" gradientUnits="userSpaceOnUse">
<stop stop-color="#AA80F9"/>
<stop offset="0.9964" stop-color="#6165D7"/>
</linearGradient>
<linearGradient id="paint36_linear_218_2" x1="474" y1="322" x2="451" y2="374" gradientUnits="userSpaceOnUse">
<stop stop-color="#4499D9"/>
<stop offset="0.9964" stop-color="#6E6CC1"/>
</linearGradient>
<linearGradient id="paint37_linear_218_2" x1="453.624" y1="187.371" x2="487.368" y2="307.533" gradientUnits="userSpaceOnUse">
<stop stop-color="#FFC444"/>
<stop offset="0.9964" stop-color="#F36F56"/>
</linearGradient>
<linearGradient id="paint38_linear_218_2" x1="507.757" y1="246.205" x2="501.893" y2="265.238" gradientUnits="userSpaceOnUse">
<stop stop-color="#FFC444"/>
<stop offset="0.9964" stop-color="#F36F56"/>
</linearGradient>
<linearGradient id="paint39_linear_218_2" x1="434.338" y1="192.786" x2="468.082" y2="312.949" gradientUnits="userSpaceOnUse">
<stop stop-color="#FFC444"/>
<stop offset="0.9964" stop-color="#F36F56"/>
</linearGradient>
<linearGradient id="paint40_linear_218_2" x1="412.685" y1="198.867" x2="446.43" y2="319.029" gradientUnits="userSpaceOnUse">
<stop stop-color="#FFC444"/>
<stop offset="0.9964" stop-color="#F36F56"/>
</linearGradient>
<linearGradient id="paint41_linear_218_2" x1="477.688" y1="235.109" x2="457.318" y2="271.837" gradientUnits="userSpaceOnUse">
<stop offset="0.494" stop-color="#EBEFF2"/>
<stop offset="1" stop-color="white"/>
</linearGradient>
<linearGradient id="paint42_linear_218_2" x1="445.309" y1="274.17" x2="468.971" y2="248.759" gradientUnits="userSpaceOnUse">
<stop offset="0.494" stop-color="#EBEFF2"/>
<stop offset="1" stop-color="white"/>
</linearGradient>
<linearGradient id="paint43_linear_218_2" x1="463.956" y1="176.435" x2="467.865" y2="209.768" gradientUnits="userSpaceOnUse">
<stop stop-color="#311944"/>
<stop offset="1" stop-color="#A03976"/>
</linearGradient>
<linearGradient id="paint44_linear_218_2" x1="500.305" y1="242.972" x2="490.897" y2="242.972" gradientUnits="userSpaceOnUse">
<stop stop-color="#311944"/>
<stop offset="1" stop-color="#A03976"/>
</linearGradient>
<linearGradient id="paint45_linear_218_2" x1="459.441" y1="203.299" x2="478.578" y2="187.23" gradientUnits="userSpaceOnUse">
<stop stop-color="#AA80F9"/>
<stop offset="0.9964" stop-color="#6165D7"/>
</linearGradient>
<linearGradient id="paint46_linear_218_2" x1="467.49" y1="180.94" x2="471.194" y2="190.199" gradientUnits="userSpaceOnUse">
<stop stop-color="#311944"/>
<stop offset="1" stop-color="#A03976"/>
</linearGradient>
<linearGradient id="paint47_linear_218_2" x1="113.574" y1="58.5632" x2="53.4212" y2="63.0373" gradientUnits="userSpaceOnUse">
<stop stop-color="#4499D9"/>
<stop offset="1" stop-color="#6E6CC1"/>
</linearGradient>
<linearGradient id="paint48_linear_218_2" x1="62.5538" y1="33.5885" x2="75.7914" y2="69.9213" gradientUnits="userSpaceOnUse">
<stop stop-color="#AA80F9"/>
<stop offset="0.9964" stop-color="#6165D7"/>
</linearGradient>
<linearGradient id="paint49_linear_218_2" x1="33.2083" y1="153.524" x2="24.9278" y2="153.524" gradientUnits="userSpaceOnUse">
<stop stop-color="#311944"/>
<stop offset="1" stop-color="#6B3976"/>
</linearGradient>
<linearGradient id="paint50_linear_218_2" x1="133.067" y1="93.5554" x2="55.1242" y2="99.8368" gradientUnits="userSpaceOnUse">
<stop stop-color="#4499D9"/>
<stop offset="1" stop-color="#6E6CC1"/>
</linearGradient>
<linearGradient id="paint51_linear_218_2" x1="135.965" y1="18.7106" x2="159.624" y2="106.022" gradientUnits="userSpaceOnUse">
<stop stop-color="#893976"/>
<stop offset="1" stop-color="#311944"/>
</linearGradient>
<linearGradient id="paint52_linear_218_2" x1="99.3422" y1="27.8277" x2="124.161" y2="119.421" gradientUnits="userSpaceOnUse">
<stop stop-color="#893976"/>
<stop offset="1" stop-color="#311944"/>
</linearGradient>
<linearGradient id="paint53_linear_218_2" x1="103.307" y1="27.5598" x2="126.966" y2="114.871" gradientUnits="userSpaceOnUse">
<stop stop-color="#893976"/>
<stop offset="1" stop-color="#311944"/>
</linearGradient>
<linearGradient id="paint54_linear_218_2" x1="111.291" y1="38.7344" x2="111.479" y2="70.0918" gradientUnits="userSpaceOnUse">
<stop stop-color="#FFC444"/>
<stop offset="0.9964" stop-color="#F36F56"/>
</linearGradient>
<linearGradient id="paint55_linear_218_2" x1="139.127" y1="17.8539" x2="162.785" y2="105.165" gradientUnits="userSpaceOnUse">
<stop stop-color="#893976"/>
<stop offset="1" stop-color="#311944"/>
</linearGradient>
<linearGradient id="paint56_linear_218_2" x1="157.055" y1="39.1862" x2="184.375" y2="72.4208" gradientUnits="userSpaceOnUse">
<stop stop-color="#893976"/>
<stop offset="1" stop-color="#311944"/>
</linearGradient>
<linearGradient id="paint57_linear_218_2" x1="160.968" y1="14.5074" x2="138.286" y2="14.5074" gradientUnits="userSpaceOnUse">
<stop stop-color="#FFC444"/>
<stop offset="0.9964" stop-color="#F36F56"/>
</linearGradient>
<linearGradient id="paint58_linear_218_2" x1="139.538" y1="42.4282" x2="113.057" y2="42.4282" gradientUnits="userSpaceOnUse">
<stop offset="0.494" stop-color="#EBEFF2"/>
<stop offset="1" stop-color="white"/>
</linearGradient>
<linearGradient id="paint59_linear_218_2" x1="139.355" y1="38.5601" x2="139.543" y2="69.9172" gradientUnits="userSpaceOnUse">
<stop stop-color="#FFC444"/>
<stop offset="0.9964" stop-color="#F36F56"/>
</linearGradient>
<linearGradient id="paint60_linear_218_2" x1="156.577" y1="19.1587" x2="137.142" y2="2.8394" gradientUnits="userSpaceOnUse">
<stop stop-color="#311944"/>
<stop offset="1" stop-color="#6B3976"/>
</linearGradient>
<linearGradient id="paint61_linear_218_2" x1="141.419" y1="8.0582" x2="156.163" y2="38.7054" gradientUnits="userSpaceOnUse">
<stop stop-color="#FFC444"/>
<stop offset="0.9964" stop-color="#F36F56"/>
</linearGradient>
<linearGradient id="paint62_linear_218_2" x1="137.461" y1="26.5414" x2="144.634" y2="8.3219" gradientUnits="userSpaceOnUse">
<stop stop-color="#311944"/>
<stop offset="1" stop-color="#6B3976"/>
</linearGradient>
</defs>
</svg>
